NotoSansGeorgian-SemiBold.ufo
<glyph name="acutecomb" format="2">
  <unicode hex="0301"/>
  <anchor x="-20" y="546" name="_top"/>
  <anchor x="-20" y="766" name="top"/>
  <outline>
    <contour>
      <point x="141" y="766" type="line"/>
      <point x="-26" y="766" type="line"/>
      <point x="-55" y="721"/>
      <point x="-109" y="656"/>
      <point x="-141" y="619" type="curve"/>
      <point x="-141" y="606" type="line"/>
      <point x="-42" y="606" type="line"/>
      <point x="9" y="641"/>
      <point x="103" y="719"/>
      <point x="141" y="756" type="curve"/>
    </contour>
  </outline>
</glyph>
<glyph name="circumflexcomb" format="2">
  <unicode hex="0302"/>
  <anchor x="0" y="546" name="_top"/>
  <anchor x="0" y="766" name="top"/>
  <outline>
    <contour>
      <point x="87" y="766" type="curve"/>
      <point x="-87" y="766" type="line"/>
      <point x="-115" y="721"/>
      <point x="-175" y="656"/>
      <point x="-212" y="619" type="curve"/>
      <point x="-212" y="606" type="line"/>
      <point x="-113" y="606" type="line"/>
      <point x="-78" y="628"/>
      <point x="-36" y="656"/>
      <point x="-1" y="692" type="curve"/>
      <point x="33" y="656"/>
      <point x="78" y="627"/>
      <point x="113" y="606" type="curve"/>
      <point x="212" y="606" type="line"/>
      <point x="212" y="619" type="line"/>
      <point x="176" y="655"/>
      <point x="115" y="721"/>
    </contour>
  </outline>
</glyph>
<glyph name="macroncomb" format="2">
  <unicode hex="0304"/>
  <anchor x="0" y="546" name="_top"/>
  <anchor x="0" y="719" name="top"/>
  <outline>
    <contour>
      <point x="165" y="719" type="line"/>
      <point x="-166" y="719" type="line"/>
      <point x="-166" y="616" type="line"/>
      <point x="165" y="616" type="line"/>
    </contour>
  </outline>
</glyph>
<glyph name="dieresiscomb" format="2">
  <unicode hex="0308"/>
  <anchor x="1" y="546" name="_top"/>
  <anchor x="1" y="742" name="top"/>
  <outline>
    <contour>
      <point x="-167" y="676" type="curve"/>
      <point x="-167" y="632"/>
      <point x="-137" y="611"/>
      <point x="-99" y="611" type="curve" smooth="yes"/>
      <point x="-62" y="611"/>
      <point x="-30" y="632"/>
      <point x="-30" y="676" type="curve" smooth="yes"/>
      <point x="-30" y="722"/>
      <point x="-62" y="742"/>
      <point x="-99" y="742" type="curve" smooth="yes"/>
      <point x="-137" y="742"/>
      <point x="-167" y="722"/>
    </contour>
    <contour>
      <point x="30" y="676" type="curve"/>
      <point x="30" y="632"/>
      <point x="60" y="611"/>
      <point x="99" y="611" type="curve" smooth="yes"/>
      <point x="136" y="611"/>
      <point x="168" y="632"/>
      <point x="168" y="676" type="curve" smooth="yes"/>
      <point x="168" y="722"/>
      <point x="136" y="742"/>
      <point x="99" y="742" type="curve" smooth="yes"/>
      <point x="60" y="742"/>
      <point x="30" y="722"/>
    </contour>
  </outline>
</glyph>
<glyph name="period-arm" format="2">
  <advance width="285"/>
  <unicode hex="0589"/>
  <note>
uni0589
</note>
  <outline>
    <contour>
      <point x="57" y="70" type="curve"/>
      <point x="57" y="11"/>
      <point x="95" y="-13"/>
      <point x="143" y="-13" type="curve" smooth="yes"/>
      <point x="189" y="-13"/>
      <point x="228" y="11"/>
      <point x="228" y="70" type="curve" smooth="yes"/>
      <point x="228" y="131"/>
      <point x="189" y="153"/>
      <point x="143" y="153" type="curve" smooth="yes"/>
      <point x="95" y="153"/>
      <point x="57" y="131"/>
    </contour>
    <contour>
      <point x="57" y="473" type="curve"/>
      <point x="57" y="414"/>
      <point x="95" y="390"/>
      <point x="143" y="390" type="curve" smooth="yes"/>
      <point x="189" y="390"/>
      <point x="228" y="414"/>
      <point x="228" y="473" type="curve" smooth="yes"/>
      <point x="228" y="534"/>
      <point x="189" y="556"/>
      <point x="143" y="556" type="curve" smooth="yes"/>
      <point x="95" y="556"/>
      <point x="57" y="534"/>
    </contour>
  </outline>
</glyph>
<glyph name="An-oldgeorgian" format="2">
  <advance width="637"/>
  <unicode hex="10A0"/>
  <note>
uni10A0
</note>
  <outline>
    <contour>
      <point x="405" y="-10" type="curve" smooth="yes"/>
      <point x="474" y="-10"/>
      <point x="534" y="1"/>
      <point x="593" y="26" type="curve"/>
      <point x="593" y="154" type="line"/>
      <point x="536" y="133"/>
      <point x="479" y="116"/>
      <point x="416" y="116" type="curve" smooth="yes"/>
      <point x="294" y="116"/>
      <point x="217" y="197"/>
      <point x="217" y="334" type="curve" smooth="yes"/>
      <point x="217" y="483"/>
      <point x="304" y="588"/>
      <point x="461" y="588" type="curve" smooth="yes"/>
      <point x="593" y="588" type="line"/>
      <point x="593" y="714" type="line"/>
      <point x="76" y="714" type="line"/>
      <point x="76" y="593" type="line"/>
      <point x="204" y="593" type="line"/>
      <point x="204" y="589" type="line"/>
      <point x="122" y="539"/>
      <point x="58" y="439"/>
      <point x="58" y="315" type="curve" smooth="yes"/>
      <point x="58" y="121"/>
      <point x="198" y="-10"/>
    </contour>
  </outline>
</glyph>
<glyph name="Ban-oldgeorgian" format="2">
  <advance width="857"/>
  <unicode hex="10A1"/>
  <note>
uni10A1
</note>
  <outline>
    <contour>
      <point x="493" y="0" type="line"/>
      <point x="852" y="0" type="line"/>
      <point x="852" y="124" type="line"/>
      <point x="644" y="124" type="line"/>
      <point x="644" y="714" type="line"/>
      <point x="493" y="714" type="line"/>
      <point x="493" y="527" type="line" smooth="yes"/>
      <point x="493" y="401"/>
      <point x="443" y="338"/>
      <point x="342" y="338" type="curve" smooth="yes"/>
      <point x="250" y="338"/>
      <point x="209" y="382"/>
      <point x="209" y="489" type="curve" smooth="yes"/>
      <point x="209" y="574"/>
      <point x="235" y="659"/>
      <point x="276" y="714" type="curve"/>
      <point x="120" y="714" type="line"/>
      <point x="82" y="660"/>
      <point x="53" y="564"/>
      <point x="53" y="482" type="curve" smooth="yes"/>
      <point x="53" y="313"/>
      <point x="145" y="212"/>
      <point x="298" y="212" type="curve" smooth="yes"/>
      <point x="385" y="212"/>
      <point x="450" y="245"/>
      <point x="492" y="311" type="curve"/>
      <point x="500" y="311" type="line"/>
      <point x="496" y="260"/>
      <point x="493" y="217"/>
      <point x="493" y="182" type="curve" smooth="yes"/>
    </contour>
  </outline>
</glyph>
<glyph name="Gan-oldgeorgian" format="2">
  <advance width="786"/>
  <unicode hex="10A2"/>
  <note>
uni10A2
</note>
  <outline>
    <contour>
      <point x="432" y="0" type="line"/>
      <point x="781" y="0" type="line"/>
      <point x="781" y="124" type="line"/>
      <point x="583" y="124" type="line"/>
      <point x="583" y="714" type="line"/>
      <point x="71" y="714" type="line"/>
      <point x="71" y="370" type="line"/>
      <point x="222" y="370" type="line"/>
      <point x="222" y="587" type="line"/>
      <point x="432" y="587" type="line"/>
    </contour>
  </outline>
</glyph>
<glyph name="Don-oldgeorgian" format="2">
  <advance width="776"/>
  <unicode hex="10A3"/>
  <note>
uni10A3
</note>
  <outline>
    <contour>
      <point x="388" y="-10" type="curve" smooth="yes"/>
      <point x="597" y="-10"/>
      <point x="718" y="93"/>
      <point x="718" y="268" type="curve" smooth="yes"/>
      <point x="718" y="426"/>
      <point x="625" y="523"/>
      <point x="457" y="542" type="curve"/>
      <point x="457" y="590" type="line"/>
      <point x="698" y="590" type="line"/>
      <point x="698" y="714" type="line"/>
      <point x="78" y="714" type="line"/>
      <point x="78" y="590" type="line"/>
      <point x="319" y="590" type="line"/>
      <point x="319" y="542" type="line"/>
      <point x="149" y="522"/>
      <point x="58" y="429"/>
      <point x="58" y="269" type="curve" smooth="yes"/>
      <point x="58" y="92"/>
      <point x="179" y="-10"/>
    </contour>
    <contour>
      <point x="388" y="114" type="curve" smooth="yes"/>
      <point x="271" y="114"/>
      <point x="214" y="168"/>
      <point x="214" y="268" type="curve" smooth="yes"/>
      <point x="214" y="371"/>
      <point x="274" y="425"/>
      <point x="389" y="425" type="curve" smooth="yes"/>
      <point x="504" y="425"/>
      <point x="562" y="373"/>
      <point x="562" y="268" type="curve" smooth="yes"/>
      <point x="562" y="165"/>
      <point x="504" y="114"/>
    </contour>
  </outline>
</glyph>
<glyph name="En-oldgeorgian" format="2">
  <advance width="673"/>
  <unicode hex="10A4"/>
  <note>
uni10A4
</note>
  <outline>
    <contour>
      <point x="432" y="0" type="line"/>
      <point x="583" y="0" type="line"/>
      <point x="583" y="714" type="line"/>
      <point x="71" y="714" type="line"/>
      <point x="71" y="370" type="line"/>
      <point x="222" y="370" type="line"/>
      <point x="222" y="587" type="line"/>
      <point x="432" y="587" type="line"/>
    </contour>
  </outline>
</glyph>
<glyph name="Vin-oldgeorgian" format="2">
  <advance width="882"/>
  <unicode hex="10A5"/>
  <note>
uni10A5
</note>
  <outline>
    <contour>
      <point x="441" y="0" type="line"/>
      <point x="592" y="0" type="line"/>
      <point x="592" y="306" type="line"/>
      <point x="709" y="306" type="line"/>
      <point x="709" y="174" type="line"/>
      <point x="843" y="174" type="line"/>
      <point x="843" y="431" type="line"/>
      <point x="592" y="431" type="line"/>
      <point x="592" y="714" type="line"/>
      <point x="71" y="714" type="line"/>
      <point x="71" y="374" type="line"/>
      <point x="221" y="374" type="line"/>
      <point x="221" y="588" type="line"/>
      <point x="441" y="588" type="line"/>
    </contour>
  </outline>
</glyph>
<glyph name="Zen-oldgeorgian" format="2">
  <advance width="785"/>
  <unicode hex="10A6"/>
  <note>
uni10A6
</note>
  <outline>
    <contour>
      <point x="447" y="-10" type="curve" smooth="yes"/>
      <point x="625" y="-10"/>
      <point x="732" y="97"/>
      <point x="732" y="274" type="curve" smooth="yes"/>
      <point x="732" y="448"/>
      <point x="641" y="556"/>
      <point x="494" y="556" type="curve" smooth="yes"/>
      <point x="416" y="556"/>
      <point x="368" y="534"/>
      <point x="322" y="473" type="curve"/>
      <point x="314" y="473" type="line"/>
      <point x="319" y="513"/>
      <point x="321" y="561"/>
      <point x="321" y="602" type="curve" smooth="yes"/>
      <point x="321" y="714" type="line"/>
      <point x="-5" y="714" type="line"/>
      <point x="-5" y="590" type="line"/>
      <point x="170" y="590" type="line"/>
      <point x="170" y="274" type="line" smooth="yes"/>
      <point x="170" y="99"/>
      <point x="279" y="-10"/>
    </contour>
    <contour>
      <point x="449" y="116" type="curve" smooth="yes"/>
      <point x="359" y="116"/>
      <point x="321" y="166"/>
      <point x="321" y="266" type="curve" smooth="yes"/>
      <point x="321" y="382"/>
      <point x="358" y="430"/>
      <point x="450" y="430" type="curve" smooth="yes"/>
      <point x="535" y="430"/>
      <point x="576" y="381"/>
      <point x="576" y="274" type="curve" smooth="yes"/>
      <point x="576" y="168"/>
      <point x="531" y="116"/>
    </contour>
  </outline>
</glyph>
<glyph name="Tan-oldgeorgian" format="2">
  <advance width="940"/>
  <unicode hex="10A7"/>
  <note>
uni10A7
</note>
  <outline>
    <contour>
      <point x="650" y="431" type="line"/>
      <point x="650" y="714" type="line"/>
      <point x="426" y="714" type="line" smooth="yes"/>
      <point x="195" y="714"/>
      <point x="58" y="586"/>
      <point x="58" y="364" type="curve" smooth="yes"/>
      <point x="58" y="129"/>
      <point x="196" y="0"/>
      <point x="448" y="0" type="curve" smooth="yes"/>
      <point x="650" y="0" type="line"/>
      <point x="650" y="306" type="line"/>
      <point x="767" y="306" type="line"/>
      <point x="767" y="174" type="line"/>
      <point x="901" y="174" type="line"/>
      <point x="901" y="431" type="line"/>
    </contour>
    <contour>
      <point x="499" y="125" type="line"/>
      <point x="434" y="125" type="line" smooth="yes"/>
      <point x="288" y="125"/>
      <point x="215" y="203"/>
      <point x="215" y="360" type="curve" smooth="yes"/>
      <point x="215" y="513"/>
      <point x="283" y="590"/>
      <point x="418" y="590" type="curve" smooth="yes"/>
      <point x="499" y="590" type="line"/>
    </contour>
  </outline>
</glyph>
<glyph name="In-oldgeorgian" format="2">
  <advance width="515"/>
  <unicode hex="10A8"/>
  <note>
uni10A8
</note>
  <outline>
    <contour>
      <point x="274" y="0" type="line"/>
      <point x="425" y="0" type="line"/>
      <point x="425" y="714" type="line"/>
      <point x="-5" y="714" type="line"/>
      <point x="-5" y="588" type="line"/>
      <point x="274" y="588" type="line"/>
    </contour>
  </outline>
</glyph>
<glyph name="Kan-oldgeorgian" format="2">
  <advance width="707"/>
  <unicode hex="10A9"/>
  <note>
uni10A9
</note>
  <outline>
    <contour>
      <point x="481" y="0" type="line"/>
      <point x="632" y="0" type="line"/>
      <point x="632" y="368" type="line" smooth="yes"/>
      <point x="632" y="532"/>
      <point x="542" y="632"/>
      <point x="399" y="632" type="curve" smooth="yes"/>
      <point x="321" y="632"/>
      <point x="272" y="611"/>
      <point x="227" y="554" type="curve"/>
      <point x="219" y="554" type="line"/>
      <point x="223" y="588"/>
      <point x="226" y="622"/>
      <point x="226" y="654" type="curve" smooth="yes"/>
      <point x="226" y="714" type="line"/>
      <point x="75" y="714" type="line"/>
      <point x="75" y="362" type="line" smooth="yes"/>
      <point x="75" y="198"/>
      <point x="165" y="98"/>
      <point x="308" y="98" type="curve" smooth="yes"/>
      <point x="386" y="98"/>
      <point x="436" y="119"/>
      <point x="481" y="176" type="curve"/>
      <point x="488" y="176" type="line"/>
      <point x="485" y="143"/>
      <point x="481" y="105"/>
      <point x="481" y="76" type="curve" smooth="yes"/>
    </contour>
    <contour>
      <point x="352" y="224" type="curve" smooth="yes"/>
      <point x="278" y="224"/>
      <point x="226" y="267"/>
      <point x="226" y="361" type="curve" smooth="yes"/>
      <point x="226" y="464"/>
      <point x="273" y="506"/>
      <point x="355" y="506" type="curve" smooth="yes"/>
      <point x="431" y="506"/>
      <point x="481" y="462"/>
      <point x="481" y="368" type="curve" smooth="yes"/>
      <point x="481" y="267"/>
      <point x="434" y="224"/>
    </contour>
  </outline>
</glyph>
<glyph name="Las-oldgeorgian" format="2">
  <advance width="1007"/>
  <unicode hex="10AA"/>
  <note>
uni10AA
</note>
  <outline>
    <contour>
      <point x="669" y="-10" type="curve" smooth="yes"/>
      <point x="846" y="-10"/>
      <point x="954" y="97"/>
      <point x="954" y="274" type="curve" smooth="yes"/>
      <point x="954" y="449"/>
      <point x="864" y="556"/>
      <point x="716" y="556" type="curve" smooth="yes"/>
      <point x="638" y="556"/>
      <point x="590" y="534"/>
      <point x="544" y="473" type="curve"/>
      <point x="536" y="473" type="line"/>
      <point x="539" y="513"/>
      <point x="543" y="556"/>
      <point x="543" y="580" type="curve" smooth="yes"/>
      <point x="543" y="714" type="line"/>
      <point x="71" y="714" type="line"/>
      <point x="71" y="370" type="line"/>
      <point x="222" y="370" type="line"/>
      <point x="222" y="587" type="line"/>
      <point x="392" y="587" type="line"/>
      <point x="392" y="274" type="line" smooth="yes"/>
      <point x="392" y="100"/>
      <point x="500" y="-10"/>
    </contour>
    <contour>
      <point x="671" y="116" type="curve" smooth="yes"/>
      <point x="581" y="116"/>
      <point x="543" y="166"/>
      <point x="543" y="266" type="curve" smooth="yes"/>
      <point x="543" y="382"/>
      <point x="581" y="430"/>
      <point x="672" y="430" type="curve" smooth="yes"/>
      <point x="758" y="430"/>
      <point x="798" y="379"/>
      <point x="798" y="274" type="curve" smooth="yes"/>
      <point x="798" y="168"/>
      <point x="754" y="116"/>
    </contour>
  </outline>
</glyph>
<glyph name="Man-oldgeorgian" format="2">
  <advance width="791"/>
  <unicode hex="10AB"/>
  <note>
uni10AB
</note>
  <outline>
    <contour>
      <point x="337" y="-10" type="curve" smooth="yes"/>
      <point x="511" y="-10"/>
      <point x="611" y="93"/>
      <point x="611" y="245" type="curve" smooth="yes"/>
      <point x="611" y="359" type="line"/>
      <point x="752" y="359" type="line"/>
      <point x="752" y="478" type="line"/>
      <point x="611" y="478" type="line"/>
      <point x="611" y="714" type="line"/>
      <point x="110" y="714" type="line"/>
      <point x="110" y="590" type="line"/>
      <point x="461" y="590" type="line"/>
      <point x="461" y="478" type="line"/>
      <point x="342" y="478" type="line" smooth="yes"/>
      <point x="158" y="478"/>
      <point x="58" y="393"/>
      <point x="58" y="235" type="curve" smooth="yes"/>
      <point x="58" y="82"/>
      <point x="164" y="-10"/>
    </contour>
    <contour>
      <point x="337" y="115" type="curve" smooth="yes"/>
      <point x="256" y="115"/>
      <point x="212" y="157"/>
      <point x="212" y="237" type="curve" smooth="yes"/>
      <point x="212" y="316"/>
      <point x="257" y="359"/>
      <point x="340" y="359" type="curve" smooth="yes"/>
      <point x="461" y="359" type="line"/>
      <point x="461" y="248" type="line" smooth="yes"/>
      <point x="461" y="168"/>
      <point x="420" y="115"/>
    </contour>
  </outline>
</glyph>
<glyph name="Nar-oldgeorgian" format="2">
  <advance width="751"/>
  <unicode hex="10AC"/>
  <note>
uni10AC
</note>
  <outline>
    <contour>
      <point x="90" y="0" type="line"/>
      <point x="241" y="0" type="line"/>
      <point x="241" y="167" type="line" smooth="yes"/>
      <point x="241" y="302"/>
      <point x="281" y="356"/>
      <point x="392" y="356" type="curve" smooth="yes"/>
      <point x="474" y="356"/>
      <point x="515" y="303"/>
      <point x="515" y="215" type="curve" smooth="yes"/>
      <point x="515" y="0" type="line"/>
      <point x="666" y="0" type="line"/>
      <point x="666" y="233" type="line" smooth="yes"/>
      <point x="666" y="385"/>
      <point x="576" y="482"/>
      <point x="436" y="482" type="curve" smooth="yes"/>
      <point x="349" y="482"/>
      <point x="283" y="451"/>
      <point x="239" y="389" type="curve"/>
      <point x="234" y="389" type="line"/>
      <point x="239" y="436"/>
      <point x="241" y="475"/>
      <point x="241" y="496" type="curve"/>
      <point x="241" y="588" type="line"/>
      <point x="639" y="588" type="line"/>
      <point x="639" y="714" type="line"/>
      <point x="90" y="714" type="line"/>
    </contour>
  </outline>
</glyph>
<glyph name="On-oldgeorgian" format="2">
  <advance width="920"/>
  <unicode hex="10AD"/>
  <note>
uni10AD
</note>
  <outline>
    <contour>
      <point x="398" y="-10" type="curve" smooth="yes"/>
      <point x="486" y="-10"/>
      <point x="557" y="11"/>
      <point x="610" y="50" type="curve"/>
      <point x="652" y="14"/>
      <point x="700" y="-10"/>
      <point x="754" y="-10" type="curve" smooth="yes"/>
      <point x="876" y="-10"/>
      <point x="914" y="59"/>
      <point x="915" y="178" type="curve"/>
      <point x="786" y="178" type="line"/>
      <point x="786" y="123"/>
      <point x="765" y="94"/>
      <point x="727" y="94" type="curve" smooth="yes"/>
      <point x="707" y="94"/>
      <point x="691" y="100"/>
      <point x="671" y="113" type="curve"/>
      <point x="716" y="175"/>
      <point x="738" y="259"/>
      <point x="738" y="358" type="curve" smooth="yes"/>
      <point x="738" y="579"/>
      <point x="631" y="724"/>
      <point x="399" y="724" type="curve" smooth="yes"/>
      <point x="165" y="724"/>
      <point x="58" y="579"/>
      <point x="58" y="359" type="curve" smooth="yes"/>
      <point x="58" y="137"/>
      <point x="165" y="-10"/>
    </contour>
    <contour>
      <point x="398" y="117" type="curve" smooth="yes"/>
      <point x="271" y="117"/>
      <point x="217" y="208"/>
      <point x="217" y="358" type="curve" smooth="yes"/>
      <point x="217" y="507"/>
      <point x="271" y="598"/>
      <point x="399" y="598" type="curve" smooth="yes"/>
      <point x="527" y="598"/>
      <point x="579" y="507"/>
      <point x="579" y="358" type="curve" smooth="yes"/>
      <point x="579" y="208"/>
      <point x="527" y="117"/>
    </contour>
  </outline>
</glyph>
<glyph name="Par-oldgeorgian" format="2">
  <advance width="841"/>
  <unicode hex="10AE"/>
  <note>
uni10AE
</note>
  <outline>
    <contour>
      <point x="460" y="-10" type="curve" smooth="yes"/>
      <point x="636" y="-10"/>
      <point x="756" y="82"/>
      <point x="756" y="252" type="curve" smooth="yes"/>
      <point x="756" y="714" type="line"/>
      <point x="605" y="714" type="line"/>
      <point x="605" y="278" type="line" smooth="yes"/>
      <point x="605" y="167"/>
      <point x="562" y="117"/>
      <point x="464" y="117" type="curve" smooth="yes"/>
      <point x="362" y="117"/>
      <point x="321" y="167"/>
      <point x="321" y="277" type="curve" smooth="yes"/>
      <point x="321" y="714" type="line"/>
      <point x="-5" y="714" type="line"/>
      <point x="-5" y="590" type="line"/>
      <point x="170" y="590" type="line"/>
      <point x="170" y="254" type="line" smooth="yes"/>
      <point x="170" y="89"/>
      <point x="277" y="-10"/>
    </contour>
  </outline>
</glyph>
<glyph name="Zhar-oldgeorgian" format="2">
  <advance width="770"/>
  <unicode hex="10AF"/>
  <note>
uni10AF
</note>
  <outline>
    <contour>
      <point x="529" y="0" type="line"/>
      <point x="680" y="0" type="line"/>
      <point x="680" y="714" type="line"/>
      <point x="530" y="714" type="line"/>
      <point x="530" y="508" type="line" smooth="yes"/>
      <point x="530" y="392"/>
      <point x="477" y="333"/>
      <point x="379" y="333" type="curve" smooth="yes"/>
      <point x="297" y="333"/>
      <point x="252" y="378"/>
      <point x="252" y="468" type="curve" smooth="yes"/>
      <point x="252" y="525"/>
      <point x="276" y="582"/>
      <point x="345" y="602" type="curve"/>
      <point x="345" y="714" type="line"/>
      <point x="0" y="714" type="line"/>
      <point x="0" y="589" type="line"/>
      <point x="160" y="589" type="line"/>
      <point x="160" y="585" type="line"/>
      <point x="126" y="554"/>
      <point x="99" y="505"/>
      <point x="99" y="433" type="curve" smooth="yes"/>
      <point x="99" y="303"/>
      <point x="192" y="208"/>
      <point x="337" y="208" type="curve" smooth="yes"/>
      <point x="423" y="208"/>
      <point x="493" y="245"/>
      <point x="532" y="299" type="curve"/>
      <point x="537" y="299" type="line"/>
      <point x="531" y="251"/>
      <point x="529" y="209"/>
      <point x="529" y="166" type="curve" smooth="yes"/>
    </contour>
  </outline>
</glyph>
<glyph name="Rae-oldgeorgian" format="2">
  <advance width="979"/>
  <unicode hex="10B0"/>
  <note>
uni10B0
</note>
  <outline>
    <contour>
      <point x="333" y="-10" type="curve" smooth="yes"/>
      <point x="507" y="-10"/>
      <point x="604" y="91"/>
      <point x="604" y="257" type="curve" smooth="yes"/>
      <point x="604" y="319" type="line" smooth="yes"/>
      <point x="604" y="391"/>
      <point x="639" y="431"/>
      <point x="697" y="431" type="curve" smooth="yes"/>
      <point x="756" y="431"/>
      <point x="786" y="384"/>
      <point x="786" y="330" type="curve" smooth="yes"/>
      <point x="786" y="301"/>
      <point x="778" y="271"/>
      <point x="762" y="244" type="curve"/>
      <point x="895" y="203" type="line"/>
      <point x="923" y="245"/>
      <point x="940" y="298"/>
      <point x="940" y="350" type="curve" smooth="yes"/>
      <point x="940" y="455"/>
      <point x="875" y="555"/>
      <point x="756" y="555" type="curve" smooth="yes"/>
      <point x="685" y="555"/>
      <point x="641" y="532"/>
      <point x="602" y="476" type="curve"/>
      <point x="597" y="476" type="line"/>
      <point x="602" y="531"/>
      <point x="604" y="567"/>
      <point x="604" y="598" type="curve" smooth="yes"/>
      <point x="604" y="714" type="line"/>
      <point x="452" y="714" type="line"/>
      <point x="452" y="276" type="line" smooth="yes"/>
      <point x="452" y="167"/>
      <point x="409" y="117"/>
      <point x="329" y="117" type="curve" smooth="yes"/>
      <point x="254" y="117"/>
      <point x="210" y="174"/>
      <point x="210" y="254" type="curve" smooth="yes"/>
      <point x="210" y="298"/>
      <point x="223" y="339"/>
      <point x="247" y="377" type="curve"/>
      <point x="119" y="431" type="line"/>
      <point x="74" y="373"/>
      <point x="53" y="311"/>
      <point x="53" y="247" type="curve" smooth="yes"/>
      <point x="53" y="107"/>
      <point x="158" y="-10"/>
    </contour>
  </outline>
</glyph>
<glyph name="San-oldgeorgian" format="2">
  <advance width="690"/>
  <unicode hex="10B1"/>
  <note>
uni10B1
</note>
  <outline>
    <contour>
      <point x="356" y="-10" type="curve" smooth="yes"/>
      <point x="530" y="-10"/>
      <point x="637" y="110"/>
      <point x="637" y="247" type="curve" smooth="yes"/>
      <point x="637" y="308"/>
      <point x="616" y="373"/>
      <point x="570" y="431" type="curve"/>
      <point x="442" y="377" type="line"/>
      <point x="465" y="341"/>
      <point x="478" y="302"/>
      <point x="478" y="254" type="curve" smooth="yes"/>
      <point x="478" y="169"/>
      <point x="433" y="117"/>
      <point x="359" y="117" type="curve" smooth="yes"/>
      <point x="280" y="117"/>
      <point x="236" y="167"/>
      <point x="236" y="276" type="curve" smooth="yes"/>
      <point x="236" y="714" type="line"/>
      <point x="85" y="714" type="line"/>
      <point x="85" y="257" type="line"/>
      <point x="85" y="91"/>
      <point x="182" y="-10"/>
    </contour>
  </outline>
</glyph>
<glyph name="Tar-oldgeorgian" format="2">
  <advance width="641"/>
  <unicode hex="10B2"/>
  <note>
uni10B2
</note>
  <outline>
    <contour>
      <point x="90" y="0" type="line"/>
      <point x="549" y="0" type="line"/>
      <point x="549" y="126" type="line"/>
      <point x="241" y="126" type="line"/>
      <point x="241" y="254" type="line"/>
      <point x="306" y="254" type="line" smooth="yes"/>
      <point x="483" y="254"/>
      <point x="583" y="337"/>
      <point x="583" y="491" type="curve" smooth="yes"/>
      <point x="583" y="639"/>
      <point x="491" y="714"/>
      <point x="318" y="714" type="curve" smooth="yes"/>
      <point x="90" y="714" type="line"/>
    </contour>
    <contour>
      <point x="241" y="378" type="line"/>
      <point x="241" y="590" type="line"/>
      <point x="310" y="590" type="line" smooth="yes"/>
      <point x="393" y="590"/>
      <point x="430" y="557"/>
      <point x="430" y="486" type="curve" smooth="yes"/>
      <point x="430" y="416"/>
      <point x="392" y="378"/>
      <point x="304" y="378" type="curve" smooth="yes"/>
    </contour>
  </outline>
</glyph>
<glyph name="Un-oldgeorgian" format="2">
  <advance width="795"/>
  <unicode hex="10B3"/>
  <note>
uni10B3
</note>
  <outline>
    <contour>
      <point x="598" y="-185" type="curve" smooth="yes"/>
      <point x="717" y="-185"/>
      <point x="780" y="-129"/>
      <point x="780" y="-38" type="curve" smooth="yes"/>
      <point x="780" y="37"/>
      <point x="730" y="87"/>
      <point x="668" y="116" type="curve"/>
      <point x="713" y="177"/>
      <point x="738" y="265"/>
      <point x="738" y="358" type="curve" smooth="yes"/>
      <point x="738" y="594"/>
      <point x="618" y="724"/>
      <point x="399" y="724" type="curve" smooth="yes"/>
      <point x="180" y="724"/>
      <point x="58" y="596"/>
      <point x="58" y="359" type="curve" smooth="yes"/>
      <point x="58" y="121"/>
      <point x="179" y="-10"/>
      <point x="398" y="-10" type="curve" smooth="yes"/>
      <point x="478" y="-10"/>
      <point x="550" y="7"/>
      <point x="604" y="46" type="curve"/>
      <point x="629" y="28"/>
      <point x="642" y="5"/>
      <point x="642" y="-19" type="curve" smooth="yes"/>
      <point x="642" y="-54"/>
      <point x="620" y="-73"/>
      <point x="589" y="-73" type="curve" smooth="yes"/>
      <point x="575" y="-73"/>
      <point x="558" y="-71"/>
      <point x="539" y="-67" type="curve"/>
      <point x="539" y="-177" type="line"/>
      <point x="561" y="-182"/>
      <point x="581" y="-185"/>
    </contour>
    <contour>
      <point x="398" y="117" type="curve" smooth="yes"/>
      <point x="277" y="117"/>
      <point x="217" y="198"/>
      <point x="217" y="358" type="curve" smooth="yes"/>
      <point x="217" y="517"/>
      <point x="278" y="598"/>
      <point x="399" y="598" type="curve" smooth="yes"/>
      <point x="519" y="598"/>
      <point x="579" y="518"/>
      <point x="579" y="358" type="curve" smooth="yes"/>
      <point x="579" y="197"/>
      <point x="519" y="117"/>
    </contour>
  </outline>
</glyph>
<glyph name="Phar-oldgeorgian" format="2">
  <advance width="886"/>
  <unicode hex="10B4"/>
  <note>
uni10B4
</note>
  <outline>
    <contour>
      <point x="375" y="0" type="line"/>
      <point x="511" y="0" type="line"/>
      <point x="511" y="162" type="line"/>
      <point x="694" y="162"/>
      <point x="828" y="268"/>
      <point x="828" y="442" type="curve" smooth="yes"/>
      <point x="828" y="625"/>
      <point x="692" y="724"/>
      <point x="442" y="724" type="curve" smooth="yes"/>
      <point x="224" y="724"/>
      <point x="58" y="641"/>
      <point x="58" y="442" type="curve" smooth="yes"/>
      <point x="58" y="271"/>
      <point x="189" y="162"/>
      <point x="375" y="162" type="curve"/>
    </contour>
    <contour>
      <point x="375" y="279" type="line"/>
      <point x="266" y="279"/>
      <point x="200" y="344"/>
      <point x="200" y="443" type="curve" smooth="yes"/>
      <point x="200" y="540"/>
      <point x="268" y="600"/>
      <point x="375" y="600" type="curve"/>
    </contour>
    <contour>
      <point x="511" y="279" type="curve"/>
      <point x="511" y="600" type="line"/>
      <point x="618" y="600"/>
      <point x="686" y="539"/>
      <point x="686" y="443" type="curve" smooth="yes"/>
      <point x="686" y="345"/>
      <point x="620" y="279"/>
    </contour>
  </outline>
</glyph>
<glyph name="Khar-oldgeorgian" format="2">
  <advance width="672"/>
  <unicode hex="10B5"/>
  <note>
uni10B5
</note>
  <outline>
    <contour>
      <point x="256" y="0" type="line"/>
      <point x="406" y="0" type="line"/>
      <point x="406" y="353" type="line"/>
      <point x="614" y="353" type="line"/>
      <point x="614" y="478" type="line"/>
      <point x="406" y="478" type="line"/>
      <point x="406" y="714" type="line"/>
      <point x="256" y="714" type="line"/>
      <point x="256" y="478" type="line"/>
      <point x="48" y="478" type="line"/>
      <point x="48" y="353" type="line"/>
      <point x="256" y="353" type="line"/>
    </contour>
  </outline>
</glyph>
<glyph name="Ghan-oldgeorgian" format="2">
  <advance width="756"/>
  <unicode hex="10B6"/>
  <note>
uni10B6
</note>
  <outline>
    <contour>
      <point x="85" y="0" type="line"/>
      <point x="236" y="0" type="line"/>
      <point x="236" y="436" type="line" smooth="yes"/>
      <point x="236" y="547"/>
      <point x="278" y="597"/>
      <point x="377" y="597" type="curve" smooth="yes"/>
      <point x="479" y="597"/>
      <point x="520" y="548"/>
      <point x="520" y="437" type="curve" smooth="yes"/>
      <point x="520" y="0" type="line"/>
      <point x="671" y="0" type="line"/>
      <point x="671" y="460" type="line" smooth="yes"/>
      <point x="671" y="624"/>
      <point x="564" y="724"/>
      <point x="381" y="724" type="curve" smooth="yes"/>
      <point x="205" y="724"/>
      <point x="85" y="631"/>
      <point x="85" y="462" type="curve" smooth="yes"/>
    </contour>
  </outline>
</glyph>
<glyph name="Qar-oldgeorgian" format="2">
  <advance width="734"/>
  <unicode hex="10B7"/>
  <note>
uni10B7
</note>
  <outline>
    <contour>
      <point x="493" y="0" type="line"/>
      <point x="644" y="0" type="line"/>
      <point x="644" y="714" type="line"/>
      <point x="493" y="714" type="line"/>
      <point x="493" y="527" type="line" smooth="yes"/>
      <point x="493" y="401"/>
      <point x="443" y="338"/>
      <point x="342" y="338" type="curve" smooth="yes"/>
      <point x="250" y="338"/>
      <point x="209" y="382"/>
      <point x="209" y="489" type="curve" smooth="yes"/>
      <point x="209" y="574"/>
      <point x="235" y="659"/>
      <point x="276" y="714" type="curve"/>
      <point x="120" y="714" type="line"/>
      <point x="82" y="660"/>
      <point x="53" y="564"/>
      <point x="53" y="482" type="curve" smooth="yes"/>
      <point x="53" y="313"/>
      <point x="145" y="212"/>
      <point x="298" y="212" type="curve" smooth="yes"/>
      <point x="385" y="212"/>
      <point x="450" y="245"/>
      <point x="492" y="311" type="curve"/>
      <point x="500" y="311" type="line"/>
      <point x="496" y="260"/>
      <point x="493" y="217"/>
      <point x="493" y="182" type="curve" smooth="yes"/>
    </contour>
  </outline>
</glyph>
<glyph name="Shin-oldgeorgian" format="2">
  <advance width="736"/>
  <unicode hex="10B8"/>
  <note>
uni10B8
</note>
  <outline>
    <contour>
      <point x="368" y="-10" type="curve" smooth="yes"/>
      <point x="538" y="-10"/>
      <point x="646" y="84"/>
      <point x="646" y="258" type="curve" smooth="yes"/>
      <point x="646" y="714" type="line"/>
      <point x="495" y="714" type="line"/>
      <point x="495" y="626" type="line" smooth="yes"/>
      <point x="495" y="511"/>
      <point x="445" y="449"/>
      <point x="359" y="449" type="curve" smooth="yes"/>
      <point x="284" y="449"/>
      <point x="236" y="496"/>
      <point x="236" y="593" type="curve" smooth="yes"/>
      <point x="236" y="714" type="line"/>
      <point x="85" y="714" type="line"/>
      <point x="85" y="583" type="line" smooth="yes"/>
      <point x="85" y="422"/>
      <point x="171" y="324"/>
      <point x="319" y="324" type="curve" smooth="yes"/>
      <point x="395" y="324"/>
      <point x="453" y="355"/>
      <point x="497" y="417" type="curve"/>
      <point x="502" y="417" type="line"/>
      <point x="497" y="371"/>
      <point x="495" y="339"/>
      <point x="495" y="311" type="curve" smooth="yes"/>
      <point x="495" y="254" type="line" smooth="yes"/>
      <point x="495" y="164"/>
      <point x="442" y="114"/>
      <point x="368" y="114" type="curve" smooth="yes"/>
      <point x="293" y="114"/>
      <point x="246" y="151"/>
      <point x="246" y="211" type="curve" smooth="yes"/>
      <point x="246" y="223"/>
      <point x="248" y="236"/>
      <point x="252" y="249" type="curve"/>
      <point x="117" y="293" type="line"/>
      <point x="100" y="262"/>
      <point x="92" y="231"/>
      <point x="92" y="196" type="curve" smooth="yes"/>
      <point x="92" y="72"/>
      <point x="212" y="-10"/>
    </contour>
  </outline>
</glyph>
<glyph name="Chin-oldgeorgian" format="2">
  <advance width="717"/>
  <unicode hex="10B9"/>
  <note>
uni10B9
</note>
  <outline>
    <contour>
      <point x="86" y="0" type="line"/>
      <point x="237" y="0" type="line"/>
      <point x="237" y="338" type="line"/>
      <point x="486" y="338" type="line"/>
      <point x="486" y="0" type="line"/>
      <point x="637" y="0" type="line"/>
      <point x="637" y="462" type="line"/>
      <point x="237" y="462" type="line"/>
      <point x="237" y="714" type="line"/>
      <point x="86" y="714" type="line"/>
    </contour>
  </outline>
</glyph>
<glyph name="Can-oldgeorgian" format="2">
  <advance width="724"/>
  <unicode hex="10BA"/>
  <note>
uni10BA
</note>
  <outline>
    <contour>
      <point x="367" y="-10" type="curve" smooth="yes"/>
      <point x="420" y="-10"/>
      <point x="469" y="3"/>
      <point x="513" y="28" type="curve"/>
      <point x="513" y="0" type="line"/>
      <point x="664" y="0" type="line"/>
      <point x="664" y="295" type="line"/>
      <point x="513" y="295" type="line"/>
      <point x="513" y="146" type="line"/>
      <point x="478" y="126"/>
      <point x="436" y="116"/>
      <point x="388" y="116" type="curve" smooth="yes"/>
      <point x="276" y="116"/>
      <point x="214" y="203"/>
      <point x="214" y="355" type="curve" smooth="yes"/>
      <point x="214" y="503"/>
      <point x="299" y="598"/>
      <point x="430" y="598" type="curve" smooth="yes"/>
      <point x="486" y="598"/>
      <point x="541" y="585"/>
      <point x="593" y="559" type="curve"/>
      <point x="643" y="680" type="line"/>
      <point x="575" y="709"/>
      <point x="504" y="724"/>
      <point x="431" y="724" type="curve" smooth="yes"/>
      <point x="197" y="724"/>
      <point x="58" y="588"/>
      <point x="58" y="358" type="curve" smooth="yes"/>
      <point x="58" y="125"/>
      <point x="170" y="-10"/>
    </contour>
  </outline>
</glyph>
<glyph name="Jil-oldgeorgian" format="2">
  <advance width="939"/>
  <unicode hex="10BB"/>
  <outline>
    <contour>
      <point x="326" y="-10" type="curve" smooth="yes"/>
      <point x="489" y="-10"/>
      <point x="590" y="83"/>
      <point x="590" y="245" type="curve" smooth="yes"/>
      <point x="590" y="362" type="line"/>
      <point x="724" y="362" type="line"/>
      <point x="724" y="0" type="line"/>
      <point x="859" y="0" type="line"/>
      <point x="859" y="483" type="line"/>
      <point x="590" y="483" type="line"/>
      <point x="590" y="714" type="line"/>
      <point x="438" y="714" type="line"/>
      <point x="438" y="483" type="line"/>
      <point x="325" y="483" type="line" smooth="yes"/>
      <point x="157" y="483"/>
      <point x="58" y="388"/>
      <point x="58" y="238" type="curve" smooth="yes"/>
      <point x="58" y="86"/>
      <point x="164" y="-10"/>
    </contour>
    <contour>
      <point x="326" y="116" type="curve" smooth="yes"/>
      <point x="257" y="116"/>
      <point x="214" y="162"/>
      <point x="214" y="239" type="curve" smooth="yes"/>
      <point x="214" y="319"/>
      <point x="257" y="362"/>
      <point x="332" y="362" type="curve" smooth="yes"/>
      <point x="438" y="362" type="line"/>
      <point x="438" y="242" type="line" smooth="yes"/>
      <point x="438" y="159"/>
      <point x="398" y="116"/>
    </contour>
  </outline>
</glyph>
<glyph name="Cil-oldgeorgian" format="2">
  <advance width="628"/>
  <unicode hex="10BC"/>
  <note>
uni10BC
</note>
  <outline>
    <contour>
      <point x="90" y="0" type="line"/>
      <point x="241" y="0" type="line"/>
      <point x="241" y="108" type="line"/>
      <point x="363" y="108" type="line"/>
      <point x="363" y="34" type="line"/>
      <point x="501" y="34" type="line"/>
      <point x="501" y="232" type="line"/>
      <point x="241" y="232" type="line"/>
      <point x="241" y="287" type="line"/>
      <point x="306" y="287" type="line" smooth="yes"/>
      <point x="483" y="287"/>
      <point x="583" y="364"/>
      <point x="583" y="507" type="curve" smooth="yes"/>
      <point x="583" y="644"/>
      <point x="492" y="714"/>
      <point x="318" y="714" type="curve" smooth="yes"/>
      <point x="90" y="714" type="line"/>
    </contour>
    <contour>
      <point x="241" y="411" type="line"/>
      <point x="241" y="590" type="line"/>
      <point x="310" y="590" type="line" smooth="yes"/>
      <point x="393" y="590"/>
      <point x="430" y="561"/>
      <point x="430" y="502" type="curve" smooth="yes"/>
      <point x="430" y="441"/>
      <point x="384" y="411"/>
      <point x="291" y="411" type="curve" smooth="yes"/>
    </contour>
  </outline>
</glyph>
<glyph name="Char-oldgeorgian" format="2">
  <advance width="597"/>
  <unicode hex="10BD"/>
  <note>
uni10BD
</note>
  <outline>
    <contour>
      <point x="289" y="-10" type="curve" smooth="yes"/>
      <point x="451" y="-10"/>
      <point x="547" y="67"/>
      <point x="547" y="198" type="curve" smooth="yes"/>
      <point x="547" y="309"/>
      <point x="478" y="363"/>
      <point x="359" y="412" type="curve" smooth="yes"/>
      <point x="255" y="455"/>
      <point x="213" y="479"/>
      <point x="213" y="528" type="curve" smooth="yes"/>
      <point x="213" y="570"/>
      <point x="242" y="598"/>
      <point x="295" y="598" type="curve" smooth="yes"/>
      <point x="352" y="598"/>
      <point x="383" y="573"/>
      <point x="383" y="529" type="curve"/>
      <point x="383" y="523"/>
      <point x="382" y="515"/>
      <point x="381" y="510" type="curve"/>
      <point x="529" y="510" type="line"/>
      <point x="530" y="516"/>
      <point x="531" y="523"/>
      <point x="531" y="530" type="curve"/>
      <point x="531" y="655"/>
      <point x="447" y="724"/>
      <point x="296" y="724" type="curve" smooth="yes"/>
      <point x="153" y="724"/>
      <point x="65" y="648"/>
      <point x="65" y="521" type="curve" smooth="yes"/>
      <point x="65" y="415"/>
      <point x="136" y="359"/>
      <point x="251" y="310" type="curve" smooth="yes"/>
      <point x="336" y="274"/>
      <point x="399" y="246"/>
      <point x="399" y="193" type="curve" smooth="yes"/>
      <point x="399" y="142"/>
      <point x="361" y="115"/>
      <point x="295" y="115" type="curve" smooth="yes"/>
      <point x="226" y="115"/>
      <point x="193" y="145"/>
      <point x="193" y="193" type="curve" smooth="yes"/>
      <point x="193" y="207"/>
      <point x="195" y="221"/>
      <point x="199" y="234" type="curve"/>
      <point x="52" y="234" type="line"/>
      <point x="47" y="218"/>
      <point x="45" y="201"/>
      <point x="45" y="183" type="curve" smooth="yes"/>
      <point x="45" y="63"/>
      <point x="128" y="-10"/>
    </contour>
  </outline>
</glyph>
<glyph name="Xan-oldgeorgian" format="2">
  <advance width="731"/>
  <unicode hex="10BE"/>
  <note>
uni10BE
</note>
  <outline>
    <contour>
      <point x="90" y="714" type="line"/>
      <point x="90" y="0" type="line"/>
      <point x="629" y="0" type="line"/>
      <point x="629" y="124" type="line"/>
      <point x="241" y="124" type="line"/>
      <point x="241" y="272" type="line"/>
      <point x="641" y="272" type="line"/>
      <point x="641" y="714" type="line"/>
      <point x="490" y="714" type="line"/>
      <point x="490" y="396" type="line"/>
      <point x="241" y="396" type="line"/>
      <point x="241" y="714" type="line"/>
    </contour>
  </outline>
</glyph>
<glyph name="Jhan-oldgeorgian" format="2">
  <advance width="692"/>
  <unicode hex="10BF"/>
  <note>
uni10BF
</note>
  <outline>
    <contour>
      <point x="35" y="0" type="line"/>
      <point x="197" y="0" type="line"/>
      <point x="359" y="263" type="line"/>
      <point x="521" y="0" type="line"/>
      <point x="687" y="0" type="line"/>
      <point x="457" y="353" type="line"/>
      <point x="615" y="603" type="line"/>
      <point x="615" y="714" type="line"/>
      <point x="20" y="714" type="line"/>
      <point x="20" y="594" type="line"/>
      <point x="118" y="594" type="line"/>
      <point x="268" y="361" type="line"/>
    </contour>
    <contour>
      <point x="367" y="450" type="line"/>
      <point x="280" y="594" type="line"/>
      <point x="451" y="594" type="line"/>
    </contour>
  </outline>
</glyph>
<glyph name="Hae-oldgeorgian" format="2">
  <advance width="997"/>
  <unicode hex="10C0"/>
  <note>
uni10C0
</note>
  <outline>
    <contour>
      <point x="663" y="-10" type="curve" smooth="yes"/>
      <point x="837" y="-10"/>
      <point x="944" y="110"/>
      <point x="944" y="247" type="curve" smooth="yes"/>
      <point x="944" y="308"/>
      <point x="923" y="373"/>
      <point x="877" y="431" type="curve"/>
      <point x="749" y="377" type="line"/>
      <point x="772" y="341"/>
      <point x="785" y="302"/>
      <point x="785" y="254" type="curve" smooth="yes"/>
      <point x="785" y="169"/>
      <point x="740" y="117"/>
      <point x="666" y="117" type="curve" smooth="yes"/>
      <point x="587" y="117"/>
      <point x="543" y="167"/>
      <point x="543" y="276" type="curve" smooth="yes"/>
      <point x="543" y="714" type="line"/>
      <point x="71" y="714" type="line"/>
      <point x="71" y="370" type="line"/>
      <point x="222" y="370" type="line"/>
      <point x="222" y="587" type="line"/>
      <point x="392" y="587" type="line"/>
      <point x="392" y="257" type="line" smooth="yes"/>
      <point x="392" y="91"/>
      <point x="489" y="-10"/>
    </contour>
  </outline>
</glyph>
<glyph name="He-oldgeorgian" format="2">
  <advance width="769"/>
  <unicode hex="10C1"/>
  <note>
uni10C1
</note>
  <outline>
    <contour>
      <point x="90" y="0" type="line"/>
      <point x="241" y="0" type="line"/>
      <point x="241" y="241" type="line" smooth="yes"/>
      <point x="241" y="378"/>
      <point x="278" y="430"/>
      <point x="377" y="430" type="curve" smooth="yes"/>
      <point x="455" y="430"/>
      <point x="494" y="383"/>
      <point x="494" y="289" type="curve" smooth="yes"/>
      <point x="494" y="222" type="line"/>
      <point x="749" y="222" type="line"/>
      <point x="749" y="347" type="line"/>
      <point x="643" y="347" type="line"/>
      <point x="629" y="480"/>
      <point x="548" y="556"/>
      <point x="423" y="556" type="curve" smooth="yes"/>
      <point x="343" y="556"/>
      <point x="283" y="525"/>
      <point x="242" y="463" type="curve"/>
      <point x="234" y="463" type="line"/>
      <point x="239" y="526"/>
      <point x="241" y="569"/>
      <point x="241" y="592" type="curve" smooth="yes"/>
      <point x="241" y="714" type="line"/>
      <point x="90" y="714" type="line"/>
    </contour>
  </outline>
</glyph>
<glyph name="Hie-oldgeorgian" format="2">
  <advance width="663"/>
  <unicode hex="10C2"/>
  <note>
uni10C2
</note>
  <outline>
    <contour>
      <point x="238" y="-10" type="curve" smooth="yes"/>
      <point x="456" y="-10"/>
      <point x="609" y="106"/>
      <point x="609" y="315" type="curve" smooth="yes"/>
      <point x="609" y="520"/>
      <point x="487" y="630"/>
      <point x="252" y="630" type="curve" smooth="yes"/>
      <point x="209" y="630" type="line"/>
      <point x="209" y="714" type="line"/>
      <point x="71" y="714" type="line"/>
      <point x="71" y="504" type="line"/>
      <point x="238" y="504" type="line" smooth="yes"/>
      <point x="388" y="504"/>
      <point x="453" y="441"/>
      <point x="453" y="316" type="curve" smooth="yes"/>
      <point x="453" y="191"/>
      <point x="375" y="116"/>
      <point x="236" y="116" type="curve" smooth="yes"/>
      <point x="183" y="116"/>
      <point x="120" y="129"/>
      <point x="48" y="154" type="curve"/>
      <point x="48" y="27" type="line"/>
      <point x="114" y="0"/>
      <point x="167" y="-10"/>
    </contour>
  </outline>
</glyph>
<glyph name="We-oldgeorgian" format="2">
  <advance width="714"/>
  <unicode hex="10C3"/>
  <note>
uni10C3
</note>
  <outline>
    <contour>
      <point x="473" y="0" type="line"/>
      <point x="624" y="0" type="line"/>
      <point x="624" y="714" type="line"/>
      <point x="473" y="714" type="line"/>
      <point x="473" y="482" type="line" smooth="yes"/>
      <point x="473" y="366"/>
      <point x="423" y="303"/>
      <point x="333" y="303" type="curve" smooth="yes"/>
      <point x="251" y="303"/>
      <point x="210" y="342"/>
      <point x="210" y="420" type="curve" smooth="yes"/>
      <point x="210" y="462"/>
      <point x="223" y="493"/>
      <point x="247" y="531" type="curve"/>
      <point x="119" y="585" type="line"/>
      <point x="74" y="527"/>
      <point x="53" y="465"/>
      <point x="53" y="401" type="curve" smooth="yes"/>
      <point x="53" y="262"/>
      <point x="143" y="177"/>
      <point x="274" y="177" type="curve" smooth="yes"/>
      <point x="361" y="177"/>
      <point x="431" y="210"/>
      <point x="472" y="276" type="curve"/>
      <point x="480" y="276" type="line"/>
      <point x="476" y="226"/>
      <point x="473" y="183"/>
      <point x="473" y="147" type="curve" smooth="yes"/>
    </contour>
  </outline>
</glyph>
<glyph name="Har-oldgeorgian" format="2">
  <advance width="737"/>
  <unicode hex="10C4"/>
  <note>
uni10C4
</note>
  <outline>
    <contour>
      <point x="293" y="0" type="line"/>
      <point x="444" y="0" type="line"/>
      <point x="444" y="232" type="line"/>
      <point x="582" y="257"/>
      <point x="661" y="353"/>
      <point x="661" y="488" type="curve" smooth="yes"/>
      <point x="661" y="714" type="line"/>
      <point x="510" y="714" type="line"/>
      <point x="510" y="514" type="line" smooth="yes"/>
      <point x="510" y="401"/>
      <point x="468" y="353"/>
      <point x="370" y="353" type="curve" smooth="yes"/>
      <point x="269" y="353"/>
      <point x="227" y="402"/>
      <point x="227" y="513" type="curve" smooth="yes"/>
      <point x="227" y="714" type="line"/>
      <point x="76" y="714" type="line"/>
      <point x="76" y="490" type="line" smooth="yes"/>
      <point x="76" y="349"/>
      <point x="155" y="255"/>
      <point x="293" y="232" type="curve"/>
    </contour>
  </outline>
</glyph>
<glyph name="Hoe-oldgeorgian" format="2">
  <advance width="857"/>
  <unicode hex="10C5"/>
  <note>
uni10C5
</note>
  <outline>
    <contour>
      <point x="266" y="-10" type="curve" smooth="yes"/>
      <point x="412" y="-10"/>
      <point x="495" y="63"/>
      <point x="495" y="185" type="curve" smooth="yes"/>
      <point x="495" y="197" type="line"/>
      <point x="599" y="197" type="line"/>
      <point x="599" y="114" type="line"/>
      <point x="737" y="114" type="line"/>
      <point x="737" y="309" type="line"/>
      <point x="495" y="309" type="line"/>
      <point x="495" y="374" type="line"/>
      <point x="558" y="374" type="line" smooth="yes"/>
      <point x="729" y="374"/>
      <point x="815" y="436"/>
      <point x="815" y="552" type="curve" smooth="yes"/>
      <point x="815" y="661"/>
      <point x="735" y="724"/>
      <point x="577" y="724" type="curve" smooth="yes"/>
      <point x="419" y="724"/>
      <point x="344" y="660"/>
      <point x="344" y="533" type="curve" smooth="yes"/>
      <point x="344" y="309" type="line"/>
      <point x="249" y="309" type="line" smooth="yes"/>
      <point x="116" y="309"/>
      <point x="42" y="250"/>
      <point x="42" y="151" type="curve" smooth="yes"/>
      <point x="42" y="53"/>
      <point x="126" y="-10"/>
    </contour>
    <contour>
      <point x="270" y="102" type="curve" smooth="yes"/>
      <point x="222" y="102"/>
      <point x="198" y="118"/>
      <point x="198" y="149" type="curve" smooth="yes"/>
      <point x="198" y="184"/>
      <point x="224" y="197"/>
      <point x="277" y="197" type="curve" smooth="yes"/>
      <point x="344" y="197" type="line"/>
      <point x="344" y="175" type="line" smooth="yes"/>
      <point x="344" y="123"/>
      <point x="323" y="102"/>
    </contour>
    <contour>
      <point x="495" y="486" type="line"/>
      <point x="495" y="529" type="line" smooth="yes"/>
      <point x="495" y="582"/>
      <point x="519" y="612"/>
      <point x="579" y="612" type="curve" smooth="yes"/>
      <point x="637" y="612"/>
      <point x="659" y="589"/>
      <point x="659" y="550" type="curve" smooth="yes"/>
      <point x="659" y="505"/>
      <point x="629" y="486"/>
      <point x="553" y="486" type="curve" smooth="yes"/>
    </contour>
  </outline>
</glyph>
<glyph name="Yn-oldgeorgian" format="2">
  <advance width="597"/>
  <unicode hex="10C7"/>
  <anchor x="316" y="0" name="bottom"/>
  <anchor x="316" y="714" name="top"/>
  <outline>
    <contour>
      <point x="308" y="-10" type="curve" smooth="yes"/>
      <point x="469" y="-10"/>
      <point x="552" y="63"/>
      <point x="552" y="183" type="curve" smooth="yes"/>
      <point x="552" y="201"/>
      <point x="550" y="218"/>
      <point x="545" y="234" type="curve"/>
      <point x="398" y="234" type="line"/>
      <point x="402" y="221"/>
      <point x="404" y="207"/>
      <point x="404" y="193" type="curve" smooth="yes"/>
      <point x="404" y="145"/>
      <point x="371" y="115"/>
      <point x="302" y="115" type="curve" smooth="yes"/>
      <point x="236" y="115"/>
      <point x="198" y="142"/>
      <point x="198" y="193" type="curve" smooth="yes"/>
      <point x="198" y="246"/>
      <point x="261" y="273"/>
      <point x="346" y="310" type="curve" smooth="yes"/>
      <point x="461" y="360"/>
      <point x="532" y="415"/>
      <point x="532" y="521" type="curve" smooth="yes"/>
      <point x="532" y="648"/>
      <point x="444" y="724"/>
      <point x="301" y="724" type="curve" smooth="yes"/>
      <point x="150" y="724"/>
      <point x="66" y="655"/>
      <point x="66" y="530" type="curve"/>
      <point x="66" y="523"/>
      <point x="67" y="516"/>
      <point x="68" y="510" type="curve"/>
      <point x="216" y="510" type="line"/>
      <point x="215" y="515"/>
      <point x="214" y="523"/>
      <point x="214" y="529" type="curve"/>
      <point x="214" y="573"/>
      <point x="245" y="598"/>
      <point x="302" y="598" type="curve" smooth="yes"/>
      <point x="355" y="598"/>
      <point x="384" y="570"/>
      <point x="384" y="528" type="curve" smooth="yes"/>
      <point x="384" y="479"/>
      <point x="342" y="455"/>
      <point x="238" y="412" type="curve" smooth="yes"/>
      <point x="119" y="363"/>
      <point x="50" y="309"/>
      <point x="50" y="198" type="curve" smooth="yes"/>
      <point x="50" y="67"/>
      <point x="146" y="-10"/>
    </contour>
  </outline>
</glyph>
<glyph name="Aen-oldgeorgian" format="2">
  <advance width="579"/>
  <unicode hex="10CD"/>
  <outline>
    <contour>
      <point x="24" y="0" type="line"/>
      <point x="555" y="0" type="line"/>
      <point x="555" y="125" type="line"/>
      <point x="204" y="125" type="line"/>
      <point x="546" y="616" type="line"/>
      <point x="546" y="714" type="line"/>
      <point x="33" y="714" type="line"/>
      <point x="33" y="589" type="line"/>
      <point x="366" y="589" type="line"/>
      <point x="24" y="98" type="line"/>
    </contour>
  </outline>
</glyph>
<glyph name="an-georgian" format="2">
  <advance width="582"/>
  <unicode hex="10D0"/>
  <note>
uni10D0
</note>
  <anchor x="291" y="546" name="top"/>
  <outline>
    <contour>
      <point x="288" y="-10" type="curve" smooth="yes"/>
      <point x="439" y="-10"/>
      <point x="537" y="79"/>
      <point x="537" y="212" type="curve" smooth="yes"/>
      <point x="537" y="310"/>
      <point x="483" y="364"/>
      <point x="433" y="412" type="curve" smooth="yes"/>
      <point x="390" y="453"/>
      <point x="351" y="491"/>
      <point x="351" y="546" type="curve"/>
      <point x="202" y="546" type="line"/>
      <point x="202" y="439"/>
      <point x="257" y="388"/>
      <point x="306" y="343" type="curve" smooth="yes"/>
      <point x="347" y="305"/>
      <point x="385" y="271"/>
      <point x="385" y="210" type="curve" smooth="yes"/>
      <point x="385" y="156"/>
      <point x="350" y="110"/>
      <point x="288" y="110" type="curve" smooth="yes"/>
      <point x="224" y="110"/>
      <point x="189" y="157"/>
      <point x="189" y="212" type="curve" smooth="yes"/>
      <point x="189" y="239"/>
      <point x="193" y="265"/>
      <point x="199" y="289" type="curve"/>
      <point x="56" y="289" type="line"/>
      <point x="46" y="263"/>
      <point x="40" y="238"/>
      <point x="40" y="201" type="curve" smooth="yes"/>
      <point x="40" y="65"/>
      <point x="144" y="-10"/>
    </contour>
  </outline>
</glyph>
<glyph name="ban-georgian" format="2">
  <advance width="619"/>
  <unicode hex="10D1"/>
  <note>
uni10D1
</note>
  <outline>
    <contour>
      <point x="390" y="546" type="curve"/>
      <point x="398" y="562"/>
      <point x="403" y="581"/>
      <point x="403" y="603" type="curve" smooth="yes"/>
      <point x="403" y="646"/>
      <point x="379" y="671"/>
      <point x="354" y="692" type="curve" smooth="yes"/>
      <point x="331" y="712"/>
      <point x="311" y="731"/>
      <point x="310" y="760" type="curve"/>
      <point x="170" y="760" type="line"/>
      <point x="170" y="697"/>
      <point x="199" y="671"/>
      <point x="224" y="651" type="curve" smooth="yes"/>
      <point x="244" y="635"/>
      <point x="260" y="617"/>
      <point x="260" y="591" type="curve" smooth="yes"/>
      <point x="260" y="574"/>
      <point x="256" y="562"/>
      <point x="250" y="551" type="curve"/>
      <point x="121" y="528"/>
      <point x="45" y="431"/>
      <point x="45" y="274" type="curve" smooth="yes"/>
      <point x="45" y="92"/>
      <point x="155" y="-10"/>
      <point x="308" y="-10" type="curve" smooth="yes"/>
      <point x="472" y="-10"/>
      <point x="574" y="92"/>
      <point x="574" y="274" type="curve" smooth="yes"/>
      <point x="574" y="422"/>
      <point x="500" y="517"/>
    </contour>
    <contour>
      <point x="310" y="109" type="curve" smooth="yes"/>
      <point x="230" y="109"/>
      <point x="197" y="171"/>
      <point x="197" y="274" type="curve" smooth="yes"/>
      <point x="197" y="376"/>
      <point x="230" y="436"/>
      <point x="309" y="436" type="curve" smooth="yes"/>
      <point x="389" y="436"/>
      <point x="422" y="376"/>
      <point x="422" y="274" type="curve" smooth="yes"/>
      <point x="422" y="171"/>
      <point x="389" y="109"/>
    </contour>
  </outline>
</glyph>
<glyph name="gan-georgian" format="2">
  <advance width="609"/>
  <unicode hex="10D2"/>
  <note>
uni10D2
</note>
  <outline>
    <contour>
      <point x="303" y="-250" type="curve" smooth="yes"/>
      <point x="468" y="-250"/>
      <point x="569" y="-148"/>
      <point x="569" y="24" type="curve" smooth="yes"/>
      <point x="569" y="136"/>
      <point x="521" y="223"/>
      <point x="419" y="261" type="curve"/>
      <point x="419" y="264" type="line"/>
      <point x="490" y="289"/>
      <point x="515" y="339"/>
      <point x="515" y="396" type="curve" smooth="yes"/>
      <point x="515" y="483"/>
      <point x="435" y="556"/>
      <point x="303" y="556" type="curve" smooth="yes"/>
      <point x="176" y="556"/>
      <point x="93" y="494"/>
      <point x="93" y="400" type="curve" smooth="yes"/>
      <point x="93" y="385"/>
      <point x="95" y="369"/>
      <point x="100" y="352" type="curve"/>
      <point x="238" y="352" type="line"/>
      <point x="236" y="363"/>
      <point x="235" y="373"/>
      <point x="235" y="382" type="curve" smooth="yes"/>
      <point x="235" y="420"/>
      <point x="259" y="448"/>
      <point x="303" y="448" type="curve" smooth="yes"/>
      <point x="348" y="448"/>
      <point x="373" y="418"/>
      <point x="373" y="382" type="curve" smooth="yes"/>
      <point x="373" y="334"/>
      <point x="345" y="306"/>
      <point x="272" y="294" type="curve" smooth="yes"/>
      <point x="134" y="271"/>
      <point x="40" y="185"/>
      <point x="40" y="24" type="curve" smooth="yes"/>
      <point x="40" y="-148"/>
      <point x="150" y="-250"/>
    </contour>
    <contour>
      <point x="305" y="-130" type="curve" smooth="yes"/>
      <point x="225" y="-130"/>
      <point x="192" y="-68"/>
      <point x="192" y="24" type="curve" smooth="yes"/>
      <point x="192" y="116"/>
      <point x="225" y="176"/>
      <point x="304" y="176" type="curve" smooth="yes"/>
      <point x="384" y="176"/>
      <point x="417" y="116"/>
      <point x="417" y="24" type="curve" smooth="yes"/>
      <point x="417" y="-68"/>
      <point x="384" y="-130"/>
    </contour>
  </outline>
</glyph>
<glyph name="don-georgian" format="2">
  <advance width="911"/>
  <unicode hex="10D3"/>
  <note>
uni10D3
</note>
  <outline>
    <contour>
      <point x="549" y="-250" type="curve"/>
      <point x="657" y="-196" type="line"/>
      <point x="612" y="-108"/>
      <point x="537" y="-65"/>
      <point x="411" y="-15" type="curve" smooth="yes"/>
      <point x="289" y="33"/>
      <point x="195" y="120"/>
      <point x="195" y="285" type="curve" smooth="yes"/>
      <point x="195" y="373"/>
      <point x="220" y="436"/>
      <point x="280" y="436" type="curve" smooth="yes"/>
      <point x="339" y="436"/>
      <point x="365" y="390"/>
      <point x="365" y="313" type="curve" smooth="yes"/>
      <point x="365" y="278" type="line" smooth="yes"/>
      <point x="365" y="108"/>
      <point x="462" y="6"/>
      <point x="617" y="6" type="curve" smooth="yes"/>
      <point x="761" y="6"/>
      <point x="866" y="108"/>
      <point x="866" y="282" type="curve" smooth="yes"/>
      <point x="866" y="455"/>
      <point x="767" y="556"/>
      <point x="620" y="556" type="curve" smooth="yes"/>
      <point x="539" y="556"/>
      <point x="470" y="519"/>
      <point x="442" y="450" type="curve"/>
      <point x="437" y="450" type="line"/>
      <point x="410" y="519"/>
      <point x="351" y="556"/>
      <point x="262" y="556" type="curve" smooth="yes"/>
      <point x="122" y="556"/>
      <point x="45" y="440"/>
      <point x="45" y="284" type="curve" smooth="yes"/>
      <point x="45" y="130"/>
      <point x="129" y="13"/>
      <point x="259" y="-46" type="curve"/>
      <point x="259" y="-50" type="line"/>
      <point x="202" y="-56"/>
      <point x="170" y="-68"/>
      <point x="145" y="-79" type="curve"/>
      <point x="190" y="-175" type="line"/>
      <point x="237" y="-150"/>
      <point x="288" y="-134"/>
      <point x="343" y="-134" type="curve" smooth="yes"/>
      <point x="410" y="-134"/>
      <point x="498" y="-170"/>
    </contour>
    <contour>
      <point x="615" y="126" type="curve" smooth="yes"/>
      <point x="545" y="126"/>
      <point x="517" y="188"/>
      <point x="517" y="282" type="curve" smooth="yes"/>
      <point x="517" y="376"/>
      <point x="545" y="436"/>
      <point x="616" y="436" type="curve" smooth="yes"/>
      <point x="686" y="436"/>
      <point x="714" y="376"/>
      <point x="714" y="282" type="curve" smooth="yes"/>
      <point x="714" y="188"/>
      <point x="687" y="126"/>
    </contour>
  </outline>
</glyph>
<glyph name="en-georgian" format="2">
  <advance width="604"/>
  <unicode hex="10D4"/>
  <note>
uni10D4
</note>
  <anchor x="302" y="546" name="top"/>
  <outline>
    <contour>
      <point x="292" y="-250" type="curve" smooth="yes"/>
      <point x="453" y="-250"/>
      <point x="544" y="-153"/>
      <point x="544" y="12" type="curve" smooth="yes"/>
      <point x="544" y="319" type="line" smooth="yes"/>
      <point x="544" y="467"/>
      <point x="451" y="556"/>
      <point x="303" y="556" type="curve" smooth="yes"/>
      <point x="168" y="556"/>
      <point x="64" y="481"/>
      <point x="64" y="345" type="curve" smooth="yes"/>
      <point x="64" y="308"/>
      <point x="71" y="283"/>
      <point x="80" y="257" type="curve"/>
      <point x="223" y="257" type="line"/>
      <point x="215" y="287"/>
      <point x="213" y="312"/>
      <point x="213" y="337" type="curve" smooth="yes"/>
      <point x="213" y="400"/>
      <point x="248" y="436"/>
      <point x="305" y="436" type="curve" smooth="yes"/>
      <point x="366" y="436"/>
      <point x="395" y="394"/>
      <point x="395" y="319" type="curve" smooth="yes"/>
      <point x="395" y="15" type="line" smooth="yes"/>
      <point x="395" y="-73"/>
      <point x="369" y="-130"/>
      <point x="292" y="-130" type="curve" smooth="yes"/>
      <point x="220" y="-130"/>
      <point x="189" y="-69"/>
      <point x="189" y="4" type="curve" smooth="yes"/>
      <point x="189" y="33"/>
      <point x="194" y="69"/>
      <point x="201" y="96" type="curve"/>
      <point x="61" y="96" type="line"/>
      <point x="47" y="65"/>
      <point x="40" y="32"/>
      <point x="40" y="-7" type="curve" smooth="yes"/>
      <point x="40" y="-150"/>
      <point x="136" y="-250"/>
    </contour>
  </outline>
</glyph>
<glyph name="vin-georgian" format="2">
  <advance width="601"/>
  <unicode hex="10D5"/>
  <note>
uni10D5
</note>
  <outline>
    <contour>
      <point x="300" y="-250" type="curve" smooth="yes"/>
      <point x="463" y="-250"/>
      <point x="561" y="-153"/>
      <point x="561" y="-13" type="curve" smooth="yes"/>
      <point x="561" y="100"/>
      <point x="486" y="164"/>
      <point x="401" y="179" type="curve"/>
      <point x="401" y="182" type="line"/>
      <point x="486" y="202"/>
      <point x="542" y="259"/>
      <point x="542" y="359" type="curve" smooth="yes"/>
      <point x="542" y="468"/>
      <point x="450" y="556"/>
      <point x="305" y="556" type="curve" smooth="yes"/>
      <point x="166" y="556"/>
      <point x="66" y="477"/>
      <point x="66" y="359" type="curve" smooth="yes"/>
      <point x="66" y="333"/>
      <point x="70" y="315"/>
      <point x="77" y="294" type="curve"/>
      <point x="222" y="294" type="line"/>
      <point x="217" y="313"/>
      <point x="215" y="328"/>
      <point x="215" y="347" type="curve" smooth="yes"/>
      <point x="215" y="406"/>
      <point x="246" y="436"/>
      <point x="304" y="436" type="curve" smooth="yes"/>
      <point x="362" y="436"/>
      <point x="392" y="401"/>
      <point x="392" y="342" type="curve" smooth="yes"/>
      <point x="392" y="286"/>
      <point x="367" y="237"/>
      <point x="297" y="237" type="curve" smooth="yes"/>
      <point x="255" y="237" type="line"/>
      <point x="255" y="118" type="line"/>
      <point x="294" y="118" type="line" smooth="yes"/>
      <point x="367" y="118"/>
      <point x="409" y="71"/>
      <point x="409" y="-4" type="curve" smooth="yes"/>
      <point x="409" y="-76"/>
      <point x="378" y="-130"/>
      <point x="301" y="-130" type="curve" smooth="yes"/>
      <point x="222" y="-130"/>
      <point x="189" y="-75"/>
      <point x="189" y="-13" type="curve" smooth="yes"/>
      <point x="189" y="10"/>
      <point x="193" y="39"/>
      <point x="199" y="60" type="curve"/>
      <point x="56" y="60" type="line"/>
      <point x="47" y="36"/>
      <point x="40" y="5"/>
      <point x="40" y="-31" type="curve" smooth="yes"/>
      <point x="40" y="-153"/>
      <point x="136" y="-250"/>
    </contour>
  </outline>
</glyph>
<glyph name="zen-georgian" format="2">
  <advance width="647"/>
  <unicode hex="10D6"/>
  <note>
uni10D6
</note>
  <outline>
    <contour>
      <point x="346" y="-10" type="curve" smooth="yes"/>
      <point x="503" y="-10"/>
      <point x="602" y="92"/>
      <point x="602" y="263" type="curve" smooth="yes"/>
      <point x="602" y="400"/>
      <point x="525" y="488"/>
      <point x="418" y="514" type="curve" smooth="yes"/>
      <point x="413" y="515"/>
      <point x="406" y="517"/>
      <point x="401" y="517" type="curve"/>
      <point x="401" y="521" type="line"/>
      <point x="416" y="542"/>
      <point x="425" y="572"/>
      <point x="425" y="606" type="curve" smooth="yes"/>
      <point x="425" y="687"/>
      <point x="351" y="770"/>
      <point x="223" y="770" type="curve" smooth="yes"/>
      <point x="88" y="770"/>
      <point x="20" y="683"/>
      <point x="20" y="592" type="curve" smooth="yes"/>
      <point x="20" y="507"/>
      <point x="67" y="446"/>
      <point x="149" y="423" type="curve"/>
      <point x="149" y="419" type="line"/>
      <point x="111" y="380"/>
      <point x="93" y="319"/>
      <point x="93" y="254" type="curve" smooth="yes"/>
      <point x="93" y="92"/>
      <point x="199" y="-10"/>
    </contour>
    <contour>
      <point x="348" y="110" type="curve" smooth="yes"/>
      <point x="273" y="110"/>
      <point x="245" y="172"/>
      <point x="245" y="263" type="curve" smooth="yes"/>
      <point x="245" y="353"/>
      <point x="273" y="413"/>
      <point x="347" y="413" type="curve" smooth="yes"/>
      <point x="422" y="413"/>
      <point x="450" y="353"/>
      <point x="450" y="263" type="curve" smooth="yes"/>
      <point x="450" y="172"/>
      <point x="422" y="110"/>
    </contour>
    <contour>
      <point x="223" y="499" type="curve" smooth="yes"/>
      <point x="175" y="499"/>
      <point x="156" y="540"/>
      <point x="156" y="585" type="curve" smooth="yes"/>
      <point x="156" y="627"/>
      <point x="175" y="665"/>
      <point x="222" y="665" type="curve" smooth="yes"/>
      <point x="270" y="665"/>
      <point x="289" y="627"/>
      <point x="289" y="585" type="curve" smooth="yes"/>
      <point x="289" y="536"/>
      <point x="269" y="499"/>
    </contour>
  </outline>
</glyph>
<glyph name="tan-georgian" format="2">
  <advance width="911"/>
  <unicode hex="10D7"/>
  <note>
uni10D7
</note>
  <outline>
    <contour>
      <point x="294" y="-10" type="curve" smooth="yes"/>
      <point x="450" y="-10"/>
      <point x="546" y="92"/>
      <point x="546" y="270" type="curve" smooth="yes"/>
      <point x="546" y="307" type="line" smooth="yes"/>
      <point x="546" y="396"/>
      <point x="573" y="442"/>
      <point x="631" y="442" type="curve" smooth="yes"/>
      <point x="691" y="442"/>
      <point x="716" y="373"/>
      <point x="716" y="278" type="curve" smooth="yes"/>
      <point x="716" y="180"/>
      <point x="697" y="88"/>
      <point x="655" y="0" type="curve"/>
      <point x="801" y="0" type="line"/>
      <point x="845" y="89"/>
      <point x="866" y="174"/>
      <point x="866" y="285" type="curve" smooth="yes"/>
      <point x="866" y="442"/>
      <point x="788" y="556"/>
      <point x="651" y="556" type="curve" smooth="yes"/>
      <point x="560" y="556"/>
      <point x="505" y="519"/>
      <point x="477" y="450" type="curve"/>
      <point x="472" y="450" type="line"/>
      <point x="444" y="519"/>
      <point x="372" y="556"/>
      <point x="291" y="556" type="curve" smooth="yes"/>
      <point x="144" y="556"/>
      <point x="45" y="455"/>
      <point x="45" y="274" type="curve" smooth="yes"/>
      <point x="45" y="92"/>
      <point x="150" y="-10"/>
    </contour>
    <contour>
      <point x="296" y="110" type="curve" smooth="yes"/>
      <point x="224" y="110"/>
      <point x="197" y="172"/>
      <point x="197" y="274" type="curve" smooth="yes"/>
      <point x="197" y="376"/>
      <point x="225" y="436"/>
      <point x="295" y="436" type="curve" smooth="yes"/>
      <point x="366" y="436"/>
      <point x="394" y="376"/>
      <point x="394" y="274" type="curve" smooth="yes"/>
      <point x="394" y="172"/>
      <point x="366" y="110"/>
    </contour>
  </outline>
</glyph>
<glyph name="in-georgian" format="2">
  <advance width="599"/>
  <unicode hex="10D8"/>
  <note>
uni10D8
</note>
  <anchor x="300" y="546" name="top"/>
  <outline>
    <contour>
      <point x="102" y="0" type="curve"/>
      <point x="246" y="0" type="line"/>
      <point x="212" y="88"/>
      <point x="195" y="177"/>
      <point x="195" y="271" type="curve" smooth="yes"/>
      <point x="195" y="385"/>
      <point x="233" y="436"/>
      <point x="299" y="436" type="curve" smooth="yes"/>
      <point x="365" y="436"/>
      <point x="404" y="382"/>
      <point x="404" y="272" type="curve" smooth="yes"/>
      <point x="404" y="180"/>
      <point x="387" y="88"/>
      <point x="353" y="0" type="curve"/>
      <point x="496" y="0" type="line"/>
      <point x="535" y="90"/>
      <point x="554" y="168"/>
      <point x="554" y="275" type="curve" smooth="yes"/>
      <point x="554" y="443"/>
      <point x="468" y="556"/>
      <point x="299" y="556" type="curve" smooth="yes"/>
      <point x="128" y="556"/>
      <point x="45" y="443"/>
      <point x="45" y="275" type="curve" smooth="yes"/>
      <point x="45" y="168"/>
      <point x="64" y="90"/>
    </contour>
  </outline>
</glyph>
<glyph name="kan-georgian" format="2">
  <advance width="586"/>
  <unicode hex="10D9"/>
  <note>
uni10D9
</note>
  <outline>
    <contour>
      <point x="288" y="-250" type="curve" smooth="yes"/>
      <point x="448" y="-250"/>
      <point x="546" y="-153"/>
      <point x="546" y="-8" type="curve" smooth="yes"/>
      <point x="546" y="118"/>
      <point x="471" y="184"/>
      <point x="386" y="199" type="curve"/>
      <point x="386" y="202" type="line"/>
      <point x="471" y="222"/>
      <point x="527" y="279"/>
      <point x="527" y="370" type="curve" smooth="yes"/>
      <point x="527" y="474"/>
      <point x="435" y="556"/>
      <point x="288" y="556" type="curve"/>
      <point x="288" y="442" type="line"/>
      <point x="346" y="442"/>
      <point x="377" y="400"/>
      <point x="377" y="350" type="curve" smooth="yes"/>
      <point x="377" y="302"/>
      <point x="352" y="254"/>
      <point x="280" y="254" type="curve" smooth="yes"/>
      <point x="240" y="254" type="line"/>
      <point x="240" y="141" type="line"/>
      <point x="280" y="141" type="line" smooth="yes"/>
      <point x="353" y="141"/>
      <point x="394" y="87"/>
      <point x="394" y="2" type="curve" smooth="yes"/>
      <point x="394" y="-76"/>
      <point x="363" y="-130"/>
      <point x="288" y="-130" type="curve" smooth="yes"/>
      <point x="217" y="-130"/>
      <point x="184" y="-75"/>
      <point x="184" y="-13" type="curve" smooth="yes"/>
      <point x="184" y="10"/>
      <point x="188" y="39"/>
      <point x="194" y="60" type="curve"/>
      <point x="51" y="60" type="line"/>
      <point x="42" y="36"/>
      <point x="35" y="5"/>
      <point x="35" y="-31" type="curve" smooth="yes"/>
      <point x="35" y="-153"/>
      <point x="131" y="-250"/>
    </contour>
  </outline>
</glyph>
<glyph name="las-georgian" format="2">
  <advance width="1140"/>
  <unicode hex="10DA"/>
  <note>
uni10DA
</note>
  <outline>
    <contour>
      <point x="681" y="-250" type="curve"/>
      <point x="790" y="-195" type="line"/>
      <point x="740" y="-94"/>
      <point x="623" y="-31"/>
      <point x="470" y="5" type="curve" smooth="yes"/>
      <point x="303" y="44"/>
      <point x="197" y="131"/>
      <point x="197" y="289" type="curve" smooth="yes"/>
      <point x="197" y="390"/>
      <point x="228" y="436"/>
      <point x="278" y="436" type="curve" smooth="yes"/>
      <point x="328" y="436"/>
      <point x="350" y="389"/>
      <point x="350" y="314" type="curve" smooth="yes"/>
      <point x="350" y="170" type="line"/>
      <point x="494" y="170" type="line"/>
      <point x="494" y="323" type="line" smooth="yes"/>
      <point x="494" y="390"/>
      <point x="517" y="436"/>
      <point x="570" y="436" type="curve" smooth="yes"/>
      <point x="626" y="436"/>
      <point x="646" y="387"/>
      <point x="646" y="323" type="curve" smooth="yes"/>
      <point x="646" y="170" type="line"/>
      <point x="790" y="170" type="line"/>
      <point x="790" y="314" type="line" smooth="yes"/>
      <point x="790" y="392"/>
      <point x="814" y="436"/>
      <point x="861" y="436" type="curve" smooth="yes"/>
      <point x="913" y="436"/>
      <point x="943" y="387"/>
      <point x="943" y="278" type="curve" smooth="yes"/>
      <point x="943" y="207"/>
      <point x="932" y="143"/>
      <point x="902" y="77" type="curve"/>
      <point x="1032" y="30" type="line"/>
      <point x="1076" y="113"/>
      <point x="1095" y="186"/>
      <point x="1095" y="281" type="curve" smooth="yes"/>
      <point x="1095" y="442"/>
      <point x="1017" y="556"/>
      <point x="877" y="556" type="curve" smooth="yes"/>
      <point x="797" y="556"/>
      <point x="744" y="514"/>
      <point x="720" y="447" type="curve"/>
      <point x="715" y="447" type="line"/>
      <point x="694" y="515"/>
      <point x="640" y="556"/>
      <point x="570" y="556" type="curve" smooth="yes"/>
      <point x="495" y="556"/>
      <point x="446" y="515"/>
      <point x="425" y="447" type="curve"/>
      <point x="419" y="447" type="line"/>
      <point x="396" y="514"/>
      <point x="344" y="556"/>
      <point x="261" y="556" type="curve" smooth="yes"/>
      <point x="123" y="556"/>
      <point x="45" y="445"/>
      <point x="45" y="293" type="curve" smooth="yes"/>
      <point x="45" y="124"/>
      <point x="145" y="17"/>
      <point x="291" y="-28" type="curve"/>
      <point x="291" y="-32" type="line"/>
      <point x="245" y="-37"/>
      <point x="199" y="-54"/>
      <point x="168" y="-74" type="curve"/>
      <point x="218" y="-169" type="line"/>
      <point x="267" y="-141"/>
      <point x="328" y="-116"/>
      <point x="410" y="-116" type="curve" smooth="yes"/>
      <point x="499" y="-116"/>
      <point x="622" y="-152"/>
    </contour>
  </outline>
</glyph>
<glyph name="man-georgian" format="2">
  <advance width="615"/>
  <unicode hex="10DB"/>
  <note>
uni10DB
</note>
  <outline>
    <contour>
      <point x="305" y="-10" type="curve" smooth="yes"/>
      <point x="466" y="-10"/>
      <point x="555" y="90"/>
      <point x="555" y="263" type="curve" smooth="yes"/>
      <point x="555" y="553" type="line" smooth="yes"/>
      <point x="555" y="681"/>
      <point x="463" y="770"/>
      <point x="313" y="770" type="curve" smooth="yes"/>
      <point x="182" y="770"/>
      <point x="78" y="710"/>
      <point x="78" y="610" type="curve" smooth="yes"/>
      <point x="78" y="599"/>
      <point x="79" y="586"/>
      <point x="83" y="573" type="curve"/>
      <point x="229" y="573" type="line"/>
      <point x="228" y="579"/>
      <point x="227" y="586"/>
      <point x="227" y="593" type="curve" smooth="yes"/>
      <point x="227" y="633"/>
      <point x="259" y="663"/>
      <point x="313" y="663" type="curve" smooth="yes"/>
      <point x="377" y="663"/>
      <point x="405" y="622"/>
      <point x="405" y="571" type="curve" smooth="yes"/>
      <point x="405" y="532" type="line" smooth="yes"/>
      <point x="405" y="501"/>
      <point x="409" y="476"/>
      <point x="413" y="454" type="curve"/>
      <point x="408" y="454" type="line"/>
      <point x="378" y="499"/>
      <point x="333" y="528"/>
      <point x="255" y="528" type="curve" smooth="yes"/>
      <point x="130" y="528"/>
      <point x="45" y="437"/>
      <point x="45" y="263" type="curve" smooth="yes"/>
      <point x="45" y="90"/>
      <point x="144" y="-10"/>
    </contour>
    <contour>
      <point x="305" y="110" type="curve" smooth="yes"/>
      <point x="226" y="110"/>
      <point x="197" y="173"/>
      <point x="197" y="260" type="curve" smooth="yes"/>
      <point x="197" y="354"/>
      <point x="235" y="413"/>
      <point x="302" y="413" type="curve" smooth="yes"/>
      <point x="389" y="413"/>
      <point x="415" y="355"/>
      <point x="415" y="268" type="curve" smooth="yes"/>
      <point x="415" y="248" type="line" smooth="yes"/>
      <point x="415" y="167"/>
      <point x="380" y="110"/>
    </contour>
  </outline>
</glyph>
<glyph name="nar-georgian" format="2">
  <advance width="616"/>
  <unicode hex="10DC"/>
  <note>
uni10DC
</note>
  <outline>
    <contour>
      <point x="311" y="-10" type="curve" smooth="yes"/>
      <point x="473" y="-10"/>
      <point x="571" y="90"/>
      <point x="571" y="272" type="curve" smooth="yes"/>
      <point x="571" y="455"/>
      <point x="486" y="546"/>
      <point x="361" y="546" type="curve" smooth="yes"/>
      <point x="283" y="546"/>
      <point x="238" y="517"/>
      <point x="207" y="472" type="curve"/>
      <point x="203" y="472" type="line"/>
      <point x="206" y="495"/>
      <point x="210" y="533"/>
      <point x="210" y="556" type="curve" smooth="yes"/>
      <point x="210" y="576" type="line" smooth="yes"/>
      <point x="210" y="625"/>
      <point x="237" y="645"/>
      <point x="278" y="645" type="curve" smooth="yes"/>
      <point x="518" y="645" type="line"/>
      <point x="518" y="760" type="line"/>
      <point x="262" y="760" type="line" smooth="yes"/>
      <point x="155" y="760"/>
      <point x="60" y="706"/>
      <point x="60" y="559" type="curve" smooth="yes"/>
      <point x="60" y="270" type="line" smooth="yes"/>
      <point x="60" y="89"/>
      <point x="149" y="-10"/>
    </contour>
    <contour>
      <point x="311" y="110" type="curve" smooth="yes"/>
      <point x="236" y="110"/>
      <point x="201" y="165"/>
      <point x="201" y="257" type="curve" smooth="yes"/>
      <point x="201" y="279" type="line" smooth="yes"/>
      <point x="201" y="371"/>
      <point x="227" y="429"/>
      <point x="314" y="429" type="curve" smooth="yes"/>
      <point x="380" y="429"/>
      <point x="419" y="372"/>
      <point x="419" y="269" type="curve" smooth="yes"/>
      <point x="419" y="173"/>
      <point x="389" y="110"/>
    </contour>
  </outline>
</glyph>
<glyph name="on-georgian" format="2">
  <advance width="864"/>
  <unicode hex="10DD"/>
  <note>
uni10DD
</note>
  <anchor x="432" y="546" name="top"/>
  <outline>
    <contour>
      <point x="110" y="0" type="curve"/>
      <point x="256" y="0" type="line"/>
      <point x="214" y="88"/>
      <point x="195" y="177"/>
      <point x="195" y="276" type="curve" smooth="yes"/>
      <point x="195" y="389"/>
      <point x="226" y="436"/>
      <point x="285" y="436" type="curve" smooth="yes"/>
      <point x="339" y="436"/>
      <point x="361" y="392"/>
      <point x="361" y="315" type="curve" smooth="yes"/>
      <point x="361" y="174" type="line"/>
      <point x="503" y="174" type="line"/>
      <point x="503" y="315" type="line" smooth="yes"/>
      <point x="503" y="393"/>
      <point x="526" y="436"/>
      <point x="579" y="436" type="curve" smooth="yes"/>
      <point x="644" y="436"/>
      <point x="669" y="370"/>
      <point x="669" y="278" type="curve" smooth="yes"/>
      <point x="669" y="180"/>
      <point x="650" y="88"/>
      <point x="608" y="0" type="curve"/>
      <point x="754" y="0" type="line"/>
      <point x="799" y="96"/>
      <point x="819" y="174"/>
      <point x="819" y="281" type="curve" smooth="yes"/>
      <point x="819" y="442"/>
      <point x="741" y="556"/>
      <point x="594" y="556" type="curve" smooth="yes"/>
      <point x="511" y="556"/>
      <point x="459" y="515"/>
      <point x="435" y="447" type="curve"/>
      <point x="429" y="447" type="line"/>
      <point x="406" y="514"/>
      <point x="354" y="556"/>
      <point x="268" y="556" type="curve" smooth="yes"/>
      <point x="123" y="556"/>
      <point x="45" y="442"/>
      <point x="45" y="281" type="curve" smooth="yes"/>
      <point x="45" y="174"/>
      <point x="66" y="96"/>
    </contour>
  </outline>
</glyph>
<glyph name="par-georgian" format="2">
  <advance width="596"/>
  <unicode hex="10DE"/>
  <note>
uni10DE
</note>
  <outline>
    <contour>
      <point x="293" y="-10" type="curve"/>
      <point x="453" y="-10"/>
      <point x="551" y="87"/>
      <point x="551" y="222" type="curve" smooth="yes"/>
      <point x="551" y="341"/>
      <point x="470" y="403"/>
      <point x="394" y="418" type="curve"/>
      <point x="394" y="422" type="line"/>
      <point x="470" y="437"/>
      <point x="525" y="475"/>
      <point x="525" y="552" type="curve" smooth="yes"/>
      <point x="525" y="625"/>
      <point x="477" y="664"/>
      <point x="433" y="688" type="curve" smooth="yes"/>
      <point x="391" y="711"/>
      <point x="360" y="728"/>
      <point x="358" y="763" type="curve"/>
      <point x="209" y="763" type="line"/>
      <point x="209" y="675"/>
      <point x="258" y="645"/>
      <point x="302" y="619" type="curve" smooth="yes"/>
      <point x="338" y="598"/>
      <point x="371" y="578"/>
      <point x="371" y="533" type="curve" smooth="yes"/>
      <point x="371" y="498"/>
      <point x="347" y="474"/>
      <point x="286" y="474" type="curve"/>
      <point x="241" y="474" type="line"/>
      <point x="241" y="361" type="line"/>
      <point x="281" y="361" type="line" smooth="yes"/>
      <point x="357" y="361"/>
      <point x="399" y="312"/>
      <point x="399" y="234" type="curve" smooth="yes"/>
      <point x="399" y="164"/>
      <point x="368" y="110"/>
      <point x="293" y="110" type="curve"/>
      <point x="225" y="110"/>
      <point x="189" y="151"/>
      <point x="189" y="212" type="curve" smooth="yes"/>
      <point x="189" y="236"/>
      <point x="192" y="260"/>
      <point x="197" y="280" type="curve"/>
      <point x="55" y="280" type="line"/>
      <point x="47" y="259"/>
      <point x="40" y="234"/>
      <point x="40" y="201" type="curve" smooth="yes"/>
      <point x="40" y="65"/>
      <point x="144" y="-10"/>
    </contour>
  </outline>
</glyph>
<glyph name="zhar-georgian" format="2">
  <advance width="643"/>
  <unicode hex="10DF"/>
  <note>
uni10DF
</note>
  <outline>
    <contour>
      <point x="326" y="-250" type="curve" smooth="yes"/>
      <point x="488" y="-250"/>
      <point x="578" y="-153"/>
      <point x="578" y="12" type="curve" smooth="yes"/>
      <point x="578" y="546" type="line"/>
      <point x="451" y="546" type="line"/>
      <point x="379" y="512"/>
      <point x="285" y="491"/>
      <point x="190" y="483" type="curve"/>
      <point x="190" y="382" type="line"/>
      <point x="228" y="378"/>
      <point x="246" y="353"/>
      <point x="246" y="316" type="curve" smooth="yes"/>
      <point x="246" y="284"/>
      <point x="228" y="260"/>
      <point x="198" y="260" type="curve" smooth="yes"/>
      <point x="168" y="260"/>
      <point x="153" y="281"/>
      <point x="153" y="311" type="curve" smooth="yes"/>
      <point x="153" y="318"/>
      <point x="154" y="324"/>
      <point x="156" y="332" type="curve"/>
      <point x="41" y="332" type="line"/>
      <point x="38" y="320"/>
      <point x="36" y="308"/>
      <point x="36" y="295" type="curve" smooth="yes"/>
      <point x="36" y="217"/>
      <point x="96" y="161"/>
      <point x="198" y="161" type="curve" smooth="yes"/>
      <point x="312" y="161"/>
      <point x="366" y="222"/>
      <point x="366" y="300" type="curve" smooth="yes"/>
      <point x="366" y="346"/>
      <point x="344" y="385"/>
      <point x="303" y="401" type="curve"/>
      <point x="303" y="405" type="line"/>
      <point x="350" y="411"/>
      <point x="392" y="422"/>
      <point x="429" y="438" type="curve"/>
      <point x="429" y="11" type="line" smooth="yes"/>
      <point x="429" y="-79"/>
      <point x="400" y="-130"/>
      <point x="327" y="-130" type="curve" smooth="yes"/>
      <point x="256" y="-130"/>
      <point x="223" y="-79"/>
      <point x="223" y="-20" type="curve"/>
      <point x="223" y="9"/>
      <point x="226" y="29"/>
      <point x="233" y="56" type="curve"/>
      <point x="93" y="56" type="line"/>
      <point x="81" y="30"/>
      <point x="74" y="6"/>
      <point x="74" y="-37" type="curve"/>
      <point x="74" y="-154"/>
      <point x="171" y="-250"/>
    </contour>
  </outline>
</glyph>
<glyph name="rae-georgian" format="2">
  <advance width="853"/>
  <unicode hex="10E0"/>
  <note>
uni10E0
</note>
  <outline>
    <contour>
      <point x="109" y="0" type="curve"/>
      <point x="256" y="0" type="line"/>
      <point x="214" y="88"/>
      <point x="195" y="172"/>
      <point x="195" y="271" type="curve" smooth="yes"/>
      <point x="195" y="375"/>
      <point x="227" y="424"/>
      <point x="283" y="424" type="curve" smooth="yes"/>
      <point x="332" y="424"/>
      <point x="354" y="376"/>
      <point x="354" y="302" type="curve" smooth="yes"/>
      <point x="354" y="176" type="line"/>
      <point x="497" y="176" type="line"/>
      <point x="497" y="302" type="line" smooth="yes"/>
      <point x="497" y="378"/>
      <point x="520" y="424"/>
      <point x="570" y="424" type="curve" smooth="yes"/>
      <point x="632" y="424"/>
      <point x="656" y="360"/>
      <point x="656" y="272" type="curve" smooth="yes"/>
      <point x="656" y="174"/>
      <point x="637" y="88"/>
      <point x="595" y="0" type="curve"/>
      <point x="743" y="0" type="line"/>
      <point x="787" y="96"/>
      <point x="808" y="168"/>
      <point x="808" y="275" type="curve" smooth="yes"/>
      <point x="808" y="430"/>
      <point x="729" y="544"/>
      <point x="586" y="544" type="curve" smooth="yes"/>
      <point x="505" y="544"/>
      <point x="453" y="504"/>
      <point x="429" y="436" type="curve"/>
      <point x="423" y="436" type="line"/>
      <point x="400" y="502"/>
      <point x="347" y="544"/>
      <point x="278" y="544" type="curve" smooth="yes"/>
      <point x="240" y="544"/>
      <point x="202" y="534"/>
      <point x="170" y="494" type="curve"/>
      <point x="166" y="494" type="line"/>
      <point x="198" y="576"/>
      <point x="288" y="602"/>
      <point x="370" y="615" type="curve" smooth="yes"/>
      <point x="426" y="624"/>
      <point x="518" y="636"/>
      <point x="603" y="648" type="curve"/>
      <point x="587" y="770" type="line"/>
      <point x="503" y="761"/>
      <point x="424" y="749"/>
      <point x="358" y="737" type="curve" smooth="yes"/>
      <point x="129" y="695"/>
      <point x="45" y="566"/>
      <point x="45" y="320" type="curve" smooth="yes"/>
      <point x="45" y="281" type="line" smooth="yes"/>
      <point x="45" y="179"/>
      <point x="65" y="96"/>
    </contour>
  </outline>
</glyph>
<glyph name="san-georgian" format="2">
  <advance width="625"/>
  <unicode hex="10E1"/>
  <note>
uni10E1
</note>
  <outline>
    <contour>
      <point x="320" y="-10" type="curve" smooth="yes"/>
      <point x="480" y="-10"/>
      <point x="580" y="90"/>
      <point x="580" y="245" type="curve" smooth="yes"/>
      <point x="580" y="311"/>
      <point x="563" y="359"/>
      <point x="540" y="395" type="curve" smooth="yes"/>
      <point x="508" y="445"/>
      <point x="483" y="484"/>
      <point x="482" y="546" type="curve"/>
      <point x="333" y="546" type="line"/>
      <point x="333" y="460"/>
      <point x="365" y="405"/>
      <point x="395" y="357" type="curve" smooth="yes"/>
      <point x="414" y="326"/>
      <point x="428" y="293"/>
      <point x="428" y="239" type="curve" smooth="yes"/>
      <point x="428" y="168"/>
      <point x="393" y="110"/>
      <point x="319" y="110" type="curve" smooth="yes"/>
      <point x="245" y="110"/>
      <point x="209" y="166"/>
      <point x="209" y="257" type="curve" smooth="yes"/>
      <point x="209" y="760" type="line"/>
      <point x="60" y="760" type="line"/>
      <point x="60" y="267" type="line" smooth="yes"/>
      <point x="60" y="89"/>
      <point x="149" y="-10"/>
    </contour>
  </outline>
</glyph>
<glyph name="tar-georgian" format="2">
  <advance width="777"/>
  <unicode hex="10E2"/>
  <note>
uni10E2
</note>
  <outline>
    <contour>
      <point x="388" y="-250" type="curve" smooth="yes"/>
      <point x="612" y="-250"/>
      <point x="732" y="-97"/>
      <point x="732" y="162" type="curve" smooth="yes"/>
      <point x="732" y="382"/>
      <point x="634" y="523"/>
      <point x="450" y="551" type="curve"/>
      <point x="454" y="575"/>
      <point x="458" y="602"/>
      <point x="458" y="624" type="curve" smooth="yes"/>
      <point x="458" y="671" type="line"/>
      <point x="316" y="671" type="line"/>
      <point x="316" y="624" type="line" smooth="yes"/>
      <point x="316" y="601"/>
      <point x="320" y="575"/>
      <point x="324" y="550" type="curve"/>
      <point x="143" y="520"/>
      <point x="45" y="382"/>
      <point x="45" y="163" type="curve" smooth="yes"/>
      <point x="45" y="-105"/>
      <point x="169" y="-250"/>
    </contour>
    <contour>
      <point x="388" y="-130" type="curve" smooth="yes"/>
      <point x="265" y="-130"/>
      <point x="196" y="-37"/>
      <point x="196" y="162" type="curve" smooth="yes"/>
      <point x="196" y="324"/>
      <point x="241" y="417"/>
      <point x="324" y="438" type="curve"/>
      <point x="320" y="412"/>
      <point x="316" y="386"/>
      <point x="316" y="343" type="curve" smooth="yes"/>
      <point x="316" y="170" type="line"/>
      <point x="458" y="170" type="line"/>
      <point x="458" y="342" type="line" smooth="yes"/>
      <point x="458" y="386"/>
      <point x="454" y="414"/>
      <point x="450" y="441" type="curve"/>
      <point x="534" y="417"/>
      <point x="580" y="327"/>
      <point x="580" y="162" type="curve" smooth="yes"/>
      <point x="580" y="-38"/>
      <point x="513" y="-130"/>
    </contour>
  </outline>
</glyph>
<glyph name="un-georgian" format="2">
  <advance width="635"/>
  <unicode hex="10E3"/>
  <note>
uni10E3
</note>
  <anchor x="303" y="546" name="top"/>
  <outline>
    <contour>
      <point x="317" y="-250" type="curve" smooth="yes"/>
      <point x="484" y="-250"/>
      <point x="575" y="-153"/>
      <point x="575" y="12" type="curve" smooth="yes"/>
      <point x="575" y="360" type="line" smooth="yes"/>
      <point x="575" y="477"/>
      <point x="507" y="556"/>
      <point x="387" y="556" type="curve" smooth="yes"/>
      <point x="318" y="556"/>
      <point x="265" y="521"/>
      <point x="241" y="465" type="curve"/>
      <point x="237" y="465" type="line"/>
      <point x="215" y="521"/>
      <point x="173" y="550"/>
      <point x="103" y="550" type="curve"/>
      <point x="34" y="550" type="line"/>
      <point x="34" y="433" type="line"/>
      <point x="100" y="433" type="line" smooth="yes"/>
      <point x="142" y="433"/>
      <point x="164" y="405"/>
      <point x="164" y="351" type="curve" smooth="yes"/>
      <point x="164" y="236" type="line"/>
      <point x="306" y="236" type="line"/>
      <point x="306" y="348" type="line" smooth="yes"/>
      <point x="306" y="409"/>
      <point x="330" y="438"/>
      <point x="366" y="438" type="curve" smooth="yes"/>
      <point x="404" y="438"/>
      <point x="426" y="409"/>
      <point x="426" y="346" type="curve" smooth="yes"/>
      <point x="426" y="15" type="line" smooth="yes"/>
      <point x="426" y="-69"/>
      <point x="397" y="-130"/>
      <point x="317" y="-130" type="curve" smooth="yes"/>
      <point x="235" y="-130"/>
      <point x="204" y="-69"/>
      <point x="204" y="4" type="curve" smooth="yes"/>
      <point x="204" y="33"/>
      <point x="209" y="69"/>
      <point x="216" y="96" type="curve"/>
      <point x="76" y="96" type="line"/>
      <point x="62" y="65"/>
      <point x="55" y="32"/>
      <point x="55" y="-7" type="curve" smooth="yes"/>
      <point x="55" y="-150"/>
      <point x="151" y="-250"/>
    </contour>
  </outline>
</glyph>
<glyph name="phar-georgian" format="2">
  <advance width="895"/>
  <unicode hex="10E4"/>
  <note>
uni10E4
</note>
  <outline>
    <contour>
      <point x="537" y="-250" type="curve" smooth="yes"/>
      <point x="730" y="-250"/>
      <point x="833" y="-153"/>
      <point x="833" y="-22" type="curve" smooth="yes"/>
      <point x="833" y="56"/>
      <point x="788" y="123"/>
      <point x="709" y="140" type="curve"/>
      <point x="709" y="144" type="line"/>
      <point x="788" y="164"/>
      <point x="850" y="221"/>
      <point x="850" y="345" type="curve" smooth="yes"/>
      <point x="850" y="452"/>
      <point x="772" y="556"/>
      <point x="642" y="556" type="curve" smooth="yes"/>
      <point x="551" y="556"/>
      <point x="496" y="516"/>
      <point x="469" y="450" type="curve"/>
      <point x="463" y="450" type="line"/>
      <point x="435" y="519"/>
      <point x="365" y="556"/>
      <point x="286" y="556" type="curve" smooth="yes"/>
      <point x="143" y="556"/>
      <point x="45" y="455"/>
      <point x="45" y="301" type="curve" smooth="yes"/>
      <point x="45" y="149"/>
      <point x="145" y="46"/>
      <point x="290" y="46" type="curve" smooth="yes"/>
      <point x="440" y="46"/>
      <point x="536" y="149"/>
      <point x="536" y="294" type="curve" smooth="yes"/>
      <point x="536" y="322" type="line" smooth="yes"/>
      <point x="536" y="394"/>
      <point x="565" y="436"/>
      <point x="620" y="436" type="curve" smooth="yes"/>
      <point x="677" y="436"/>
      <point x="701" y="383"/>
      <point x="701" y="320" type="curve" smooth="yes"/>
      <point x="701" y="249"/>
      <point x="670" y="199"/>
      <point x="609" y="199" type="curve" smooth="yes"/>
      <point x="575" y="199" type="line"/>
      <point x="575" y="79" type="line"/>
      <point x="593" y="79" type="line" smooth="yes"/>
      <point x="651" y="79"/>
      <point x="681" y="39"/>
      <point x="681" y="-16" type="curve" smooth="yes"/>
      <point x="681" y="-74"/>
      <point x="636" y="-130"/>
      <point x="538" y="-130" type="curve" smooth="yes"/>
      <point x="444" y="-130"/>
      <point x="381" y="-99"/>
      <point x="381" y="-40" type="curve" smooth="yes"/>
      <point x="381" y="-34"/>
      <point x="381" y="-28"/>
      <point x="382" y="-20" type="curve"/>
      <point x="239" y="-20" type="line"/>
      <point x="237" y="-34"/>
      <point x="235" y="-47"/>
      <point x="235" y="-60" type="curve" smooth="yes"/>
      <point x="235" y="-180"/>
      <point x="350" y="-250"/>
    </contour>
    <contour>
      <point x="292" y="166" type="curve" smooth="yes"/>
      <point x="222" y="166"/>
      <point x="194" y="229"/>
      <point x="194" y="301" type="curve" smooth="yes"/>
      <point x="194" y="376"/>
      <point x="222" y="436"/>
      <point x="291" y="436" type="curve" smooth="yes"/>
      <point x="359" y="436"/>
      <point x="387" y="376"/>
      <point x="387" y="301" type="curve" smooth="yes"/>
      <point x="387" y="229"/>
      <point x="359" y="166"/>
    </contour>
  </outline>
</glyph>
<glyph name="khar-georgian" format="2">
  <advance width="604"/>
  <unicode hex="10E5"/>
  <note>
uni10E5
</note>
  <outline>
    <contour>
      <point x="292" y="-250" type="curve" smooth="yes"/>
      <point x="453" y="-250"/>
      <point x="544" y="-153"/>
      <point x="544" y="12" type="curve" smooth="yes"/>
      <point x="544" y="760" type="line"/>
      <point x="394" y="760" type="line"/>
      <point x="394" y="585" type="line" smooth="yes"/>
      <point x="394" y="549"/>
      <point x="398" y="499"/>
      <point x="402" y="476" type="curve"/>
      <point x="397" y="476" type="line"/>
      <point x="367" y="521"/>
      <point x="324" y="556"/>
      <point x="246" y="556" type="curve" smooth="yes"/>
      <point x="155" y="556"/>
      <point x="64" y="481"/>
      <point x="64" y="351" type="curve" smooth="yes"/>
      <point x="64" y="308"/>
      <point x="71" y="283"/>
      <point x="80" y="257" type="curve"/>
      <point x="223" y="257" type="line"/>
      <point x="215" y="287"/>
      <point x="213" y="312"/>
      <point x="213" y="337" type="curve" smooth="yes"/>
      <point x="213" y="400"/>
      <point x="248" y="436"/>
      <point x="296" y="436" type="curve" smooth="yes"/>
      <point x="366" y="436"/>
      <point x="395" y="376"/>
      <point x="395" y="285" type="curve" smooth="yes"/>
      <point x="395" y="15" type="line" smooth="yes"/>
      <point x="395" y="-73"/>
      <point x="369" y="-130"/>
      <point x="292" y="-130" type="curve" smooth="yes"/>
      <point x="220" y="-130"/>
      <point x="189" y="-69"/>
      <point x="189" y="4" type="curve" smooth="yes"/>
      <point x="189" y="33"/>
      <point x="194" y="69"/>
      <point x="201" y="96" type="curve"/>
      <point x="61" y="96" type="line"/>
      <point x="47" y="65"/>
      <point x="40" y="32"/>
      <point x="40" y="-7" type="curve" smooth="yes"/>
      <point x="40" y="-150"/>
      <point x="136" y="-250"/>
    </contour>
  </outline>
</glyph>
<glyph name="ghan-georgian" format="2">
  <advance width="851"/>
  <unicode hex="10E6"/>
  <note>
uni10E6
</note>
  <outline>
    <contour>
      <point x="530" y="-250" type="curve"/>
      <point x="637" y="-197" type="line"/>
      <point x="592" y="-108"/>
      <point x="524" y="-63"/>
      <point x="398" y="-12" type="curve" smooth="yes"/>
      <point x="277" y="37"/>
      <point x="194" y="118"/>
      <point x="194" y="278" type="curve" smooth="yes"/>
      <point x="194" y="386"/>
      <point x="226" y="436"/>
      <point x="282" y="436" type="curve" smooth="yes"/>
      <point x="333" y="436"/>
      <point x="355" y="392"/>
      <point x="355" y="319" type="curve" smooth="yes"/>
      <point x="355" y="171" type="line"/>
      <point x="495" y="171" type="line"/>
      <point x="495" y="319" type="line" smooth="yes"/>
      <point x="495" y="394"/>
      <point x="518" y="436"/>
      <point x="571" y="436" type="curve" smooth="yes"/>
      <point x="632" y="436"/>
      <point x="657" y="367"/>
      <point x="657" y="278" type="curve" smooth="yes"/>
      <point x="657" y="207"/>
      <point x="646" y="143"/>
      <point x="617" y="77" type="curve"/>
      <point x="743" y="31" type="line"/>
      <point x="786" y="113"/>
      <point x="806" y="186"/>
      <point x="806" y="281" type="curve" smooth="yes"/>
      <point x="806" y="442"/>
      <point x="727" y="556"/>
      <point x="587" y="556" type="curve" smooth="yes"/>
      <point x="504" y="556"/>
      <point x="452" y="515"/>
      <point x="428" y="448" type="curve"/>
      <point x="422" y="448" type="line"/>
      <point x="399" y="514"/>
      <point x="347" y="556"/>
      <point x="262" y="556" type="curve" smooth="yes"/>
      <point x="123" y="556"/>
      <point x="45" y="441"/>
      <point x="45" y="279" type="curve" smooth="yes"/>
      <point x="45" y="129"/>
      <point x="119" y="14"/>
      <point x="252" y="-45" type="curve"/>
      <point x="252" y="-49" type="line"/>
      <point x="194" y="-53"/>
      <point x="162" y="-66"/>
      <point x="135" y="-79" type="curve"/>
      <point x="179" y="-174" type="line"/>
      <point x="226" y="-149"/>
      <point x="277" y="-133"/>
      <point x="332" y="-133" type="curve" smooth="yes"/>
      <point x="400" y="-133"/>
      <point x="479" y="-170"/>
    </contour>
  </outline>
</glyph>
<glyph name="qar-georgian" format="2">
  <advance width="613"/>
  <unicode hex="10E7"/>
  <note>
uni10E7
</note>
  <outline>
    <contour>
      <point x="301" y="-250" type="curve" smooth="yes"/>
      <point x="463" y="-250"/>
      <point x="553" y="-153"/>
      <point x="553" y="12" type="curve" smooth="yes"/>
      <point x="553" y="546" type="line"/>
      <point x="405" y="546" type="line"/>
      <point x="405" y="405" type="line" smooth="yes"/>
      <point x="405" y="313"/>
      <point x="366" y="261"/>
      <point x="294" y="261" type="curve" smooth="yes"/>
      <point x="232" y="261"/>
      <point x="197" y="308"/>
      <point x="197" y="386" type="curve" smooth="yes"/>
      <point x="197" y="446"/>
      <point x="210" y="492"/>
      <point x="230" y="546" type="curve"/>
      <point x="85" y="546" type="line"/>
      <point x="62" y="496"/>
      <point x="45" y="435"/>
      <point x="45" y="371" type="curve" smooth="yes"/>
      <point x="45" y="219"/>
      <point x="127" y="136"/>
      <point x="250" y="136" type="curve" smooth="yes"/>
      <point x="324" y="136"/>
      <point x="375" y="170"/>
      <point x="405" y="218" type="curve"/>
      <point x="411" y="218" type="line"/>
      <point x="407" y="174"/>
      <point x="405" y="136"/>
      <point x="405" y="94" type="curve" smooth="yes"/>
      <point x="405" y="11" type="line" smooth="yes"/>
      <point x="405" y="-79"/>
      <point x="379" y="-130"/>
      <point x="302" y="-130" type="curve" smooth="yes"/>
      <point x="230" y="-130"/>
      <point x="199" y="-79"/>
      <point x="199" y="-20" type="curve" smooth="yes"/>
      <point x="199" y="9"/>
      <point x="201" y="29"/>
      <point x="208" y="56" type="curve"/>
      <point x="68" y="56" type="line"/>
      <point x="56" y="30"/>
      <point x="50" y="6"/>
      <point x="50" y="-37" type="curve" smooth="yes"/>
      <point x="50" y="-154"/>
      <point x="140" y="-250"/>
    </contour>
  </outline>
</glyph>
<glyph name="shin-georgian" format="2">
  <advance width="618"/>
  <unicode hex="10E8"/>
  <note>
uni10E8
</note>
  <outline>
    <contour>
      <point x="307" y="-10" type="curve" smooth="yes"/>
      <point x="468" y="-10"/>
      <point x="558" y="90"/>
      <point x="558" y="253" type="curve" smooth="yes"/>
      <point x="558" y="587" type="line" smooth="yes"/>
      <point x="558" y="711"/>
      <point x="475" y="770"/>
      <point x="384" y="770" type="curve" smooth="yes"/>
      <point x="317" y="770"/>
      <point x="266" y="745"/>
      <point x="243" y="691" type="curve"/>
      <point x="240" y="691" type="line"/>
      <point x="220" y="745"/>
      <point x="170" y="770"/>
      <point x="122" y="770" type="curve" smooth="yes"/>
      <point x="88" y="770"/>
      <point x="52" y="763"/>
      <point x="20" y="746" type="curve"/>
      <point x="54" y="638" type="line"/>
      <point x="71" y="644"/>
      <point x="90" y="650"/>
      <point x="109" y="650" type="curve" smooth="yes"/>
      <point x="139" y="650"/>
      <point x="165" y="632"/>
      <point x="165" y="594" type="curve" smooth="yes"/>
      <point x="165" y="564" type="line"/>
      <point x="310" y="564" type="line"/>
      <point x="310" y="600" type="line" smooth="yes"/>
      <point x="310" y="634"/>
      <point x="329" y="656"/>
      <point x="358" y="656" type="curve" smooth="yes"/>
      <point x="389" y="656"/>
      <point x="407" y="631"/>
      <point x="407" y="589" type="curve" smooth="yes"/>
      <point x="407" y="512" type="line" smooth="yes"/>
      <point x="407" y="481"/>
      <point x="411" y="456"/>
      <point x="415" y="434" type="curve"/>
      <point x="410" y="434" type="line"/>
      <point x="380" y="479"/>
      <point x="335" y="508"/>
      <point x="257" y="508" type="curve" smooth="yes"/>
      <point x="132" y="508"/>
      <point x="47" y="417"/>
      <point x="47" y="253" type="curve" smooth="yes"/>
      <point x="47" y="90"/>
      <point x="146" y="-10"/>
    </contour>
    <contour>
      <point x="307" y="111" type="curve" smooth="yes"/>
      <point x="229" y="111"/>
      <point x="200" y="174"/>
      <point x="200" y="250" type="curve" smooth="yes"/>
      <point x="200" y="329"/>
      <point x="238" y="387"/>
      <point x="307" y="387" type="curve" smooth="yes"/>
      <point x="388" y="387"/>
      <point x="417" y="329"/>
      <point x="417" y="258" type="curve" smooth="yes"/>
      <point x="417" y="238" type="line" smooth="yes"/>
      <point x="417" y="167"/>
      <point x="382" y="111"/>
    </contour>
  </outline>
</glyph>
<glyph name="chin-georgian" format="2">
  <advance width="625"/>
  <unicode hex="10E9"/>
  <note>
uni10E9
</note>
  <outline>
    <contour>
      <point x="63" y="0" type="line"/>
      <point x="214" y="0" type="line"/>
      <point x="214" y="244" type="line" smooth="yes"/>
      <point x="214" y="345"/>
      <point x="254" y="400"/>
      <point x="320" y="400" type="curve" smooth="yes"/>
      <point x="383" y="400"/>
      <point x="418" y="349"/>
      <point x="418" y="252" type="curve" smooth="yes"/>
      <point x="418" y="154"/>
      <point x="395" y="51"/>
      <point x="377" y="0" type="curve"/>
      <point x="526" y="0" type="line"/>
      <point x="549" y="65"/>
      <point x="572" y="163"/>
      <point x="572" y="274" type="curve" smooth="yes"/>
      <point x="572" y="392"/>
      <point x="523" y="470"/>
      <point x="436" y="497" type="curve"/>
      <point x="436" y="500" type="line"/>
      <point x="478" y="533"/>
      <point x="487" y="578"/>
      <point x="487" y="610" type="curve" smooth="yes"/>
      <point x="487" y="698"/>
      <point x="410" y="770"/>
      <point x="280" y="770" type="curve" smooth="yes"/>
      <point x="142" y="770"/>
      <point x="63" y="689"/>
      <point x="63" y="561" type="curve" smooth="yes"/>
    </contour>
    <contour>
      <point x="207" y="436" type="line"/>
      <point x="211" y="464"/>
      <point x="213" y="489"/>
      <point x="213" y="505" type="curve" smooth="yes"/>
      <point x="213" y="582" type="line" smooth="yes"/>
      <point x="213" y="634"/>
      <point x="240" y="660"/>
      <point x="278" y="660" type="curve" smooth="yes"/>
      <point x="318" y="660"/>
      <point x="341" y="635"/>
      <point x="341" y="591" type="curve" smooth="yes"/>
      <point x="341" y="544"/>
      <point x="320" y="521"/>
      <point x="278" y="495" type="curve" smooth="yes"/>
      <point x="247" y="476"/>
      <point x="230" y="460"/>
      <point x="214" y="436" type="curve"/>
    </contour>
  </outline>
</glyph>
<glyph name="can-georgian" format="2">
  <advance width="698"/>
  <unicode hex="10EA"/>
  <note>
uni10EA
</note>
  <outline>
    <contour>
      <point x="366" y="-250" type="curve" smooth="yes"/>
      <point x="538" y="-250"/>
      <point x="658" y="-162"/>
      <point x="658" y="-12" type="curve" smooth="yes"/>
      <point x="658" y="111"/>
      <point x="587" y="177"/>
      <point x="511" y="192" type="curve"/>
      <point x="511" y="195" type="line"/>
      <point x="587" y="211"/>
      <point x="643" y="251"/>
      <point x="643" y="328" type="curve" smooth="yes"/>
      <point x="643" y="379"/>
      <point x="621" y="424"/>
      <point x="587" y="454" type="curve" smooth="yes"/>
      <point x="551" y="486"/>
      <point x="527" y="511"/>
      <point x="523" y="546" type="curve"/>
      <point x="374" y="546" type="line"/>
      <point x="374" y="474"/>
      <point x="413" y="433"/>
      <point x="446" y="402" type="curve" smooth="yes"/>
      <point x="470" y="380"/>
      <point x="491" y="357"/>
      <point x="491" y="315" type="curve" smooth="yes"/>
      <point x="491" y="274"/>
      <point x="463" y="253"/>
      <point x="403" y="253" type="curve" smooth="yes"/>
      <point x="349" y="253" type="line"/>
      <point x="349" y="133" type="line"/>
      <point x="383" y="133" type="line" smooth="yes"/>
      <point x="465" y="133"/>
      <point x="506" y="77"/>
      <point x="506" y="5" type="curve" smooth="yes"/>
      <point x="506" y="-80"/>
      <point x="459" y="-130"/>
      <point x="367" y="-130" type="curve" smooth="yes"/>
      <point x="244" y="-130"/>
      <point x="196" y="-30"/>
      <point x="196" y="168" type="curve" smooth="yes"/>
      <point x="196" y="317"/>
      <point x="225" y="432"/>
      <point x="278" y="546" type="curve"/>
      <point x="131" y="546" type="line"/>
      <point x="74" y="438"/>
      <point x="45" y="310"/>
      <point x="45" y="167" type="curve" smooth="yes"/>
      <point x="45" y="-123"/>
      <point x="169" y="-250"/>
    </contour>
  </outline>
</glyph>
<glyph name="jil-georgian" format="2">
  <advance width="616"/>
  <unicode hex="10EB"/>
  <note>
uni10EB
</note>
  <outline>
    <contour>
      <point x="304" y="-10" type="curve" smooth="yes"/>
      <point x="467" y="-10"/>
      <point x="556" y="89"/>
      <point x="556" y="270" type="curve" smooth="yes"/>
      <point x="556" y="760" type="line"/>
      <point x="406" y="760" type="line"/>
      <point x="406" y="586" type="line" smooth="yes"/>
      <point x="406" y="549"/>
      <point x="410" y="499"/>
      <point x="414" y="476" type="curve"/>
      <point x="409" y="476" type="line"/>
      <point x="378" y="521"/>
      <point x="333" y="556"/>
      <point x="255" y="556" type="curve" smooth="yes"/>
      <point x="130" y="556"/>
      <point x="45" y="459"/>
      <point x="45" y="272" type="curve" smooth="yes"/>
      <point x="45" y="90"/>
      <point x="144" y="-10"/>
    </contour>
    <contour>
      <point x="305" y="110" type="curve" smooth="yes"/>
      <point x="227" y="110"/>
      <point x="197" y="173"/>
      <point x="197" y="269" type="curve" smooth="yes"/>
      <point x="197" y="377"/>
      <point x="236" y="434"/>
      <point x="301" y="434" type="curve" smooth="yes"/>
      <point x="389" y="434"/>
      <point x="416" y="377"/>
      <point x="416" y="274" type="curve" smooth="yes"/>
      <point x="416" y="257" type="line" smooth="yes"/>
      <point x="416" y="165"/>
      <point x="381" y="110"/>
    </contour>
  </outline>
</glyph>
<glyph name="cil-georgian" format="2">
  <advance width="618"/>
  <unicode hex="10EC"/>
  <note>
uni10EC
</note>
  <outline>
    <contour>
      <point x="311" y="-10" type="curve" smooth="yes"/>
      <point x="472" y="-10"/>
      <point x="571" y="90"/>
      <point x="571" y="253" type="curve" smooth="yes"/>
      <point x="571" y="417"/>
      <point x="486" y="508"/>
      <point x="361" y="508" type="curve" smooth="yes"/>
      <point x="283" y="508"/>
      <point x="238" y="479"/>
      <point x="208" y="434" type="curve"/>
      <point x="203" y="434" type="line"/>
      <point x="207" y="456"/>
      <point x="211" y="481"/>
      <point x="211" y="512" type="curve" smooth="yes"/>
      <point x="211" y="589" type="line" smooth="yes"/>
      <point x="211" y="631"/>
      <point x="229" y="656"/>
      <point x="260" y="656" type="curve" smooth="yes"/>
      <point x="289" y="656"/>
      <point x="308" y="634"/>
      <point x="308" y="600" type="curve" smooth="yes"/>
      <point x="308" y="564" type="line"/>
      <point x="453" y="564" type="line"/>
      <point x="453" y="594" type="line" smooth="yes"/>
      <point x="453" y="632"/>
      <point x="479" y="650"/>
      <point x="509" y="650" type="curve" smooth="yes"/>
      <point x="528" y="650"/>
      <point x="547" y="644"/>
      <point x="564" y="638" type="curve"/>
      <point x="598" y="746" type="line"/>
      <point x="566" y="763"/>
      <point x="530" y="770"/>
      <point x="496" y="770" type="curve" smooth="yes"/>
      <point x="448" y="770"/>
      <point x="398" y="745"/>
      <point x="378" y="691" type="curve"/>
      <point x="375" y="691" type="line"/>
      <point x="352" y="745"/>
      <point x="301" y="770"/>
      <point x="234" y="770" type="curve" smooth="yes"/>
      <point x="143" y="770"/>
      <point x="60" y="711"/>
      <point x="60" y="587" type="curve" smooth="yes"/>
      <point x="60" y="253" type="line" smooth="yes"/>
      <point x="60" y="90"/>
      <point x="150" y="-10"/>
    </contour>
    <contour>
      <point x="311" y="111" type="curve" smooth="yes"/>
      <point x="236" y="111"/>
      <point x="201" y="167"/>
      <point x="201" y="238" type="curve" smooth="yes"/>
      <point x="201" y="258" type="line" smooth="yes"/>
      <point x="201" y="329"/>
      <point x="232" y="387"/>
      <point x="314" y="387" type="curve" smooth="yes"/>
      <point x="380" y="387"/>
      <point x="418" y="329"/>
      <point x="418" y="250" type="curve" smooth="yes"/>
      <point x="418" y="174"/>
      <point x="389" y="111"/>
    </contour>
  </outline>
</glyph>
<glyph name="char-georgian" format="2">
  <advance width="624"/>
  <unicode hex="10ED"/>
  <note>
uni10ED
</note>
  <outline>
    <contour>
      <point x="321" y="-250" type="curve" smooth="yes"/>
      <point x="480" y="-250"/>
      <point x="579" y="-150"/>
      <point x="579" y="1" type="curve" smooth="yes"/>
      <point x="579" y="76"/>
      <point x="554" y="135"/>
      <point x="524" y="183" type="curve" smooth="yes"/>
      <point x="488" y="241"/>
      <point x="455" y="296"/>
      <point x="455" y="382" type="curve" smooth="yes"/>
      <point x="455" y="426" type="line"/>
      <point x="569" y="426" type="line"/>
      <point x="569" y="546" type="line"/>
      <point x="455" y="546" type="line"/>
      <point x="455" y="760" type="line"/>
      <point x="308" y="760" type="line"/>
      <point x="308" y="546" type="line"/>
      <point x="228" y="546" type="line" smooth="yes"/>
      <point x="110" y="546"/>
      <point x="40" y="474"/>
      <point x="40" y="374" type="curve" smooth="yes"/>
      <point x="40" y="264"/>
      <point x="125" y="203"/>
      <point x="203" y="203" type="curve" smooth="yes"/>
      <point x="262" y="203"/>
      <point x="302" y="222"/>
      <point x="331" y="258" type="curve"/>
      <point x="335" y="258" type="line"/>
      <point x="346" y="209"/>
      <point x="363" y="173"/>
      <point x="387" y="133" type="curve" smooth="yes"/>
      <point x="411" y="93"/>
      <point x="428" y="50"/>
      <point x="428" y="-4" type="curve" smooth="yes"/>
      <point x="428" y="-69"/>
      <point x="396" y="-129"/>
      <point x="321" y="-129" type="curve" smooth="yes"/>
      <point x="247" y="-129"/>
      <point x="216" y="-68"/>
      <point x="216" y="-6" type="curve" smooth="yes"/>
      <point x="216" y="23"/>
      <point x="221" y="59"/>
      <point x="228" y="86" type="curve"/>
      <point x="88" y="86" type="line"/>
      <point x="74" y="55"/>
      <point x="67" y="22"/>
      <point x="67" y="-17" type="curve" smooth="yes"/>
      <point x="67" y="-150"/>
      <point x="163" y="-250"/>
    </contour>
    <contour>
      <point x="244" y="314" type="curve" smooth="yes"/>
      <point x="204" y="314"/>
      <point x="179" y="338"/>
      <point x="179" y="373" type="curve" smooth="yes"/>
      <point x="179" y="408"/>
      <point x="200" y="430"/>
      <point x="245" y="430" type="curve" smooth="yes"/>
      <point x="311" y="430" type="line"/>
      <point x="311" y="382" type="line" smooth="yes"/>
      <point x="311" y="342"/>
      <point x="285" y="314"/>
    </contour>
  </outline>
</glyph>
<glyph name="xan-georgian" format="2">
  <advance width="616"/>
  <unicode hex="10EE"/>
  <note>
uni10EE
</note>
  <outline>
    <contour>
      <point x="312" y="-10" type="curve" smooth="yes"/>
      <point x="472" y="-10"/>
      <point x="571" y="90"/>
      <point x="571" y="272" type="curve" smooth="yes"/>
      <point x="571" y="459"/>
      <point x="486" y="556"/>
      <point x="361" y="556" type="curve" smooth="yes"/>
      <point x="283" y="556"/>
      <point x="238" y="521"/>
      <point x="207" y="476" type="curve"/>
      <point x="202" y="476" type="line"/>
      <point x="206" y="499"/>
      <point x="210" y="549"/>
      <point x="210" y="586" type="curve" smooth="yes"/>
      <point x="210" y="760" type="line"/>
      <point x="60" y="760" type="line"/>
      <point x="60" y="270" type="line" smooth="yes"/>
      <point x="60" y="89"/>
      <point x="149" y="-10"/>
    </contour>
    <contour>
      <point x="311" y="110" type="curve" smooth="yes"/>
      <point x="235" y="110"/>
      <point x="200" y="165"/>
      <point x="200" y="257" type="curve" smooth="yes"/>
      <point x="200" y="274" type="line" smooth="yes"/>
      <point x="200" y="377"/>
      <point x="227" y="434"/>
      <point x="315" y="434" type="curve" smooth="yes"/>
      <point x="380" y="434"/>
      <point x="419" y="377"/>
      <point x="419" y="269" type="curve" smooth="yes"/>
      <point x="419" y="173"/>
      <point x="389" y="110"/>
    </contour>
  </outline>
</glyph>
<glyph name="jhan-georgian" format="2">
  <advance width="585"/>
  <unicode hex="10EF"/>
  <note>
uni10EF
</note>
  <outline>
    <contour>
      <point x="363" y="307" type="curve" smooth="yes"/>
      <point x="363" y="318" type="line"/>
      <point x="535" y="288" type="line"/>
      <point x="535" y="404" type="line"/>
      <point x="364" y="434" type="line"/>
      <point x="364" y="556" type="line"/>
      <point x="216" y="556" type="line"/>
      <point x="216" y="460" type="line"/>
      <point x="50" y="489" type="line"/>
      <point x="50" y="373" type="line"/>
      <point x="216" y="344" type="line"/>
      <point x="216" y="312" type="line" smooth="yes"/>
      <point x="216" y="219"/>
      <point x="267" y="167"/>
      <point x="315" y="117" type="curve" smooth="yes"/>
      <point x="357" y="74"/>
      <point x="395" y="33"/>
      <point x="395" y="-30" type="curve" smooth="yes"/>
      <point x="395" y="-84"/>
      <point x="360" y="-130"/>
      <point x="292" y="-130" type="curve" smooth="yes"/>
      <point x="220" y="-130"/>
      <point x="189" y="-79"/>
      <point x="189" y="-20" type="curve" smooth="yes"/>
      <point x="189" y="9"/>
      <point x="192" y="29"/>
      <point x="199" y="56" type="curve"/>
      <point x="59" y="56" type="line"/>
      <point x="47" y="30"/>
      <point x="40" y="6"/>
      <point x="40" y="-37" type="curve" smooth="yes"/>
      <point x="40" y="-154"/>
      <point x="136" y="-250"/>
      <point x="292" y="-250" type="curve" smooth="yes"/>
      <point x="450" y="-250"/>
      <point x="545" y="-159"/>
      <point x="545" y="-25" type="curve" smooth="yes"/>
      <point x="545" y="66"/>
      <point x="502" y="125"/>
      <point x="454" y="171" type="curve" smooth="yes"/>
      <point x="404" y="219"/>
      <point x="363" y="258"/>
    </contour>
  </outline>
</glyph>
<glyph name="hae-georgian" format="2">
  <advance width="586"/>
  <unicode hex="10F0"/>
  <note>
uni10F0
</note>
  <outline>
    <contour>
      <point x="285" y="-10" type="curve" smooth="yes"/>
      <point x="432" y="-10"/>
      <point x="541" y="47"/>
      <point x="541" y="157" type="curve" smooth="yes"/>
      <point x="541" y="230"/>
      <point x="485" y="271"/>
      <point x="413" y="286" type="curve"/>
      <point x="413" y="289" type="line"/>
      <point x="475" y="300"/>
      <point x="531" y="322"/>
      <point x="531" y="394" type="curve" smooth="yes"/>
      <point x="531" y="456"/>
      <point x="469" y="493"/>
      <point x="411" y="498" type="curve"/>
      <point x="411" y="501" type="line"/>
      <point x="475" y="515"/>
      <point x="515" y="544"/>
      <point x="515" y="590" type="curve" smooth="yes"/>
      <point x="515" y="654"/>
      <point x="468" y="684"/>
      <point x="424" y="703" type="curve" smooth="yes"/>
      <point x="381" y="721"/>
      <point x="351" y="734"/>
      <point x="348" y="760" type="curve"/>
      <point x="198" y="760" type="line"/>
      <point x="198" y="685"/>
      <point x="245" y="647"/>
      <point x="293" y="631" type="curve" smooth="yes"/>
      <point x="341" y="615"/>
      <point x="359" y="606"/>
      <point x="359" y="584" type="curve" smooth="yes"/>
      <point x="359" y="566"/>
      <point x="344" y="553"/>
      <point x="303" y="553" type="curve" smooth="yes"/>
      <point x="250" y="553" type="line"/>
      <point x="250" y="438" type="line"/>
      <point x="301" y="438" type="line" smooth="yes"/>
      <point x="352" y="438"/>
      <point x="377" y="422"/>
      <point x="377" y="394" type="curve" smooth="yes"/>
      <point x="377" y="362"/>
      <point x="352" y="351"/>
      <point x="305" y="351" type="curve" smooth="yes"/>
      <point x="250" y="351" type="line"/>
      <point x="250" y="234" type="line"/>
      <point x="290" y="234" type="line" smooth="yes"/>
      <point x="362" y="234"/>
      <point x="387" y="207"/>
      <point x="387" y="170" type="curve" smooth="yes"/>
      <point x="387" y="134"/>
      <point x="357" y="110"/>
      <point x="286" y="110" type="curve" smooth="yes"/>
      <point x="213" y="110"/>
      <point x="185" y="147"/>
      <point x="185" y="191" type="curve" smooth="yes"/>
      <point x="185" y="198"/>
      <point x="186" y="206"/>
      <point x="187" y="213" type="curve"/>
      <point x="44" y="213" type="line"/>
      <point x="40" y="199"/>
      <point x="38" y="185"/>
      <point x="38" y="171" type="curve" smooth="yes"/>
      <point x="38" y="77"/>
      <point x="128" y="-10"/>
    </contour>
  </outline>
</glyph>
<glyph name="he-georgian" format="2">
  <advance width="705"/>
  <unicode hex="10F1"/>
  <note>
uni10F1
</note>
  <outline>
    <contour>
      <point x="391" y="-10" type="curve" smooth="yes"/>
      <point x="551" y="-10"/>
      <point x="660" y="61"/>
      <point x="660" y="157" type="curve" smooth="yes"/>
      <point x="660" y="236"/>
      <point x="604" y="274"/>
      <point x="532" y="286" type="curve"/>
      <point x="532" y="289" type="line"/>
      <point x="594" y="300"/>
      <point x="650" y="322"/>
      <point x="650" y="394" type="curve" smooth="yes"/>
      <point x="650" y="456"/>
      <point x="588" y="493"/>
      <point x="530" y="498" type="curve"/>
      <point x="530" y="501" type="line"/>
      <point x="594" y="515"/>
      <point x="634" y="541"/>
      <point x="634" y="595" type="curve" smooth="yes"/>
      <point x="634" y="651"/>
      <point x="604" y="679"/>
      <point x="575" y="702" type="curve" smooth="yes"/>
      <point x="553" y="719"/>
      <point x="537" y="734"/>
      <point x="533" y="760" type="curve"/>
      <point x="383" y="760" type="line"/>
      <point x="383" y="696"/>
      <point x="416" y="670"/>
      <point x="442" y="649" type="curve" smooth="yes"/>
      <point x="460" y="634"/>
      <point x="477" y="621"/>
      <point x="477" y="594" type="curve" smooth="yes"/>
      <point x="477" y="571"/>
      <point x="462" y="552"/>
      <point x="422" y="552" type="curve" smooth="yes"/>
      <point x="369" y="552" type="line"/>
      <point x="369" y="437" type="line"/>
      <point x="427" y="437" type="line" smooth="yes"/>
      <point x="471" y="437"/>
      <point x="496" y="421"/>
      <point x="496" y="393" type="curve" smooth="yes"/>
      <point x="496" y="361"/>
      <point x="471" y="350"/>
      <point x="431" y="350" type="curve" smooth="yes"/>
      <point x="369" y="350" type="line"/>
      <point x="369" y="236" type="line"/>
      <point x="418" y="236" type="line" smooth="yes"/>
      <point x="482" y="236"/>
      <point x="506" y="207"/>
      <point x="506" y="173" type="curve" smooth="yes"/>
      <point x="506" y="134"/>
      <point x="465" y="110"/>
      <point x="391" y="110" type="curve" smooth="yes"/>
      <point x="264" y="110"/>
      <point x="197" y="204"/>
      <point x="197" y="402" type="curve" smooth="yes"/>
      <point x="197" y="531"/>
      <point x="226" y="646"/>
      <point x="280" y="760" type="curve"/>
      <point x="131" y="760" type="line"/>
      <point x="74" y="652"/>
      <point x="45" y="524"/>
      <point x="45" y="402" type="curve" smooth="yes"/>
      <point x="45" y="117"/>
      <point x="172" y="-10"/>
    </contour>
  </outline>
</glyph>
<glyph name="hie-georgian" format="2">
  <advance width="610"/>
  <unicode hex="10F2"/>
  <note>
uni10F2
</note>
  <outline>
    <contour>
      <point x="55" y="0" type="line"/>
      <point x="154" y="0"/>
      <point x="234" y="21"/>
      <point x="304" y="51" type="curve"/>
      <point x="374" y="21"/>
      <point x="454" y="0"/>
      <point x="555" y="0" type="curve"/>
      <point x="555" y="114" type="line"/>
      <point x="512" y="114"/>
      <point x="476" y="118"/>
      <point x="422" y="125" type="curve"/>
      <point x="422" y="129" type="line"/>
      <point x="520" y="178"/>
      <point x="565" y="260"/>
      <point x="565" y="337" type="curve" smooth="yes"/>
      <point x="565" y="443"/>
      <point x="482" y="556"/>
      <point x="305" y="556" type="curve" smooth="yes"/>
      <point x="128" y="556"/>
      <point x="45" y="443"/>
      <point x="45" y="337" type="curve" smooth="yes"/>
      <point x="45" y="260"/>
      <point x="90" y="178"/>
      <point x="187" y="129" type="curve"/>
      <point x="187" y="125" type="line"/>
      <point x="133" y="118"/>
      <point x="97" y="114"/>
      <point x="55" y="114" type="curve"/>
    </contour>
    <contour>
      <point x="305" y="164" type="curve"/>
      <point x="239" y="198"/>
      <point x="197" y="254"/>
      <point x="197" y="326" type="curve" smooth="yes"/>
      <point x="197" y="391"/>
      <point x="234" y="441"/>
      <point x="305" y="441" type="curve" smooth="yes"/>
      <point x="376" y="441"/>
      <point x="413" y="391"/>
      <point x="413" y="326" type="curve" smooth="yes"/>
      <point x="413" y="254"/>
      <point x="371" y="198"/>
    </contour>
  </outline>
</glyph>
<glyph name="we-georgian" format="2">
  <advance width="601"/>
  <unicode hex="10F3"/>
  <note>
uni10F3
</note>
  <outline>
    <contour>
      <point x="300" y="-250" type="curve" smooth="yes"/>
      <point x="463" y="-250"/>
      <point x="561" y="-153"/>
      <point x="561" y="-2" type="curve" smooth="yes"/>
      <point x="561" y="151"/>
      <point x="464" y="231"/>
      <point x="365" y="245" type="curve"/>
      <point x="535" y="450" type="line"/>
      <point x="535" y="546" type="line"/>
      <point x="82" y="546" type="line"/>
      <point x="82" y="426" type="line"/>
      <point x="357" y="426" type="line"/>
      <point x="203" y="238" type="line"/>
      <point x="203" y="141" type="line"/>
      <point x="278" y="141" type="line" smooth="yes"/>
      <point x="366" y="141"/>
      <point x="409" y="88"/>
      <point x="409" y="-4" type="curve" smooth="yes"/>
      <point x="409" y="-74"/>
      <point x="378" y="-130"/>
      <point x="301" y="-130" type="curve" smooth="yes"/>
      <point x="222" y="-130"/>
      <point x="189" y="-73"/>
      <point x="189" y="-13" type="curve" smooth="yes"/>
      <point x="189" y="10"/>
      <point x="193" y="39"/>
      <point x="199" y="60" type="curve"/>
      <point x="56" y="60" type="line"/>
      <point x="47" y="36"/>
      <point x="40" y="5"/>
      <point x="40" y="-31" type="curve" smooth="yes"/>
      <point x="40" y="-153"/>
      <point x="136" y="-250"/>
    </contour>
  </outline>
</glyph>
<glyph name="har-georgian" format="2">
  <advance width="591"/>
  <unicode hex="10F4"/>
  <note>
uni10F4
</note>
  <outline>
    <contour>
      <point x="293" y="-250" type="curve" smooth="yes"/>
      <point x="453" y="-250"/>
      <point x="551" y="-154"/>
      <point x="551" y="-18" type="curve" smooth="yes"/>
      <point x="551" y="101"/>
      <point x="470" y="163"/>
      <point x="394" y="178" type="curve"/>
      <point x="394" y="182" type="line"/>
      <point x="470" y="197"/>
      <point x="525" y="239"/>
      <point x="525" y="327" type="curve" smooth="yes"/>
      <point x="525" y="430"/>
      <point x="440" y="474"/>
      <point x="364" y="509" type="curve" smooth="yes"/>
      <point x="293" y="542"/>
      <point x="251" y="560"/>
      <point x="251" y="604" type="curve" smooth="yes"/>
      <point x="251" y="632"/>
      <point x="273" y="650"/>
      <point x="321" y="650" type="curve" smooth="yes"/>
      <point x="358" y="650"/>
      <point x="397" y="637"/>
      <point x="434" y="616" type="curve"/>
      <point x="481" y="722" type="line"/>
      <point x="432" y="754"/>
      <point x="372" y="770"/>
      <point x="311" y="770" type="curve" smooth="yes"/>
      <point x="181" y="770"/>
      <point x="102" y="706"/>
      <point x="102" y="605" type="curve" smooth="yes"/>
      <point x="102" y="493"/>
      <point x="176" y="450"/>
      <point x="263" y="408" type="curve" smooth="yes"/>
      <point x="331" y="375"/>
      <point x="371" y="354"/>
      <point x="371" y="307" type="curve" smooth="yes"/>
      <point x="371" y="262"/>
      <point x="347" y="238"/>
      <point x="286" y="238" type="curve" smooth="yes"/>
      <point x="241" y="238" type="line"/>
      <point x="241" y="118" type="line"/>
      <point x="281" y="118" type="line" smooth="yes"/>
      <point x="357" y="118"/>
      <point x="399" y="69"/>
      <point x="399" y="-6" type="curve" smooth="yes"/>
      <point x="399" y="-70"/>
      <point x="368" y="-130"/>
      <point x="293" y="-130" type="curve" smooth="yes"/>
      <point x="225" y="-130"/>
      <point x="189" y="-89"/>
      <point x="189" y="-28" type="curve" smooth="yes"/>
      <point x="189" y="-3"/>
      <point x="192" y="20"/>
      <point x="197" y="40" type="curve"/>
      <point x="55" y="40" type="line"/>
      <point x="47" y="19"/>
      <point x="40" y="-6"/>
      <point x="40" y="-39" type="curve" smooth="yes"/>
      <point x="40" y="-175"/>
      <point x="144" y="-250"/>
    </contour>
  </outline>
</glyph>
<glyph name="hoe-georgian" format="2">
  <advance width="654"/>
  <unicode hex="10F5"/>
  <note>
uni10F5
</note>
  <outline>
    <contour>
      <point x="288" y="-10" type="curve" smooth="yes"/>
      <point x="446" y="-10"/>
      <point x="532" y="63"/>
      <point x="532" y="199" type="curve" smooth="yes"/>
      <point x="532" y="229" type="line"/>
      <point x="634" y="229" type="line"/>
      <point x="634" y="341" type="line"/>
      <point x="532" y="341" type="line"/>
      <point x="532" y="431" type="line"/>
      <point x="634" y="431" type="line"/>
      <point x="634" y="543" type="line"/>
      <point x="532" y="543" type="line"/>
      <point x="532" y="576" type="line" smooth="yes"/>
      <point x="532" y="702"/>
      <point x="441" y="770"/>
      <point x="291" y="770" type="curve" smooth="yes"/>
      <point x="135" y="770"/>
      <point x="51" y="707"/>
      <point x="51" y="596" type="curve" smooth="yes"/>
      <point x="51" y="488"/>
      <point x="129" y="431"/>
      <point x="260" y="431" type="curve" smooth="yes"/>
      <point x="391" y="431" type="line"/>
      <point x="391" y="341" type="line"/>
      <point x="268" y="341" type="line" smooth="yes"/>
      <point x="130" y="341"/>
      <point x="45" y="279"/>
      <point x="45" y="168" type="curve" smooth="yes"/>
      <point x="45" y="54"/>
      <point x="130" y="-10"/>
    </contour>
    <contour>
      <point x="289" y="102" type="curve" smooth="yes"/>
      <point x="229" y="102"/>
      <point x="190" y="126"/>
      <point x="190" y="167" type="curve" smooth="yes"/>
      <point x="190" y="209"/>
      <point x="224" y="229"/>
      <point x="280" y="229" type="curve" smooth="yes"/>
      <point x="391" y="229" type="line"/>
      <point x="391" y="197" type="line" smooth="yes"/>
      <point x="391" y="138"/>
      <point x="358" y="102"/>
    </contour>
    <contour>
      <point x="274" y="543" type="line" smooth="yes"/>
      <point x="223" y="543"/>
      <point x="195" y="560"/>
      <point x="195" y="597" type="curve" smooth="yes"/>
      <point x="195" y="636"/>
      <point x="227" y="658"/>
      <point x="290" y="658" type="curve" smooth="yes"/>
      <point x="353" y="658"/>
      <point x="391" y="629"/>
      <point x="391" y="572" type="curve" smooth="yes"/>
      <point x="391" y="543" type="line"/>
    </contour>
  </outline>
</glyph>
<glyph name="fi-georgian" format="2">
  <advance width="930"/>
  <unicode hex="10F6"/>
  <note>
uni10F6
</note>
  <outline>
    <contour>
      <point x="374" y="-250" type="curve" smooth="yes"/>
      <point x="491" y="-250"/>
      <point x="539" y="-182"/>
      <point x="539" y="-68" type="curve" smooth="yes"/>
      <point x="539" y="-21" type="line" smooth="yes"/>
      <point x="539" y="8"/>
      <point x="535" y="49"/>
      <point x="532" y="70" type="curve"/>
      <point x="537" y="70" type="line"/>
      <point x="569" y="21"/>
      <point x="611" y="-10"/>
      <point x="680" y="-10" type="curve" smooth="yes"/>
      <point x="805" y="-10"/>
      <point x="885" y="90"/>
      <point x="885" y="274" type="curve" smooth="yes"/>
      <point x="885" y="456"/>
      <point x="806" y="556"/>
      <point x="685" y="556" type="curve" smooth="yes"/>
      <point x="612" y="556"/>
      <point x="570" y="523"/>
      <point x="539" y="475" type="curve"/>
      <point x="534" y="475" type="line"/>
      <point x="537" y="499"/>
      <point x="539" y="523"/>
      <point x="539" y="550" type="curve" smooth="yes"/>
      <point x="539" y="588" type="line" smooth="yes"/>
      <point x="539" y="634"/>
      <point x="560" y="650"/>
      <point x="590" y="650" type="curve" smooth="yes"/>
      <point x="614" y="650"/>
      <point x="637" y="644"/>
      <point x="646" y="639" type="curve"/>
      <point x="646" y="752" type="line"/>
      <point x="632" y="760"/>
      <point x="598" y="770"/>
      <point x="558" y="770" type="curve" smooth="yes"/>
      <point x="453" y="770"/>
      <point x="391" y="725"/>
      <point x="391" y="593" type="curve" smooth="yes"/>
      <point x="391" y="550" type="line" smooth="yes"/>
      <point x="391" y="523"/>
      <point x="393" y="500"/>
      <point x="396" y="475" type="curve"/>
      <point x="391" y="475" type="line"/>
      <point x="360" y="523"/>
      <point x="319" y="556"/>
      <point x="246" y="556" type="curve" smooth="yes"/>
      <point x="125" y="556"/>
      <point x="45" y="456"/>
      <point x="45" y="274" type="curve" smooth="yes"/>
      <point x="45" y="90"/>
      <point x="126" y="-10"/>
      <point x="250" y="-10" type="curve" smooth="yes"/>
      <point x="319" y="-10"/>
      <point x="361" y="21"/>
      <point x="394" y="70" type="curve"/>
      <point x="398" y="70" type="line"/>
      <point x="395" y="49"/>
      <point x="391" y="9"/>
      <point x="391" y="-20" type="curve" smooth="yes"/>
      <point x="391" y="-68" type="line" smooth="yes"/>
      <point x="391" y="-113"/>
      <point x="372" y="-130"/>
      <point x="341" y="-130" type="curve" smooth="yes"/>
      <point x="321" y="-130"/>
      <point x="304" y="-125"/>
      <point x="288" y="-120" type="curve"/>
      <point x="288" y="-233" type="line"/>
      <point x="308" y="-245"/>
      <point x="342" y="-250"/>
    </contour>
    <contour>
      <point x="297" y="116" type="curve" smooth="yes"/>
      <point x="235" y="116"/>
      <point x="196" y="172"/>
      <point x="196" y="276" type="curve" smooth="yes"/>
      <point x="196" y="380"/>
      <point x="235" y="432"/>
      <point x="298" y="432" type="curve" smooth="yes"/>
      <point x="368" y="432"/>
      <point x="401" y="387"/>
      <point x="401" y="291" type="curve" smooth="yes"/>
      <point x="401" y="269" type="line" smooth="yes"/>
      <point x="401" y="168"/>
      <point x="371" y="116"/>
    </contour>
    <contour>
      <point x="634" y="116" type="curve" smooth="yes"/>
      <point x="559" y="116"/>
      <point x="530" y="168"/>
      <point x="530" y="269" type="curve" smooth="yes"/>
      <point x="530" y="291" type="line" smooth="yes"/>
      <point x="530" y="387"/>
      <point x="562" y="432"/>
      <point x="632" y="432" type="curve" smooth="yes"/>
      <point x="696" y="432"/>
      <point x="734" y="380"/>
      <point x="734" y="276" type="curve" smooth="yes"/>
      <point x="734" y="172"/>
      <point x="695" y="116"/>
    </contour>
  </outline>
</glyph>
<glyph name="yn-georgian" format="2">
  <advance width="585"/>
  <unicode hex="10F7"/>
  <note>
uni10F7
</note>
  <anchor x="293" y="546" name="top"/>
  <outline>
    <contour>
      <point x="291" y="-250" type="curve" smooth="yes"/>
      <point x="447" y="-250"/>
      <point x="545" y="-185"/>
      <point x="545" y="-44" type="curve" smooth="yes"/>
      <point x="545" y="-15"/>
      <point x="541" y="8"/>
      <point x="534" y="31" type="curve"/>
      <point x="386" y="31" type="line"/>
      <point x="392" y="14"/>
      <point x="396" y="-9"/>
      <point x="396" y="-32" type="curve" smooth="yes"/>
      <point x="396" y="-92"/>
      <point x="359" y="-130"/>
      <point x="292" y="-130" type="curve" smooth="yes"/>
      <point x="233" y="-130"/>
      <point x="192" y="-94"/>
      <point x="192" y="-36" type="curve" smooth="yes"/>
      <point x="192" y="50"/>
      <point x="241" y="87"/>
      <point x="330" y="130" type="curve" smooth="yes"/>
      <point x="470" y="198"/>
      <point x="528" y="258"/>
      <point x="528" y="366" type="curve" smooth="yes"/>
      <point x="528" y="482"/>
      <point x="447" y="556"/>
      <point x="292" y="556" type="curve" smooth="yes"/>
      <point x="144" y="556"/>
      <point x="60" y="483"/>
      <point x="60" y="378" type="curve" smooth="yes"/>
      <point x="60" y="365"/>
      <point x="61" y="352"/>
      <point x="64" y="339" type="curve"/>
      <point x="210" y="339" type="line"/>
      <point x="208" y="348"/>
      <point x="207" y="357"/>
      <point x="207" y="366" type="curve" smooth="yes"/>
      <point x="207" y="406"/>
      <point x="231" y="435"/>
      <point x="294" y="435" type="curve" smooth="yes"/>
      <point x="352" y="435"/>
      <point x="379" y="407"/>
      <point x="379" y="370" type="curve" smooth="yes"/>
      <point x="379" y="319"/>
      <point x="353" y="286"/>
      <point x="248" y="239" type="curve" smooth="yes"/>
      <point x="133" y="187"/>
      <point x="40" y="120"/>
      <point x="40" y="-30" type="curve" smooth="yes"/>
      <point x="40" y="-168"/>
      <point x="136" y="-250"/>
    </contour>
  </outline>
</glyph>
<glyph name="elifi-georgian" format="2">
  <advance width="613"/>
  <unicode hex="10F8"/>
  <note>
uni10F8
</note>
  <outline>
    <contour>
      <point x="312" y="-250" type="curve" smooth="yes"/>
      <point x="473" y="-250"/>
      <point x="563" y="-154"/>
      <point x="563" y="-37" type="curve" smooth="yes"/>
      <point x="563" y="6"/>
      <point x="557" y="30"/>
      <point x="545" y="56" type="curve"/>
      <point x="405" y="56" type="line"/>
      <point x="412" y="29"/>
      <point x="414" y="9"/>
      <point x="414" y="-20" type="curve" smooth="yes"/>
      <point x="414" y="-79"/>
      <point x="383" y="-130"/>
      <point x="311" y="-130" type="curve" smooth="yes"/>
      <point x="234" y="-130"/>
      <point x="208" y="-79"/>
      <point x="208" y="11" type="curve" smooth="yes"/>
      <point x="208" y="94" type="line" smooth="yes"/>
      <point x="208" y="136"/>
      <point x="206" y="174"/>
      <point x="202" y="218" type="curve"/>
      <point x="208" y="218" type="line"/>
      <point x="238" y="170"/>
      <point x="289" y="136"/>
      <point x="363" y="136" type="curve" smooth="yes"/>
      <point x="486" y="136"/>
      <point x="568" y="219"/>
      <point x="568" y="371" type="curve" smooth="yes"/>
      <point x="568" y="435"/>
      <point x="551" y="496"/>
      <point x="528" y="546" type="curve"/>
      <point x="383" y="546" type="line"/>
      <point x="403" y="492"/>
      <point x="416" y="446"/>
      <point x="416" y="386" type="curve" smooth="yes"/>
      <point x="416" y="308"/>
      <point x="381" y="261"/>
      <point x="319" y="261" type="curve" smooth="yes"/>
      <point x="247" y="261"/>
      <point x="208" y="313"/>
      <point x="208" y="405" type="curve" smooth="yes"/>
      <point x="208" y="546" type="line"/>
      <point x="60" y="546" type="line"/>
      <point x="60" y="12" type="line" smooth="yes"/>
      <point x="60" y="-153"/>
      <point x="150" y="-250"/>
    </contour>
  </outline>
</glyph>
<glyph name="turnedgan-georgian" format="2">
  <advance width="619"/>
  <unicode hex="10F9"/>
  <note>
uni10F9
</note>
  <outline>
    <contour>
      <point x="311" y="556" type="curve" smooth="yes"/>
      <point x="146" y="556"/>
      <point x="45" y="454"/>
      <point x="45" y="282" type="curve" smooth="yes"/>
      <point x="45" y="170"/>
      <point x="93" y="83"/>
      <point x="195" y="45" type="curve"/>
      <point x="195" y="42" type="line"/>
      <point x="124" y="17"/>
      <point x="99" y="-33"/>
      <point x="99" y="-90" type="curve" smooth="yes"/>
      <point x="99" y="-177"/>
      <point x="179" y="-250"/>
      <point x="311" y="-250" type="curve" smooth="yes"/>
      <point x="438" y="-250"/>
      <point x="521" y="-188"/>
      <point x="521" y="-94" type="curve" smooth="yes"/>
      <point x="521" y="-79"/>
      <point x="519" y="-63"/>
      <point x="514" y="-46" type="curve"/>
      <point x="376" y="-46" type="line"/>
      <point x="378" y="-57"/>
      <point x="379" y="-67"/>
      <point x="379" y="-76" type="curve" smooth="yes"/>
      <point x="379" y="-114"/>
      <point x="355" y="-142"/>
      <point x="311" y="-142" type="curve" smooth="yes"/>
      <point x="266" y="-142"/>
      <point x="241" y="-112"/>
      <point x="241" y="-76" type="curve" smooth="yes"/>
      <point x="241" y="-28"/>
      <point x="269" y="0"/>
      <point x="342" y="12" type="curve" smooth="yes"/>
      <point x="480" y="35"/>
      <point x="574" y="121"/>
      <point x="574" y="282" type="curve" smooth="yes"/>
      <point x="574" y="454"/>
      <point x="464" y="556"/>
    </contour>
    <contour>
      <point x="309" y="436" type="curve" smooth="yes"/>
      <point x="389" y="436"/>
      <point x="422" y="374"/>
      <point x="422" y="282" type="curve" smooth="yes"/>
      <point x="422" y="190"/>
      <point x="389" y="130"/>
      <point x="310" y="130" type="curve" smooth="yes"/>
      <point x="230" y="130"/>
      <point x="197" y="190"/>
      <point x="197" y="282" type="curve" smooth="yes"/>
      <point x="197" y="374"/>
      <point x="230" y="436"/>
    </contour>
  </outline>
</glyph>
<glyph name="ain-georgian" format="2">
  <advance width="506"/>
  <unicode hex="10FA"/>
  <note>
uni10FA
</note>
  <outline>
    <contour>
      <point x="97" y="-123" type="line"/>
      <point x="471" y="16" type="line"/>
      <point x="471" y="155" type="line"/>
      <point x="427" y="129"/>
      <point x="373" y="113"/>
      <point x="319" y="113" type="curve" smooth="yes"/>
      <point x="244" y="113"/>
      <point x="199" y="163"/>
      <point x="199" y="272" type="curve" smooth="yes"/>
      <point x="199" y="380"/>
      <point x="243" y="435"/>
      <point x="320" y="435" type="curve" smooth="yes"/>
      <point x="362" y="435"/>
      <point x="404" y="420"/>
      <point x="441" y="405" type="curve"/>
      <point x="486" y="519" type="line"/>
      <point x="442" y="542"/>
      <point x="381" y="556"/>
      <point x="321" y="556" type="curve" smooth="yes"/>
      <point x="163" y="556"/>
      <point x="45" y="470"/>
      <point x="45" y="277" type="curve" smooth="yes"/>
      <point x="45" y="155"/>
      <point x="103" y="71"/>
      <point x="175" y="43" type="curve"/>
      <point x="175" y="39" type="line"/>
      <point x="97" y="10" type="line"/>
    </contour>
  </outline>
</glyph>
<glyph name="paragraph-georgian" format="2">
  <advance width="573"/>
  <unicode hex="10FB"/>
  <note>
uni10FB
</note>
  <outline>
    <contour>
      <point x="440" y="189" type="curve" smooth="yes"/>
      <point x="493" y="189"/>
      <point x="525" y="219"/>
      <point x="525" y="272" type="curve" smooth="yes"/>
      <point x="525" y="325"/>
      <point x="494" y="355"/>
      <point x="440" y="355" type="curve" smooth="yes"/>
      <point x="384" y="355"/>
      <point x="354" y="327"/>
      <point x="354" y="272" type="curve" smooth="yes"/>
      <point x="354" y="219"/>
      <point x="385" y="189"/>
    </contour>
    <contour>
      <point x="143" y="-13" type="curve" smooth="yes"/>
      <point x="196" y="-13"/>
      <point x="228" y="19"/>
      <point x="228" y="70" type="curve" smooth="yes"/>
      <point x="228" y="123"/>
      <point x="197" y="153"/>
      <point x="143" y="153" type="curve" smooth="yes"/>
      <point x="87" y="153"/>
      <point x="57" y="125"/>
      <point x="57" y="70" type="curve" smooth="yes"/>
      <point x="57" y="17"/>
      <point x="88" y="-13"/>
    </contour>
    <contour>
      <point x="143" y="390" type="curve" smooth="yes"/>
      <point x="196" y="390"/>
      <point x="228" y="420"/>
      <point x="228" y="473" type="curve" smooth="yes"/>
      <point x="228" y="526"/>
      <point x="197" y="556"/>
      <point x="143" y="556" type="curve" smooth="yes"/>
      <point x="87" y="556"/>
      <point x="57" y="528"/>
      <point x="57" y="473" type="curve" smooth="yes"/>
      <point x="57" y="420"/>
      <point x="88" y="390"/>
    </contour>
  </outline>
</glyph>
<glyph name="narMod-georgian" format="2">
  <advance width="364"/>
  <unicode hex="10FC"/>
  <note>
uni10FC
</note>
  <outline>
    <contour>
      <point x="183" y="411" type="curve" smooth="yes"/>
      <point x="282" y="411"/>
      <point x="339" y="470"/>
      <point x="339" y="573" type="curve" smooth="yes"/>
      <point x="339" y="675"/>
      <point x="291" y="725"/>
      <point x="223" y="725" type="curve" smooth="yes"/>
      <point x="181" y="725"/>
      <point x="158" y="711"/>
      <point x="141" y="684" type="curve"/>
      <point x="139" y="684" type="line"/>
      <point x="142" y="701"/>
      <point x="144" y="720"/>
      <point x="144" y="733" type="curve" smooth="yes"/>
      <point x="144" y="742" type="line" smooth="yes"/>
      <point x="144" y="759"/>
      <point x="153" y="767"/>
      <point x="172" y="767" type="curve" smooth="yes"/>
      <point x="311" y="767" type="line"/>
      <point x="311" y="848" type="line"/>
      <point x="159" y="848" type="line" smooth="yes"/>
      <point x="96" y="848"/>
      <point x="35" y="817"/>
      <point x="35" y="726" type="curve" smooth="yes"/>
      <point x="35" y="571" type="line" smooth="yes"/>
      <point x="35" y="468"/>
      <point x="88" y="411"/>
    </contour>
    <contour>
      <point x="182" y="491" type="curve" smooth="yes"/>
      <point x="153" y="491"/>
      <point x="135" y="516"/>
      <point x="135" y="564" type="curve" smooth="yes"/>
      <point x="135" y="575" type="line" smooth="yes"/>
      <point x="135" y="616"/>
      <point x="146" y="643"/>
      <point x="184" y="643" type="curve" smooth="yes"/>
      <point x="210" y="643"/>
      <point x="229" y="619"/>
      <point x="229" y="571" type="curve" smooth="yes"/>
      <point x="229" y="522"/>
      <point x="219" y="491"/>
    </contour>
  </outline>
</glyph>
<glyph name="aen-georgian" format="2">
  <advance width="585"/>
  <unicode hex="10FD"/>
  <outline>
    <contour>
      <point x="294" y="-10" type="curve" smooth="yes"/>
      <point x="449" y="-10"/>
      <point x="545" y="72"/>
      <point x="545" y="210" type="curve" smooth="yes"/>
      <point x="545" y="354"/>
      <point x="452" y="411"/>
      <point x="337" y="463" type="curve" smooth="yes"/>
      <point x="232" y="510"/>
      <point x="206" y="533"/>
      <point x="206" y="584" type="curve" smooth="yes"/>
      <point x="206" y="621"/>
      <point x="233" y="649"/>
      <point x="291" y="649" type="curve" smooth="yes"/>
      <point x="354" y="649"/>
      <point x="378" y="620"/>
      <point x="378" y="580" type="curve" smooth="yes"/>
      <point x="378" y="571"/>
      <point x="377" y="562"/>
      <point x="375" y="553" type="curve"/>
      <point x="521" y="553" type="line"/>
      <point x="524" y="566"/>
      <point x="525" y="579"/>
      <point x="525" y="592" type="curve" smooth="yes"/>
      <point x="525" y="697"/>
      <point x="441" y="770"/>
      <point x="293" y="770" type="curve" smooth="yes"/>
      <point x="138" y="770"/>
      <point x="57" y="696"/>
      <point x="57" y="580" type="curve" smooth="yes"/>
      <point x="57" y="472"/>
      <point x="115" y="422"/>
      <point x="255" y="354" type="curve" smooth="yes"/>
      <point x="344" y="311"/>
      <point x="393" y="284"/>
      <point x="393" y="204" type="curve" smooth="yes"/>
      <point x="393" y="146"/>
      <point x="352" y="110"/>
      <point x="293" y="110" type="curve" smooth="yes"/>
      <point x="226" y="110"/>
      <point x="189" y="148"/>
      <point x="189" y="208" type="curve" smooth="yes"/>
      <point x="189" y="231"/>
      <point x="193" y="254"/>
      <point x="199" y="271" type="curve"/>
      <point x="51" y="271" type="line"/>
      <point x="44" y="248"/>
      <point x="40" y="225"/>
      <point x="40" y="196" type="curve" smooth="yes"/>
      <point x="40" y="55"/>
      <point x="138" y="-10"/>
    </contour>
  </outline>
</glyph>
<glyph name="hardsign-georgian" format="2">
  <advance width="610"/>
  <unicode hex="10FE"/>
  <outline>
    <contour>
      <point x="55" y="546" type="curve"/>
      <point x="55" y="432" type="line"/>
      <point x="97" y="432"/>
      <point x="133" y="428"/>
      <point x="187" y="421" type="curve"/>
      <point x="187" y="417" type="line"/>
      <point x="90" y="368"/>
      <point x="45" y="286"/>
      <point x="45" y="209" type="curve" smooth="yes"/>
      <point x="45" y="103"/>
      <point x="128" y="-10"/>
      <point x="305" y="-10" type="curve" smooth="yes"/>
      <point x="482" y="-10"/>
      <point x="565" y="103"/>
      <point x="565" y="209" type="curve" smooth="yes"/>
      <point x="565" y="286"/>
      <point x="520" y="368"/>
      <point x="422" y="417" type="curve"/>
      <point x="422" y="421" type="line"/>
      <point x="476" y="428"/>
      <point x="512" y="432"/>
      <point x="555" y="432" type="curve"/>
      <point x="555" y="546" type="line"/>
      <point x="454" y="546"/>
      <point x="374" y="525"/>
      <point x="304" y="495" type="curve"/>
      <point x="234" y="525"/>
      <point x="154" y="546"/>
    </contour>
    <contour>
      <point x="305" y="382" type="curve"/>
      <point x="371" y="348"/>
      <point x="413" y="292"/>
      <point x="413" y="220" type="curve" smooth="yes"/>
      <point x="413" y="155"/>
      <point x="376" y="105"/>
      <point x="305" y="105" type="curve" smooth="yes"/>
      <point x="234" y="105"/>
      <point x="197" y="155"/>
      <point x="197" y="220" type="curve" smooth="yes"/>
      <point x="197" y="292"/>
      <point x="239" y="348"/>
    </contour>
  </outline>
</glyph>
<glyph name="An-georgian" format="2">
  <advance width="621"/>
  <unicode hex="1C90"/>
  <anchor x="308" y="714" name="top"/>
  <outline>
    <contour>
      <point x="307" y="-10" type="curve" smooth="yes"/>
      <point x="472" y="-10"/>
      <point x="571" y="92"/>
      <point x="571" y="248" type="curve" smooth="yes"/>
      <point x="571" y="372"/>
      <point x="517" y="449"/>
      <point x="467" y="516" type="curve" smooth="yes"/>
      <point x="418" y="581"/>
      <point x="373" y="637"/>
      <point x="382" y="714" type="curve"/>
      <point x="227" y="714" type="line"/>
      <point x="211" y="593"/>
      <point x="266" y="526"/>
      <point x="329" y="445" type="curve" smooth="yes"/>
      <point x="372" y="390"/>
      <point x="412" y="329"/>
      <point x="412" y="244" type="curve" smooth="yes"/>
      <point x="412" y="169"/>
      <point x="382" y="116"/>
      <point x="307" y="116" type="curve" smooth="yes"/>
      <point x="236" y="116"/>
      <point x="202" y="168"/>
      <point x="202" y="239" type="curve" smooth="yes"/>
      <point x="202" y="265"/>
      <point x="204" y="304"/>
      <point x="219" y="352" type="curve"/>
      <point x="65" y="352" type="line"/>
      <point x="46" y="300"/>
      <point x="44" y="267"/>
      <point x="44" y="230" type="curve" smooth="yes"/>
      <point x="44" y="81"/>
      <point x="144" y="-10"/>
    </contour>
  </outline>
</glyph>
<glyph name="Ban-georgian" format="2">
  <advance width="636"/>
  <unicode hex="1C91"/>
  <outline>
    <contour>
      <point x="317" y="-10" type="curve" smooth="yes"/>
      <point x="477" y="-10"/>
      <point x="586" y="86"/>
      <point x="586" y="260" type="curve" smooth="yes"/>
      <point x="586" y="429"/>
      <point x="469" y="525"/>
      <point x="320" y="525" type="curve" smooth="yes"/>
      <point x="158" y="525"/>
      <point x="50" y="429"/>
      <point x="50" y="260" type="curve" smooth="yes"/>
      <point x="50" y="87"/>
      <point x="167" y="-10"/>
    </contour>
    <contour>
      <point x="319" y="116" type="curve" smooth="yes"/>
      <point x="249" y="116"/>
      <point x="209" y="171"/>
      <point x="209" y="260" type="curve" smooth="yes"/>
      <point x="209" y="345"/>
      <point x="249" y="399"/>
      <point x="318" y="399" type="curve" smooth="yes"/>
      <point x="388" y="399"/>
      <point x="427" y="346"/>
      <point x="427" y="260" type="curve" smooth="yes"/>
      <point x="427" y="172"/>
      <point x="388" y="116"/>
    </contour>
    <contour>
      <point x="397" y="497" type="line"/>
      <point x="412" y="521"/>
      <point x="420" y="541"/>
      <point x="420" y="567" type="curve" smooth="yes"/>
      <point x="420" y="607"/>
      <point x="396" y="636"/>
      <point x="367" y="656" type="curve" smooth="yes"/>
      <point x="341" y="674"/>
      <point x="324" y="688"/>
      <point x="324" y="714" type="curve"/>
      <point x="178" y="714" type="line"/>
      <point x="170" y="658"/>
      <point x="203" y="618"/>
      <point x="231" y="600" type="curve" smooth="yes"/>
      <point x="251" y="587"/>
      <point x="270" y="573"/>
      <point x="270" y="549" type="curve" smooth="yes"/>
      <point x="270" y="534"/>
      <point x="265" y="516"/>
      <point x="252" y="507" type="curve"/>
    </contour>
  </outline>
</glyph>
<glyph name="Gan-georgian" format="2">
  <advance width="624"/>
  <unicode hex="1C92"/>
  <outline>
    <contour>
      <point x="311" y="-9" type="curve" smooth="yes"/>
      <point x="471" y="-9"/>
      <point x="580" y="84"/>
      <point x="580" y="242" type="curve" smooth="yes"/>
      <point x="580" y="350"/>
      <point x="526" y="418"/>
      <point x="448" y="446" type="curve"/>
      <point x="448" y="450" type="line"/>
      <point x="513" y="474"/>
      <point x="536" y="520"/>
      <point x="536" y="568" type="curve" smooth="yes"/>
      <point x="536" y="659"/>
      <point x="452" y="724"/>
      <point x="312" y="724" type="curve" smooth="yes"/>
      <point x="179" y="724"/>
      <point x="88" y="661"/>
      <point x="88" y="571" type="curve" smooth="yes"/>
      <point x="88" y="559"/>
      <point x="89" y="546"/>
      <point x="93" y="527" type="curve"/>
      <point x="242" y="527" type="line"/>
      <point x="240" y="537"/>
      <point x="239" y="544"/>
      <point x="239" y="551" type="curve" smooth="yes"/>
      <point x="239" y="587"/>
      <point x="267" y="611"/>
      <point x="312" y="611" type="curve" smooth="yes"/>
      <point x="357" y="611"/>
      <point x="384" y="588"/>
      <point x="384" y="555" type="curve" smooth="yes"/>
      <point x="384" y="515"/>
      <point x="358" y="495"/>
      <point x="291" y="488" type="curve" smooth="yes"/>
      <point x="142" y="472"/>
      <point x="44" y="394"/>
      <point x="44" y="242" type="curve" smooth="yes"/>
      <point x="44" y="84"/>
      <point x="161" y="-9"/>
    </contour>
    <contour>
      <point x="313" y="117" type="curve" smooth="yes"/>
      <point x="246" y="117"/>
      <point x="203" y="170"/>
      <point x="203" y="242" type="curve" smooth="yes"/>
      <point x="203" y="317"/>
      <point x="246" y="366"/>
      <point x="312" y="366" type="curve" smooth="yes"/>
      <point x="378" y="366"/>
      <point x="421" y="318"/>
      <point x="421" y="242" type="curve" smooth="yes"/>
      <point x="421" y="170"/>
      <point x="378" y="117"/>
    </contour>
  </outline>
</glyph>
<glyph name="Don-georgian" format="2">
  <advance width="953"/>
  <unicode hex="1C93"/>
  <outline>
    <contour>
      <point x="567" y="0" type="curve"/>
      <point x="717" y="0" type="line"/>
      <point x="705" y="137"/>
      <point x="588" y="177"/>
      <point x="474" y="205" type="curve" smooth="yes"/>
      <point x="333" y="240"/>
      <point x="206" y="309"/>
      <point x="206" y="473" type="curve" smooth="yes"/>
      <point x="206" y="546"/>
      <point x="234" y="606"/>
      <point x="297" y="606" type="curve" smooth="yes"/>
      <point x="355" y="606"/>
      <point x="383" y="560"/>
      <point x="383" y="497" type="curve" smooth="yes"/>
      <point x="383" y="473" type="line" smooth="yes"/>
      <point x="383" y="333"/>
      <point x="483" y="239"/>
      <point x="643" y="239" type="curve" smooth="yes"/>
      <point x="794" y="239"/>
      <point x="903" y="333"/>
      <point x="903" y="479" type="curve" smooth="yes"/>
      <point x="903" y="629"/>
      <point x="801" y="724"/>
      <point x="648" y="724" type="curve" smooth="yes"/>
      <point x="560" y="724"/>
      <point x="489" y="686"/>
      <point x="462" y="628" type="curve"/>
      <point x="457" y="628" type="line"/>
      <point x="428" y="689"/>
      <point x="365" y="724"/>
      <point x="280" y="724" type="curve" smooth="yes"/>
      <point x="129" y="724"/>
      <point x="50" y="615"/>
      <point x="50" y="474" type="curve" smooth="yes"/>
      <point x="50" y="336"/>
      <point x="130" y="227"/>
      <point x="250" y="180" type="curve"/>
      <point x="250" y="176" type="line"/>
      <point x="214" y="173"/>
      <point x="180" y="159"/>
      <point x="153" y="142" type="curve"/>
      <point x="205" y="46" type="line"/>
      <point x="255" y="72"/>
      <point x="320" y="87"/>
      <point x="383" y="87" type="curve" smooth="yes"/>
      <point x="467" y="87"/>
      <point x="557" y="60"/>
    </contour>
    <contour>
      <point x="641" y="356" type="curve" smooth="yes"/>
      <point x="573" y="356"/>
      <point x="541" y="409"/>
      <point x="541" y="481" type="curve" smooth="yes"/>
      <point x="541" y="555"/>
      <point x="573" y="606"/>
      <point x="642" y="606" type="curve" smooth="yes"/>
      <point x="713" y="606"/>
      <point x="745" y="553"/>
      <point x="745" y="481" type="curve" smooth="yes"/>
      <point x="745" y="409"/>
      <point x="713" y="356"/>
    </contour>
  </outline>
</glyph>
<glyph name="En-georgian" format="2">
  <advance width="629"/>
  <unicode hex="1C94"/>
  <anchor x="314" y="714" name="top"/>
  <outline>
    <contour>
      <point x="306" y="-10" type="curve" smooth="yes"/>
      <point x="469" y="-10"/>
      <point x="563" y="81"/>
      <point x="563" y="232" type="curve" smooth="yes"/>
      <point x="563" y="505" type="line" smooth="yes"/>
      <point x="563" y="641"/>
      <point x="468" y="724"/>
      <point x="318" y="724" type="curve" smooth="yes"/>
      <point x="178" y="724"/>
      <point x="69" y="654"/>
      <point x="69" y="527" type="curve" smooth="yes"/>
      <point x="69" y="494"/>
      <point x="74" y="471"/>
      <point x="80" y="449" type="curve"/>
      <point x="234" y="449" type="line"/>
      <point x="230" y="472"/>
      <point x="228" y="493"/>
      <point x="228" y="509" type="curve" smooth="yes"/>
      <point x="228" y="567"/>
      <point x="264" y="598"/>
      <point x="321" y="598" type="curve" smooth="yes"/>
      <point x="376" y="598"/>
      <point x="413" y="563"/>
      <point x="413" y="501" type="curve" smooth="yes"/>
      <point x="413" y="234" type="line" smooth="yes"/>
      <point x="413" y="163"/>
      <point x="385" y="116"/>
      <point x="308" y="116" type="curve" smooth="yes"/>
      <point x="237" y="116"/>
      <point x="202" y="165"/>
      <point x="202" y="228" type="curve" smooth="yes"/>
      <point x="202" y="251"/>
      <point x="205" y="280"/>
      <point x="211" y="303" type="curve"/>
      <point x="57" y="303" type="line"/>
      <point x="48" y="275"/>
      <point x="44" y="246"/>
      <point x="44" y="214" type="curve" smooth="yes"/>
      <point x="44" y="85"/>
      <point x="145" y="-10"/>
    </contour>
  </outline>
</glyph>
<glyph name="Vin-georgian" format="2">
  <advance width="630"/>
  <unicode hex="1C95"/>
  <outline>
    <contour>
      <point x="315" y="-10" type="curve" smooth="yes"/>
      <point x="484" y="-10"/>
      <point x="586" y="83"/>
      <point x="586" y="207" type="curve" smooth="yes"/>
      <point x="586" y="309"/>
      <point x="518" y="365"/>
      <point x="446" y="378" type="curve"/>
      <point x="446" y="381" type="line"/>
      <point x="519" y="400"/>
      <point x="567" y="450"/>
      <point x="567" y="534" type="curve" smooth="yes"/>
      <point x="567" y="643"/>
      <point x="470" y="724"/>
      <point x="320" y="724" type="curve" smooth="yes"/>
      <point x="176" y="724"/>
      <point x="70" y="652"/>
      <point x="70" y="540" type="curve" smooth="yes"/>
      <point x="70" y="519"/>
      <point x="72" y="502"/>
      <point x="79" y="481" type="curve"/>
      <point x="230" y="481" type="line"/>
      <point x="227" y="498"/>
      <point x="226" y="509"/>
      <point x="226" y="524" type="curve" smooth="yes"/>
      <point x="226" y="573"/>
      <point x="260" y="603"/>
      <point x="319" y="603" type="curve" smooth="yes"/>
      <point x="375" y="603"/>
      <point x="410" y="571"/>
      <point x="410" y="523" type="curve" smooth="yes"/>
      <point x="410" y="475"/>
      <point x="383" y="435"/>
      <point x="315" y="435" type="curve" smooth="yes"/>
      <point x="274" y="435" type="line"/>
      <point x="274" y="316" type="line"/>
      <point x="312" y="316" type="line" smooth="yes"/>
      <point x="379" y="316"/>
      <point x="428" y="287"/>
      <point x="428" y="215" type="curve" smooth="yes"/>
      <point x="428" y="159"/>
      <point x="395" y="110"/>
      <point x="316" y="110" type="curve" smooth="yes"/>
      <point x="237" y="110"/>
      <point x="200" y="154"/>
      <point x="200" y="214" type="curve" smooth="yes"/>
      <point x="200" y="232"/>
      <point x="202" y="248"/>
      <point x="207" y="270" type="curve"/>
      <point x="56" y="270" type="line"/>
      <point x="48" y="246"/>
      <point x="44" y="226"/>
      <point x="44" y="197" type="curve" smooth="yes"/>
      <point x="44" y="84"/>
      <point x="143" y="-10"/>
    </contour>
  </outline>
</glyph>
<glyph name="Zen-georgian" format="2">
  <advance width="678"/>
  <unicode hex="1C96"/>
  <outline>
    <contour>
      <point x="362" y="-10" type="curve" smooth="yes"/>
      <point x="525" y="-10"/>
      <point x="628" y="87"/>
      <point x="628" y="246" type="curve" smooth="yes"/>
      <point x="628" y="364"/>
      <point x="551" y="458"/>
      <point x="443" y="475" type="curve" smooth="yes"/>
      <point x="431" y="477"/>
      <point x="427" y="478"/>
      <point x="421" y="478" type="curve"/>
      <point x="421" y="481" type="line"/>
      <point x="435" y="502"/>
      <point x="445" y="531"/>
      <point x="445" y="561" type="curve" smooth="yes"/>
      <point x="445" y="644"/>
      <point x="367" y="724"/>
      <point x="234" y="724" type="curve" smooth="yes"/>
      <point x="94" y="724"/>
      <point x="22" y="636"/>
      <point x="22" y="550" type="curve" smooth="yes"/>
      <point x="22" y="469"/>
      <point x="68" y="412"/>
      <point x="152" y="389" type="curve"/>
      <point x="152" y="385" type="line"/>
      <point x="115" y="350"/>
      <point x="98" y="294"/>
      <point x="98" y="237" type="curve" smooth="yes"/>
      <point x="98" y="87"/>
      <point x="209" y="-10"/>
    </contour>
    <contour>
      <point x="364" y="115" type="curve" smooth="yes"/>
      <point x="286" y="115"/>
      <point x="257" y="169"/>
      <point x="257" y="246" type="curve" smooth="yes"/>
      <point x="257" y="322"/>
      <point x="287" y="374"/>
      <point x="363" y="374" type="curve" smooth="yes"/>
      <point x="440" y="374"/>
      <point x="470" y="322"/>
      <point x="470" y="246" type="curve" smooth="yes"/>
      <point x="470" y="169"/>
      <point x="440" y="115"/>
    </contour>
    <contour>
      <point x="234" y="471" type="curve" smooth="yes"/>
      <point x="185" y="471"/>
      <point x="164" y="506"/>
      <point x="164" y="542" type="curve" smooth="yes"/>
      <point x="164" y="582"/>
      <point x="186" y="614"/>
      <point x="233" y="614" type="curve" smooth="yes"/>
      <point x="282" y="614"/>
      <point x="302" y="582"/>
      <point x="302" y="542" type="curve" smooth="yes"/>
      <point x="302" y="505"/>
      <point x="281" y="471"/>
    </contour>
  </outline>
</glyph>
<glyph name="Tan-georgian" format="2">
  <advance width="976"/>
  <unicode hex="1C97"/>
  <outline>
    <contour>
      <point x="685" y="724" type="curve" smooth="yes"/>
      <point x="623" y="724"/>
      <point x="541" y="700"/>
      <point x="509" y="626" type="curve"/>
      <point x="506" y="626" type="line"/>
      <point x="472" y="698"/>
      <point x="400" y="724"/>
      <point x="319" y="724" type="curve" smooth="yes"/>
      <point x="141" y="724"/>
      <point x="54" y="602"/>
      <point x="54" y="357" type="curve" smooth="yes"/>
      <point x="54" y="114"/>
      <point x="137" y="-10"/>
      <point x="322" y="-10" type="curve" smooth="yes"/>
      <point x="506" y="-10"/>
      <point x="590" y="112"/>
      <point x="590" y="350" type="curve" smooth="yes"/>
      <point x="590" y="404"/>
      <point x="583" y="443"/>
      <point x="583" y="490" type="curve" smooth="yes"/>
      <point x="583" y="549"/>
      <point x="611" y="597"/>
      <point x="669" y="597" type="curve" smooth="yes"/>
      <point x="730" y="597"/>
      <point x="763" y="545"/>
      <point x="763" y="401" type="curve" smooth="yes"/>
      <point x="763" y="234"/>
      <point x="732" y="110"/>
      <point x="694" y="0" type="curve"/>
      <point x="849" y="0" type="line"/>
      <point x="892" y="113"/>
      <point x="922" y="223"/>
      <point x="922" y="399" type="curve" smooth="yes"/>
      <point x="922" y="630"/>
      <point x="819" y="724"/>
    </contour>
    <contour>
      <point x="322" y="117" type="curve" smooth="yes"/>
      <point x="242" y="117"/>
      <point x="213" y="185"/>
      <point x="213" y="357" type="curve" smooth="yes"/>
      <point x="213" y="527"/>
      <point x="242" y="597"/>
      <point x="322" y="597" type="curve" smooth="yes"/>
      <point x="403" y="597"/>
      <point x="431" y="529"/>
      <point x="431" y="358" type="curve" smooth="yes"/>
      <point x="431" y="190"/>
      <point x="404" y="117"/>
    </contour>
  </outline>
</glyph>
<glyph name="In-georgian" format="2">
  <advance width="643"/>
  <unicode hex="1C98"/>
  <anchor x="322" y="714" name="top"/>
  <outline>
    <contour>
      <point x="107" y="0" type="curve"/>
      <point x="261" y="0" type="line"/>
      <point x="234" y="94"/>
      <point x="212" y="212"/>
      <point x="212" y="394" type="curve" smooth="yes"/>
      <point x="212" y="544"/>
      <point x="252" y="598"/>
      <point x="321" y="598" type="curve" smooth="yes"/>
      <point x="391" y="598"/>
      <point x="430" y="543"/>
      <point x="430" y="394" type="curve" smooth="yes"/>
      <point x="430" y="213"/>
      <point x="409" y="94"/>
      <point x="382" y="0" type="curve"/>
      <point x="536" y="0" type="line"/>
      <point x="567" y="94"/>
      <point x="589" y="202"/>
      <point x="589" y="391" type="curve" smooth="yes"/>
      <point x="589" y="628"/>
      <point x="475" y="724"/>
      <point x="321" y="724" type="curve" smooth="yes"/>
      <point x="168" y="724"/>
      <point x="54" y="628"/>
      <point x="54" y="391" type="curve" smooth="yes"/>
      <point x="54" y="201"/>
      <point x="76" y="94"/>
    </contour>
  </outline>
</glyph>
<glyph name="Kan-georgian" format="2">
  <advance width="615"/>
  <unicode hex="1C99"/>
  <outline>
    <contour>
      <point x="302" y="-10" type="curve" smooth="yes"/>
      <point x="468" y="-10"/>
      <point x="571" y="81"/>
      <point x="571" y="213" type="curve" smooth="yes"/>
      <point x="571" y="326"/>
      <point x="504" y="384"/>
      <point x="441" y="397" type="curve"/>
      <point x="441" y="400" type="line"/>
      <point x="506" y="419"/>
      <point x="551" y="470"/>
      <point x="551" y="553" type="curve" smooth="yes"/>
      <point x="551" y="651"/>
      <point x="463" y="724"/>
      <point x="312" y="724" type="curve"/>
      <point x="312" y="602" type="line"/>
      <point x="366" y="602"/>
      <point x="396" y="571"/>
      <point x="396" y="529" type="curve" smooth="yes"/>
      <point x="396" y="491"/>
      <point x="375" y="454"/>
      <point x="307" y="454" type="curve" smooth="yes"/>
      <point x="268" y="454" type="line"/>
      <point x="268" y="332" type="line"/>
      <point x="307" y="332" type="line" smooth="yes"/>
      <point x="376" y="332"/>
      <point x="414" y="291"/>
      <point x="414" y="223" type="curve" smooth="yes"/>
      <point x="414" y="156"/>
      <point x="380" y="110"/>
      <point x="302" y="110" type="curve" smooth="yes"/>
      <point x="232" y="110"/>
      <point x="195" y="154"/>
      <point x="195" y="214" type="curve" smooth="yes"/>
      <point x="195" y="232"/>
      <point x="197" y="248"/>
      <point x="202" y="270" type="curve"/>
      <point x="51" y="270" type="line"/>
      <point x="43" y="246"/>
      <point x="39" y="226"/>
      <point x="39" y="197" type="curve" smooth="yes"/>
      <point x="39" y="84"/>
      <point x="138" y="-10"/>
    </contour>
  </outline>
</glyph>
<glyph name="Las-georgian" format="2">
  <advance width="1191"/>
  <unicode hex="1C9A"/>
  <outline>
    <contour>
      <point x="706" y="0" type="curve"/>
      <point x="857" y="0" type="line"/>
      <point x="840" y="156"/>
      <point x="702" y="225"/>
      <point x="497" y="245" type="curve" smooth="yes"/>
      <point x="315" y="263"/>
      <point x="206" y="331"/>
      <point x="206" y="475" type="curve" smooth="yes"/>
      <point x="206" y="560"/>
      <point x="239" y="598"/>
      <point x="290" y="598" type="curve" smooth="yes"/>
      <point x="347" y="598"/>
      <point x="366" y="538"/>
      <point x="366" y="476" type="curve" smooth="yes"/>
      <point x="366" y="371" type="line"/>
      <point x="517" y="371" type="line"/>
      <point x="517" y="489" type="line" smooth="yes"/>
      <point x="517" y="547"/>
      <point x="540" y="598"/>
      <point x="594" y="598" type="curve" smooth="yes"/>
      <point x="651" y="598"/>
      <point x="673" y="545"/>
      <point x="673" y="489" type="curve" smooth="yes"/>
      <point x="673" y="371" type="line"/>
      <point x="824" y="371" type="line"/>
      <point x="824" y="476" type="line" smooth="yes"/>
      <point x="824" y="541"/>
      <point x="847" y="598"/>
      <point x="900" y="598" type="curve" smooth="yes"/>
      <point x="951" y="598"/>
      <point x="984" y="558"/>
      <point x="984" y="472" type="curve" smooth="yes"/>
      <point x="984" y="408"/>
      <point x="971" y="348"/>
      <point x="940" y="285" type="curve"/>
      <point x="1082" y="237" type="line"/>
      <point x="1122" y="314"/>
      <point x="1141" y="385"/>
      <point x="1141" y="469" type="curve" smooth="yes"/>
      <point x="1141" y="617"/>
      <point x="1058" y="724"/>
      <point x="913" y="724" type="curve" smooth="yes"/>
      <point x="831" y="724"/>
      <point x="776" y="685"/>
      <point x="751" y="620" type="curve"/>
      <point x="745" y="620" type="line"/>
      <point x="725" y="684"/>
      <point x="670" y="724"/>
      <point x="594" y="724" type="curve" smooth="yes"/>
      <point x="518" y="724"/>
      <point x="466" y="687"/>
      <point x="443" y="620" type="curve"/>
      <point x="438" y="620" type="line"/>
      <point x="414" y="685"/>
      <point x="352" y="724"/>
      <point x="269" y="724" type="curve" smooth="yes"/>
      <point x="125" y="724"/>
      <point x="50" y="618"/>
      <point x="50" y="486" type="curve" smooth="yes"/>
      <point x="50" y="342"/>
      <point x="130" y="240"/>
      <point x="288" y="197" type="curve"/>
      <point x="288" y="194" type="line"/>
      <point x="246" y="188"/>
      <point x="212" y="171"/>
      <point x="183" y="153" type="curve"/>
      <point x="241" y="61" type="line"/>
      <point x="295" y="90"/>
      <point x="366" y="118"/>
      <point x="465" y="118" type="curve" smooth="yes"/>
      <point x="573" y="118"/>
      <point x="698" y="75"/>
    </contour>
  </outline>
</glyph>
<glyph name="On-georgian" format="2">
  <advance width="926"/>
  <unicode hex="1C9D"/>
  <anchor x="463" y="714" name="top"/>
  <outline>
    <contour>
      <point x="127" y="0" type="curve"/>
      <point x="283" y="0" type="line"/>
      <point x="243" y="116"/>
      <point x="213" y="237"/>
      <point x="213" y="401" type="curve" smooth="yes"/>
      <point x="213" y="547"/>
      <point x="249" y="598"/>
      <point x="303" y="598" type="curve" smooth="yes"/>
      <point x="360" y="598"/>
      <point x="384" y="548"/>
      <point x="384" y="460" type="curve" smooth="yes"/>
      <point x="384" y="209" type="line"/>
      <point x="543" y="209" type="line"/>
      <point x="543" y="460" type="line" smooth="yes"/>
      <point x="543" y="536"/>
      <point x="560" y="598"/>
      <point x="622" y="598" type="curve" smooth="yes"/>
      <point x="677" y="598"/>
      <point x="712" y="546"/>
      <point x="712" y="401" type="curve" smooth="yes"/>
      <point x="712" y="237"/>
      <point x="683" y="114"/>
      <point x="643" y="0" type="curve"/>
      <point x="799" y="0" type="line"/>
      <point x="841" y="113"/>
      <point x="872" y="220"/>
      <point x="872" y="399" type="curve" smooth="yes"/>
      <point x="872" y="631"/>
      <point x="763" y="724"/>
      <point x="637" y="724" type="curve" smooth="yes"/>
      <point x="571" y="724"/>
      <point x="499" y="699"/>
      <point x="465" y="618" type="curve"/>
      <point x="462" y="618" type="line"/>
      <point x="430" y="701"/>
      <point x="354" y="724"/>
      <point x="294" y="724" type="curve" smooth="yes"/>
      <point x="164" y="724"/>
      <point x="54" y="632"/>
      <point x="54" y="399" type="curve" smooth="yes"/>
      <point x="54" y="230"/>
      <point x="83" y="113"/>
    </contour>
  </outline>
</glyph>
<glyph name="Par-georgian" format="2">
  <advance width="626"/>
  <unicode hex="1C9E"/>
  <outline>
    <contour>
      <point x="310" y="-10" type="curve" smooth="yes"/>
      <point x="475" y="-10"/>
      <point x="576" y="83"/>
      <point x="576" y="210" type="curve" smooth="yes"/>
      <point x="576" y="310"/>
      <point x="510" y="370"/>
      <point x="448" y="385" type="curve"/>
      <point x="448" y="388" type="line"/>
      <point x="510" y="403"/>
      <point x="556" y="443"/>
      <point x="556" y="504" type="curve" smooth="yes"/>
      <point x="556" y="584"/>
      <point x="504" y="622"/>
      <point x="454" y="645" type="curve" smooth="yes"/>
      <point x="417" y="662"/>
      <point x="384" y="682"/>
      <point x="382" y="714" type="curve"/>
      <point x="223" y="714" type="line"/>
      <point x="215" y="627"/>
      <point x="271" y="583"/>
      <point x="328" y="561" type="curve" smooth="yes"/>
      <point x="364" y="547"/>
      <point x="394" y="533"/>
      <point x="394" y="497" type="curve" smooth="yes"/>
      <point x="394" y="468"/>
      <point x="370" y="447"/>
      <point x="308" y="447" type="curve" smooth="yes"/>
      <point x="254" y="447" type="line"/>
      <point x="254" y="329" type="line"/>
      <point x="296" y="329" type="line" smooth="yes"/>
      <point x="369" y="329"/>
      <point x="418" y="295"/>
      <point x="418" y="222" type="curve" smooth="yes"/>
      <point x="418" y="161"/>
      <point x="385" y="110"/>
      <point x="310" y="110" type="curve" smooth="yes"/>
      <point x="237" y="110"/>
      <point x="200" y="154"/>
      <point x="200" y="214" type="curve" smooth="yes"/>
      <point x="200" y="232"/>
      <point x="202" y="248"/>
      <point x="207" y="270" type="curve"/>
      <point x="56" y="270" type="line"/>
      <point x="48" y="246"/>
      <point x="44" y="226"/>
      <point x="44" y="197" type="curve" smooth="yes"/>
      <point x="44" y="84"/>
      <point x="143" y="-10"/>
    </contour>
  </outline>
</glyph>
<glyph name="Zhar-georgian" format="2">
  <advance width="673"/>
  <unicode hex="1C9F"/>
  <outline>
    <contour>
      <point x="340" y="-10" type="curve" smooth="yes"/>
      <point x="508" y="-10"/>
      <point x="601" y="85"/>
      <point x="601" y="231" type="curve" smooth="yes"/>
      <point x="601" y="714" type="line"/>
      <point x="471" y="714" type="line"/>
      <point x="397" y="684"/>
      <point x="296" y="665"/>
      <point x="199" y="658" type="curve"/>
      <point x="199" y="546" type="line"/>
      <point x="242" y="546"/>
      <point x="255" y="523"/>
      <point x="255" y="496" type="curve" smooth="yes"/>
      <point x="255" y="470"/>
      <point x="237" y="448"/>
      <point x="205" y="448" type="curve" smooth="yes"/>
      <point x="177" y="448"/>
      <point x="159" y="467"/>
      <point x="159" y="493" type="curve" smooth="yes"/>
      <point x="159" y="497"/>
      <point x="159" y="501"/>
      <point x="159" y="506" type="curve"/>
      <point x="44" y="506" type="line"/>
      <point x="42" y="498"/>
      <point x="40" y="485"/>
      <point x="40" y="473" type="curve" smooth="yes"/>
      <point x="40" y="401"/>
      <point x="108" y="346"/>
      <point x="206" y="346" type="curve" smooth="yes"/>
      <point x="309" y="346"/>
      <point x="375" y="407"/>
      <point x="375" y="480" type="curve" smooth="yes"/>
      <point x="375" y="521"/>
      <point x="359" y="548"/>
      <point x="334" y="563" type="curve"/>
      <point x="334" y="565" type="line"/>
      <point x="372" y="570"/>
      <point x="413" y="578"/>
      <point x="447" y="590" type="curve"/>
      <point x="447" y="228" type="line" smooth="yes"/>
      <point x="447" y="158"/>
      <point x="419" y="110"/>
      <point x="340" y="110" type="curve" smooth="yes"/>
      <point x="271" y="110"/>
      <point x="234" y="154"/>
      <point x="234" y="214" type="curve" smooth="yes"/>
      <point x="234" y="229"/>
      <point x="236" y="249"/>
      <point x="241" y="270" type="curve"/>
      <point x="90" y="270" type="line"/>
      <point x="81" y="243"/>
      <point x="78" y="221"/>
      <point x="78" y="197" type="curve" smooth="yes"/>
      <point x="78" y="84"/>
      <point x="177" y="-10"/>
    </contour>
  </outline>
</glyph>
<glyph name="Rae-georgian" format="2">
  <advance width="890"/>
  <unicode hex="1CA0"/>
  <outline>
    <contour>
      <point x="103" y="0" type="curve"/>
      <point x="259" y="0" type="line"/>
      <point x="225" y="83"/>
      <point x="206" y="163"/>
      <point x="206" y="252" type="curve" smooth="yes"/>
      <point x="206" y="350"/>
      <point x="235" y="394"/>
      <point x="292" y="394" type="curve" smooth="yes"/>
      <point x="344" y="394"/>
      <point x="370" y="353"/>
      <point x="370" y="276" type="curve" smooth="yes"/>
      <point x="370" y="154" type="line"/>
      <point x="519" y="154" type="line"/>
      <point x="519" y="276" type="line" smooth="yes"/>
      <point x="519" y="342"/>
      <point x="541" y="394"/>
      <point x="596" y="394" type="curve" smooth="yes"/>
      <point x="661" y="394"/>
      <point x="683" y="327"/>
      <point x="683" y="255" type="curve" smooth="yes"/>
      <point x="683" y="160"/>
      <point x="663" y="81"/>
      <point x="630" y="0" type="curve"/>
      <point x="785" y="0" type="line"/>
      <point x="821" y="87"/>
      <point x="840" y="165"/>
      <point x="840" y="258" type="curve" smooth="yes"/>
      <point x="840" y="401"/>
      <point x="761" y="511"/>
      <point x="619" y="511" type="curve" smooth="yes"/>
      <point x="530" y="511"/>
      <point x="472" y="473"/>
      <point x="447" y="403" type="curve"/>
      <point x="443" y="403" type="line"/>
      <point x="419" y="471"/>
      <point x="364" y="511"/>
      <point x="292" y="511" type="curve" smooth="yes"/>
      <point x="251" y="511"/>
      <point x="209" y="501"/>
      <point x="180" y="469" type="curve"/>
      <point x="176" y="469" type="line"/>
      <point x="209" y="537"/>
      <point x="304" y="558"/>
      <point x="382" y="569" type="curve" smooth="yes"/>
      <point x="440" y="577"/>
      <point x="543" y="588"/>
      <point x="628" y="598" type="curve"/>
      <point x="611" y="725" type="line"/>
      <point x="512" y="715"/>
      <point x="436" y="705"/>
      <point x="372" y="695" type="curve" smooth="yes"/>
      <point x="125" y="657"/>
      <point x="50" y="522"/>
      <point x="50" y="290" type="curve" smooth="yes"/>
      <point x="50" y="182"/>
      <point x="65" y="104"/>
    </contour>
  </outline>
</glyph>
<glyph name="San-georgian" format="2">
  <advance width="643"/>
  <unicode hex="1CA1"/>
  <outline>
    <contour>
      <point x="329" y="-10" type="curve" smooth="yes"/>
      <point x="491" y="-10"/>
      <point x="593" y="88"/>
      <point x="593" y="232" type="curve" smooth="yes"/>
      <point x="593" y="310"/>
      <point x="567" y="357"/>
      <point x="539" y="398" type="curve" smooth="yes"/>
      <point x="512" y="438"/>
      <point x="492" y="466"/>
      <point x="494" y="515" type="curve"/>
      <point x="337" y="515" type="line"/>
      <point x="329" y="444"/>
      <point x="355" y="398"/>
      <point x="383" y="358" type="curve" smooth="yes"/>
      <point x="409" y="320"/>
      <point x="434" y="284"/>
      <point x="434" y="224" type="curve" smooth="yes"/>
      <point x="434" y="166"/>
      <point x="399" y="116"/>
      <point x="329" y="116" type="curve" smooth="yes"/>
      <point x="255" y="116"/>
      <point x="217" y="165"/>
      <point x="217" y="243" type="curve" smooth="yes"/>
      <point x="217" y="714" type="line"/>
      <point x="66" y="714" type="line"/>
      <point x="66" y="253" type="line" smooth="yes"/>
      <point x="66" y="87"/>
      <point x="160" y="-10"/>
    </contour>
  </outline>
</glyph>
<glyph name="Tar-georgian" format="2">
  <advance width="823"/>
  <unicode hex="1CA2"/>
  <outline>
    <contour>
      <point x="411" y="-10" type="curve" smooth="yes"/>
      <point x="641" y="-10"/>
      <point x="773" y="136"/>
      <point x="773" y="353" type="curve" smooth="yes"/>
      <point x="773" y="551"/>
      <point x="671" y="678"/>
      <point x="486" y="703" type="curve"/>
      <point x="489" y="718"/>
      <point x="489" y="729"/>
      <point x="489" y="741" type="curve"/>
      <point x="489" y="753" type="line"/>
      <point x="333" y="753" type="line"/>
      <point x="333" y="741" type="line"/>
      <point x="333" y="729"/>
      <point x="333" y="718"/>
      <point x="336" y="702" type="curve"/>
      <point x="151" y="677"/>
      <point x="50" y="548"/>
      <point x="50" y="354" type="curve" smooth="yes"/>
      <point x="50" y="133"/>
      <point x="182" y="-10"/>
    </contour>
    <contour>
      <point x="410" y="118" type="curve" smooth="yes"/>
      <point x="283" y="118"/>
      <point x="211" y="196"/>
      <point x="211" y="354" type="curve" smooth="yes"/>
      <point x="211" y="485"/>
      <point x="255" y="563"/>
      <point x="343" y="584" type="curve"/>
      <point x="339" y="561"/>
      <point x="335" y="536"/>
      <point x="335" y="494" type="curve"/>
      <point x="335" y="351" type="line"/>
      <point x="486" y="351" type="line"/>
      <point x="486" y="494" type="line"/>
      <point x="486" y="539"/>
      <point x="481" y="566"/>
      <point x="478" y="584" type="curve"/>
      <point x="564" y="564"/>
      <point x="611" y="492"/>
      <point x="611" y="354" type="curve" smooth="yes"/>
      <point x="611" y="196"/>
      <point x="541" y="118"/>
    </contour>
  </outline>
</glyph>
<glyph name="Un-georgian" format="2">
  <advance width="650"/>
  <unicode hex="1CA3"/>
  <anchor x="326" y="714" name="top"/>
  <outline>
    <contour>
      <point x="326" y="-10" type="curve" smooth="yes"/>
      <point x="492" y="-10"/>
      <point x="584" y="80"/>
      <point x="584" y="231" type="curve" smooth="yes"/>
      <point x="584" y="536" type="line" smooth="yes"/>
      <point x="584" y="650"/>
      <point x="516" y="724"/>
      <point x="392" y="724" type="curve" smooth="yes"/>
      <point x="324" y="724"/>
      <point x="265" y="693"/>
      <point x="240" y="636" type="curve"/>
      <point x="237" y="636" type="line"/>
      <point x="213" y="693"/>
      <point x="166" y="719"/>
      <point x="100" y="719" type="curve" smooth="yes"/>
      <point x="37" y="719" type="line"/>
      <point x="37" y="593" type="line"/>
      <point x="96" y="593" type="line" smooth="yes"/>
      <point x="136" y="593"/>
      <point x="160" y="571"/>
      <point x="160" y="528" type="curve" smooth="yes"/>
      <point x="160" y="430" type="line"/>
      <point x="308" y="430" type="line"/>
      <point x="308" y="527" type="line" smooth="yes"/>
      <point x="308" y="579"/>
      <point x="334" y="601"/>
      <point x="371" y="601" type="curve" smooth="yes"/>
      <point x="412" y="601"/>
      <point x="433" y="575"/>
      <point x="433" y="525" type="curve" smooth="yes"/>
      <point x="433" y="234" type="line" smooth="yes"/>
      <point x="433" y="164"/>
      <point x="405" y="116"/>
      <point x="327" y="116" type="curve" smooth="yes"/>
      <point x="256" y="116"/>
      <point x="222" y="165"/>
      <point x="222" y="228" type="curve" smooth="yes"/>
      <point x="222" y="254"/>
      <point x="225" y="282"/>
      <point x="230" y="303" type="curve"/>
      <point x="76" y="303" type="line"/>
      <point x="68" y="275"/>
      <point x="64" y="251"/>
      <point x="64" y="214" type="curve" smooth="yes"/>
      <point x="64" y="85"/>
      <point x="164" y="-10"/>
    </contour>
  </outline>
</glyph>
<glyph name="Phar-georgian" format="2">
  <advance width="946"/>
  <unicode hex="1CA4"/>
  <outline>
    <contour>
      <point x="561" y="-10" type="curve" smooth="yes"/>
      <point x="769" y="-10"/>
      <point x="877" y="84"/>
      <point x="877" y="206" type="curve" smooth="yes"/>
      <point x="877" y="273"/>
      <point x="840" y="329"/>
      <point x="773" y="348" type="curve"/>
      <point x="773" y="351" type="line"/>
      <point x="843" y="371"/>
      <point x="896" y="423"/>
      <point x="896" y="528" type="curve" smooth="yes"/>
      <point x="896" y="636"/>
      <point x="815" y="724"/>
      <point x="673" y="724" type="curve" smooth="yes"/>
      <point x="589" y="724"/>
      <point x="524" y="691"/>
      <point x="495" y="630" type="curve"/>
      <point x="492" y="630" type="line"/>
      <point x="463" y="691"/>
      <point x="390" y="724"/>
      <point x="306" y="724" type="curve" smooth="yes"/>
      <point x="152" y="724"/>
      <point x="50" y="629"/>
      <point x="50" y="484" type="curve" smooth="yes"/>
      <point x="50" y="344"/>
      <point x="159" y="250"/>
      <point x="309" y="250" type="curve" smooth="yes"/>
      <point x="471" y="250"/>
      <point x="570" y="344"/>
      <point x="570" y="478" type="curve" smooth="yes"/>
      <point x="570" y="506" type="line" smooth="yes"/>
      <point x="570" y="565"/>
      <point x="599" y="606"/>
      <point x="655" y="606" type="curve" smooth="yes"/>
      <point x="713" y="606"/>
      <point x="737" y="561"/>
      <point x="737" y="506" type="curve" smooth="yes"/>
      <point x="737" y="451"/>
      <point x="706" y="404"/>
      <point x="641" y="404" type="curve" smooth="yes"/>
      <point x="610" y="404" type="line"/>
      <point x="610" y="288" type="line"/>
      <point x="626" y="288" type="line" smooth="yes"/>
      <point x="685" y="288"/>
      <point x="717" y="256"/>
      <point x="717" y="210" type="curve" smooth="yes"/>
      <point x="717" y="156"/>
      <point x="668" y="109"/>
      <point x="566" y="109" type="curve" smooth="yes"/>
      <point x="471" y="109"/>
      <point x="405" y="133"/>
      <point x="405" y="187" type="curve" smooth="yes"/>
      <point x="405" y="191"/>
      <point x="405" y="197"/>
      <point x="406" y="202" type="curve"/>
      <point x="253" y="202" type="line"/>
      <point x="251" y="192"/>
      <point x="249" y="179"/>
      <point x="249" y="166" type="curve" smooth="yes"/>
      <point x="249" y="55"/>
      <point x="372" y="-10"/>
    </contour>
    <contour>
      <point x="311" y="367" type="curve" smooth="yes"/>
      <point x="241" y="367"/>
      <point x="208" y="419"/>
      <point x="208" y="486" type="curve" smooth="yes"/>
      <point x="208" y="554"/>
      <point x="241" y="606"/>
      <point x="310" y="606" type="curve" smooth="yes"/>
      <point x="381" y="606"/>
      <point x="413" y="554"/>
      <point x="413" y="486" type="curve" smooth="yes"/>
      <point x="413" y="420"/>
      <point x="381" y="367"/>
    </contour>
  </outline>
</glyph>
<glyph name="Khar-georgian" format="2">
  <advance width="629"/>
  <unicode hex="1CA5"/>
  <outline>
    <contour>
      <point x="306" y="-10" type="curve" smooth="yes"/>
      <point x="473" y="-10"/>
      <point x="563" y="83"/>
      <point x="563" y="238" type="curve" smooth="yes"/>
      <point x="563" y="714" type="line"/>
      <point x="412" y="714" type="line"/>
      <point x="412" y="638" type="line" smooth="yes"/>
      <point x="412" y="603"/>
      <point x="415" y="570"/>
      <point x="419" y="546" type="curve"/>
      <point x="415" y="546" type="line"/>
      <point x="386" y="586"/>
      <point x="342" y="617"/>
      <point x="262" y="617" type="curve" smooth="yes"/>
      <point x="164" y="617"/>
      <point x="70" y="545"/>
      <point x="70" y="433" type="curve" smooth="yes"/>
      <point x="70" y="409"/>
      <point x="73" y="390"/>
      <point x="77" y="374" type="curve"/>
      <point x="228" y="374" type="line"/>
      <point x="226" y="388"/>
      <point x="225" y="402"/>
      <point x="225" y="413" type="curve" smooth="yes"/>
      <point x="225" y="467"/>
      <point x="260" y="499"/>
      <point x="314" y="499" type="curve" smooth="yes"/>
      <point x="387" y="499"/>
      <point x="413" y="441"/>
      <point x="413" y="368" type="curve" smooth="yes"/>
      <point x="413" y="240" type="line" smooth="yes"/>
      <point x="413" y="165"/>
      <point x="385" y="110"/>
      <point x="306" y="110" type="curve" smooth="yes"/>
      <point x="237" y="110"/>
      <point x="200" y="154"/>
      <point x="200" y="214" type="curve" smooth="yes"/>
      <point x="200" y="232"/>
      <point x="202" y="248"/>
      <point x="207" y="270" type="curve"/>
      <point x="56" y="270" type="line"/>
      <point x="48" y="246"/>
      <point x="44" y="226"/>
      <point x="44" y="197" type="curve" smooth="yes"/>
      <point x="44" y="84"/>
      <point x="143" y="-10"/>
    </contour>
  </outline>
</glyph>
<glyph name="Ghan-georgian" format="2">
  <advance width="894"/>
  <unicode hex="1CA6"/>
  <outline>
    <contour>
      <point x="522" y="0" type="curve"/>
      <point x="672" y="0" type="line"/>
      <point x="662" y="121"/>
      <point x="566" y="189"/>
      <point x="455" y="217" type="curve" smooth="yes"/>
      <point x="319" y="251"/>
      <point x="207" y="303"/>
      <point x="207" y="470" type="curve" smooth="yes"/>
      <point x="207" y="567"/>
      <point x="240" y="604"/>
      <point x="297" y="604" type="curve" smooth="yes"/>
      <point x="352" y="604"/>
      <point x="373" y="564"/>
      <point x="373" y="495" type="curve" smooth="yes"/>
      <point x="373" y="365" type="line"/>
      <point x="521" y="365" type="line"/>
      <point x="521" y="495" type="line" smooth="yes"/>
      <point x="521" y="564"/>
      <point x="542" y="604"/>
      <point x="597" y="604" type="curve" smooth="yes"/>
      <point x="662" y="604"/>
      <point x="687" y="541"/>
      <point x="687" y="467" type="curve" smooth="yes"/>
      <point x="687" y="404"/>
      <point x="675" y="343"/>
      <point x="646" y="284" type="curve"/>
      <point x="778" y="235" type="line"/>
      <point x="824" y="314"/>
      <point x="844" y="382"/>
      <point x="844" y="471" type="curve" smooth="yes"/>
      <point x="844" y="617"/>
      <point x="761" y="723"/>
      <point x="616" y="723" type="curve" smooth="yes"/>
      <point x="535" y="723"/>
      <point x="477" y="691"/>
      <point x="450" y="622" type="curve"/>
      <point x="444" y="622" type="line"/>
      <point x="420" y="685"/>
      <point x="360" y="723"/>
      <point x="272" y="723" type="curve" smooth="yes"/>
      <point x="128" y="723"/>
      <point x="50" y="616"/>
      <point x="50" y="471" type="curve" smooth="yes"/>
      <point x="50" y="339"/>
      <point x="120" y="238"/>
      <point x="234" y="192" type="curve"/>
      <point x="234" y="188" type="line"/>
      <point x="195" y="185"/>
      <point x="157" y="170"/>
      <point x="134" y="154" type="curve"/>
      <point x="186" y="58" type="line"/>
      <point x="236" y="84"/>
      <point x="289" y="99"/>
      <point x="352" y="99" type="curve" smooth="yes"/>
      <point x="430" y="99"/>
      <point x="512" y="66"/>
    </contour>
  </outline>
</glyph>
<glyph name="Qar-georgian" format="2">
  <advance width="639"/>
  <unicode hex="1CA7"/>
  <outline>
    <contour>
      <point x="312" y="-10" type="curve" smooth="yes"/>
      <point x="480" y="-10"/>
      <point x="573" y="80"/>
      <point x="573" y="233" type="curve" smooth="yes"/>
      <point x="573" y="714" type="line"/>
      <point x="422" y="714" type="line"/>
      <point x="422" y="587" type="line" smooth="yes"/>
      <point x="422" y="496"/>
      <point x="381" y="451"/>
      <point x="308" y="451" type="curve" smooth="yes"/>
      <point x="246" y="451"/>
      <point x="209" y="498"/>
      <point x="209" y="565" type="curve" smooth="yes"/>
      <point x="209" y="625"/>
      <point x="220" y="666"/>
      <point x="237" y="714" type="curve"/>
      <point x="82" y="714" type="line"/>
      <point x="64" y="673"/>
      <point x="51" y="620"/>
      <point x="51" y="558" type="curve" smooth="yes"/>
      <point x="51" y="410"/>
      <point x="138" y="327"/>
      <point x="263" y="327" type="curve" smooth="yes"/>
      <point x="338" y="327"/>
      <point x="393" y="358"/>
      <point x="424" y="399" type="curve"/>
      <point x="427" y="399" type="line"/>
      <point x="423" y="366"/>
      <point x="422" y="339"/>
      <point x="422" y="312" type="curve" smooth="yes"/>
      <point x="422" y="230" type="line" smooth="yes"/>
      <point x="422" y="162"/>
      <point x="394" y="110"/>
      <point x="312" y="110" type="curve" smooth="yes"/>
      <point x="243" y="110"/>
      <point x="206" y="154"/>
      <point x="206" y="214" type="curve" smooth="yes"/>
      <point x="206" y="231"/>
      <point x="208" y="248"/>
      <point x="213" y="270" type="curve"/>
      <point x="62" y="270" type="line"/>
      <point x="53" y="245"/>
      <point x="50" y="221"/>
      <point x="50" y="197" type="curve" smooth="yes"/>
      <point x="50" y="84"/>
      <point x="149" y="-10"/>
    </contour>
  </outline>
</glyph>
